<svg width="30" height="30" viewBox="0 0 30 30" fill="none" xmlns="http://www.w3.org/2000/svg">
<path d="M7.68042 20.662L9.43068 16.7301L10.884 18.5882L7.68042 20.662Z" fill="#1C5B98"/>
<path d="M9.86523 16.2241L15.34 23.7444L17.933 20.4115L20.0897 17.553L20.8015 10.6034L9.86523 16.2241Z" fill="#1C5B98"/>
<path d="M21.072 7.80628L20.9326 9.15672L26.8088 7.4977L20.785 10.6001L20.0732 17.5513L28 7L21.072 7.80628Z" fill="#F39019"/>
<path d="M12.4518 8.80834L2 10.0244L4.93812 12.503L5.96339 13.3673L20.9327 9.15673L21.072 7.80629L12.4518 8.80834Z" fill="#1C5B98"/>
<path d="M6.62036 14.215L7.57762 19.9868L8.9911 15.4693L20.8497 10.0609L20.9012 9.56317L6.62036 14.215Z" fill="#1C5B98"/>
<path d="M20.891 9.56318L20.8396 10.0609L24.5143 8.38196L20.891 9.56318Z" fill="#F39019"/>
</svg>
