<svg width="154" height="58" viewBox="0 0 154 58" fill="none" xmlns="http://www.w3.org/2000/svg">
<g clip-path="url(#clip0_389_1597)">
<mask id="mask0_389_1597" style="mask-type:luminance" maskUnits="userSpaceOnUse" x="0" y="0" width="154" height="58">
<path d="M153.072 0H0V57.9975H153.072V0Z" fill="white"/>
</mask>
<g mask="url(#mask0_389_1597)">
<path d="M72.353 20.6892L75.0035 14.7349L77.2044 17.5487L72.353 20.6892Z" fill="#1C5B98"/>
<path d="M75.6616 13.9686L83.9524 25.3571L87.8792 20.3098L91.1452 15.981L92.223 5.45681L75.6616 13.9686Z" fill="#1C5B98"/>
<path d="M92.6326 1.221L92.4215 3.26605L101.32 0.753703L92.1979 5.45179L91.1201 15.9785L103.124 0L92.6326 1.221Z" fill="#F39019"/>
<path d="M79.5785 2.73846L63.7507 4.58001L68.2001 8.33345L69.7527 9.64238L92.4216 3.26605L92.6327 1.221L79.5785 2.73846Z" fill="#1C5B98"/>
<path d="M70.7476 10.9262L72.1972 19.6666L74.3377 12.8255L92.2959 4.63528L92.3738 3.88158L70.7476 10.9262Z" fill="#1C5B98"/>
<path d="M92.3586 3.88158L92.2808 4.63528L97.8456 2.09278L92.3586 3.88158Z" fill="#F39019"/>
<path d="M22.0633 54.6686C22.0802 55.1165 22.0006 55.5628 21.8298 55.9773C21.659 56.3917 21.4011 56.7645 21.0735 57.0704C20.3949 57.6909 19.5002 58.021 18.5812 57.99C17.7876 57.9954 17.0127 57.7491 16.3679 57.2865C16.0561 57.0791 15.7974 56.8016 15.6124 56.4761C15.4274 56.1506 15.3213 55.7862 15.3026 55.4123L15.1845 52.6763H8.57959C7.94648 53.7181 7.39962 54.5782 6.93903 55.2565C6.56257 55.8282 6.14261 56.3699 5.68285 56.877C5.36477 57.2313 4.98297 57.5228 4.55732 57.7362C4.18479 57.9045 3.78026 57.9902 3.37149 57.9874C2.92849 58.0026 2.48693 57.9291 2.07275 57.7712C1.65856 57.6133 1.28012 57.3742 0.959648 57.0679C0.642439 56.7561 0.394057 56.3813 0.230495 55.9676C0.0669322 55.5539 -0.00818443 55.1106 0.0099821 54.6661C0.0245843 54.3176 0.110069 53.9756 0.261217 53.6612C0.376593 53.3764 0.51524 53.1016 0.675752 52.8396L15.4182 30.6079C15.8566 29.9401 16.4462 29.3849 17.1392 28.9874C17.8253 28.5873 18.606 28.3782 19.4003 28.382C19.7557 28.3725 20.109 28.4391 20.4366 28.5773C20.7642 28.7156 21.0584 28.9222 21.2996 29.1834C21.8094 29.7418 22.08 30.4778 22.0533 31.2335L22.0633 54.6686ZM11.9009 46.2774H15.074V41.5039L11.9009 46.2774Z" fill="#F39019"/>
<path d="M61.3262 46.2774H64.4993V41.5039L61.3262 46.2774ZM71.5138 54.6686C71.5307 55.1169 71.4511 55.5636 71.2803 55.9784C71.1095 56.3932 70.8516 56.7665 70.5239 57.073C69.8456 57.6919 68.952 58.021 68.0342 57.99C67.2405 57.9982 66.465 57.7526 65.8208 57.289C65.5088 57.0814 65.2498 56.8034 65.0648 56.4775C64.8798 56.1515 64.7738 55.7867 64.7556 55.4123L64.635 52.6763H58.03C57.4003 53.7181 56.8534 54.5782 56.3895 55.2565C56.0131 55.8282 55.5931 56.37 55.1333 56.877C54.8147 57.2308 54.433 57.5221 54.0078 57.7362C53.6357 57.9033 53.2323 57.989 52.8245 57.9874C52.3811 58.0027 51.9391 57.9292 51.5245 57.7713C51.1099 57.6134 50.731 57.3742 50.4101 57.0679C50.0929 56.7561 49.8445 56.3812 49.6809 55.9676C49.5174 55.5539 49.4423 55.1106 49.4604 54.6661C49.4762 54.3177 49.5616 53.976 49.7117 53.6612C49.827 53.3764 49.9657 53.1016 50.1262 52.8396L64.8712 30.6079C65.3093 29.9408 65.8979 29.3858 66.5896 28.9874C67.2795 28.5855 68.0648 28.3764 68.8633 28.382C69.2183 28.3722 69.5714 28.4387 69.8986 28.5769C70.2258 28.7152 70.5196 28.922 70.7601 29.1834C71.272 29.7405 71.543 30.4774 71.5138 31.2335V54.6686Z" fill="#1C5B98"/>
<path d="M92.708 46.5487V54.5204C92.7142 54.9766 92.6287 55.4294 92.4568 55.8519C92.1855 56.4924 91.7305 57.0381 91.1491 57.42C90.5678 57.8019 89.8863 58.0029 89.1907 57.9975C88.7329 58.0001 88.2804 57.8997 87.8667 57.7035C87.465 57.5136 87.1034 57.2483 86.8015 56.9222C86.4976 56.5946 86.2626 56.2093 86.1106 55.7891C85.9484 55.3716 85.8633 54.9281 85.8594 54.4802V31.9746C85.8441 31.5239 85.9184 31.0747 86.078 30.653C86.2376 30.2312 86.4792 29.8453 86.7889 29.5176C87.0968 29.196 87.4688 28.9428 87.8808 28.7744C88.2929 28.6061 88.7358 28.5263 89.1807 28.5402H95.2279C96.4636 28.5241 97.6894 28.7635 98.8281 29.2437C99.8919 29.6897 100.854 30.348 101.654 31.1782C102.45 32.0048 103.075 32.9796 103.494 34.0473C103.935 35.1809 104.157 36.3882 104.147 37.6048C104.147 39.5326 103.771 41.1405 103.019 42.4285C102.226 43.757 101.101 44.8553 99.7526 45.6141L103.35 53.1939C103.585 53.6536 103.706 54.1626 103.705 54.6787C103.706 55.1011 103.62 55.5192 103.453 55.9072C103.283 56.3103 103.034 56.6758 102.722 56.9825C102.399 57.305 102.016 57.561 101.594 57.7362C101.149 57.9197 100.671 58.0128 100.19 58.0101C99.5598 58.0014 98.9439 57.822 98.4077 57.4911C97.8715 57.1602 97.4351 56.6901 97.1448 56.1308L92.708 46.5487ZM92.708 35.2959V40.097H95.238C95.5883 40.1106 95.9342 40.0149 96.2278 39.8232C96.4792 39.6526 96.6944 39.4341 96.8609 39.18C97.0167 38.9337 97.1297 38.6627 97.1951 38.3786C97.2574 38.1227 97.2911 37.8606 97.2956 37.5972C97.291 37.3595 97.2573 37.1233 97.1951 36.8938C97.1271 36.6294 97.014 36.3787 96.8609 36.1526C96.6939 35.9093 96.4783 35.7032 96.2278 35.5472C95.9294 35.3688 95.5854 35.2814 95.238 35.2959H92.708Z" fill="#1C5B98"/>
<path d="M49.5208 37.5244C48.005 34.0032 45.1864 31.2044 41.6546 29.7135C41.1177 29.4801 40.5663 29.2812 40.004 29.1181C38.6583 28.7303 37.2642 28.5357 35.8637 28.5402H29.6959C29.1972 28.5262 28.7008 28.6123 28.236 28.7935C27.7712 28.9748 27.3476 29.2475 26.9901 29.5954C26.6304 29.9438 26.3478 30.3637 26.1605 30.828C25.9731 31.2923 25.8851 31.7908 25.9022 32.2912V54.2842C25.9022 54.7501 26.0034 55.2104 26.1987 55.6334C26.5885 56.4869 27.2776 57.168 28.1357 57.5478C28.5642 57.742 29.0295 57.8414 29.4999 57.8392H35.8637C36.5214 57.8409 37.1785 57.7998 37.8309 57.7161C39.1487 57.5518 40.4368 57.2024 41.6572 56.6785C45.194 55.1843 48.013 52.3761 49.5208 48.845C50.3003 47.0515 50.6973 45.1151 50.6865 43.1596C50.6977 41.2202 50.3005 39.3002 49.5208 37.5244ZM43.2575 46.3528C42.8833 47.2959 42.3179 48.1512 41.5969 48.8651C40.8738 49.5782 40.0129 50.1364 39.0669 50.5057C38.8358 50.5986 38.5996 50.679 38.3584 50.7569C37.5475 50.9897 36.7073 51.1048 35.8637 51.0986H32.7383V35.2959H36.0622C37.1514 35.2829 38.2326 35.4826 39.2453 35.8838L39.4815 35.9868C40.3139 36.3448 41.0716 36.8562 41.7149 37.4942C42.4114 38.2 42.9508 39.0451 43.2977 39.9739C43.6757 40.986 43.8639 42.0591 43.8529 43.1395C43.8663 44.2392 43.664 45.3308 43.2575 46.3528Z" fill="#F39019"/>
<path d="M81.1737 29.3392C80.5694 28.7441 79.7605 28.4026 78.9126 28.3845H78.7292C78.2835 28.3768 77.8407 28.4574 77.4263 28.6217C77.0119 28.7859 76.6342 29.0307 76.3149 29.3417C75.9902 29.6426 75.7328 30.0089 75.5596 30.4163C75.3864 30.8237 75.3013 31.2632 75.3099 31.7058V54.6686C75.3015 55.1112 75.3866 55.5506 75.5598 55.958C75.733 56.3655 75.9903 56.7317 76.3149 57.0327C76.6342 57.3438 77.0119 57.5885 77.4263 57.7528C77.8407 57.917 78.2835 57.9977 78.7292 57.99C78.7895 57.99 78.8473 57.99 78.9076 57.99C79.7552 57.9728 80.5642 57.6321 81.1687 57.0378C81.4874 56.7334 81.7393 56.366 81.9084 55.959C82.0776 55.552 82.1602 55.1143 82.151 54.6737V31.7033C82.1617 31.2629 82.0803 30.8251 81.912 30.418C81.7438 30.0109 81.4923 29.6434 81.1737 29.3392Z" fill="#1C5B98"/>
<path d="M121.173 46.4709C121.617 46.4709 122.056 46.3835 122.466 46.2136C122.876 46.0438 123.248 45.7949 123.562 45.4811C123.876 45.1674 124.125 44.7948 124.295 44.3849C124.465 43.9749 124.552 43.5355 124.552 43.0918C124.552 42.648 124.465 42.2086 124.295 41.7986C124.125 41.3887 123.876 41.0161 123.562 40.7024C123.248 40.3886 122.876 40.1397 122.466 39.9699C122.056 39.8 121.617 39.7126 121.173 39.7126H114.452V35.2959H121.173C121.626 35.3063 122.076 35.2222 122.495 35.0492C122.913 34.8762 123.291 34.618 123.605 34.291C123.919 33.9756 124.167 33.6002 124.333 33.1872C124.499 32.7741 124.58 32.3318 124.572 31.8867C124.576 31.4418 124.49 31.0007 124.319 30.5897C124.149 30.1786 123.898 29.806 123.581 29.4938C123.264 29.1817 122.887 28.9364 122.474 28.7726C122.06 28.6088 121.618 28.5298 121.173 28.5402H111.015C110.568 28.5319 110.123 28.6142 109.708 28.7821C109.293 28.9501 108.917 29.2003 108.601 29.5176C108.277 29.8301 108.021 30.207 107.851 30.6241C107.681 31.0412 107.6 31.4892 107.614 31.9394V54.4425C107.608 54.8889 107.694 55.3316 107.865 55.7439C108.039 56.1587 108.295 56.534 108.619 56.8468C109.017 57.2588 109.517 57.5579 110.068 57.7136C110.382 57.8008 110.705 57.8447 111.031 57.8442H121.188C121.634 57.854 122.077 57.7741 122.491 57.6091C122.906 57.4441 123.283 57.1975 123.6 56.8839C123.917 56.5702 124.168 56.1961 124.337 55.7836C124.507 55.3711 124.592 54.9287 124.587 54.4827C124.591 54.0381 124.506 53.5973 124.336 53.1864C124.171 52.7722 123.923 52.3961 123.607 52.0809C123.373 51.8351 123.101 51.6281 122.801 51.4679C122.3 51.2072 121.742 51.0751 121.178 51.0835H114.45V46.4709H121.173Z" fill="#1C5B98"/>
<path d="M151.906 37.5244C151.869 37.4339 151.828 37.346 151.786 37.2556C150.243 33.859 147.478 31.1681 144.04 29.7185C142.212 28.9301 140.24 28.5289 138.249 28.5402H132.081C131.582 28.5264 131.086 28.6126 130.62 28.7938C130.155 28.9751 129.731 29.2476 129.373 29.5954C129.014 29.9443 128.732 30.3643 128.545 30.8286C128.359 31.2928 128.271 31.791 128.288 32.2912V54.2842C128.288 54.7501 128.389 55.2104 128.584 55.6334C128.974 56.4869 129.663 57.168 130.521 57.5478C130.95 57.742 131.415 57.8414 131.885 57.8392H138.249C140.242 57.8563 142.217 57.4612 144.05 56.6785C147.586 55.1826 150.406 52.375 151.916 48.845C152.697 47.0517 153.095 45.1153 153.085 43.1596C153.09 41.2194 152.689 39.2997 151.906 37.5244ZM145.643 46.3528C145.27 47.2963 144.704 48.1519 143.982 48.8651C143.26 49.5797 142.399 50.1389 141.452 50.5082C140.433 50.9077 139.346 51.1065 138.252 51.0936H135.126V35.2959H138.445C139.534 35.2826 140.616 35.4823 141.628 35.8838C142.553 36.2497 143.394 36.8012 144.098 37.5043C144.794 38.2101 145.334 39.0551 145.681 39.984C145.708 40.0593 145.733 40.1347 145.759 40.2101C146.083 41.1558 146.243 42.1498 146.233 43.1495C146.249 44.2457 146.049 45.3343 145.643 46.3528Z" fill="#1C5B98"/>
</g>
</g>
<defs>
<clipPath id="clip0_389_1597">
<rect width="153.072" height="58" fill="white"/>
</clipPath>
</defs>
</svg>
