<svg width="60" height="60" viewBox="0 0 60 60" fill="none" xmlns="http://www.w3.org/2000/svg">
<rect x="0.5" y="0.5" width="59" height="59" rx="3.5" stroke="#E7E7E7"/>
<g clipPath="url(#clip0_1557_2)">
<path d="M39.0685 17.1282C37.6369 15.8034 35.9475 14.8061 34.1121 14.2024C32.2768 13.5987 30.3374 13.4025 28.4226 13.6266C26.5078 13.8508 24.6612 14.4903 23.0053 15.5027C21.3494 16.5151 19.922 17.8773 18.8176 19.4991C17.7133 21.1208 16.9572 22.965 16.5995 24.9095C16.2419 26.854 16.2908 28.8543 16.743 30.7779C17.1953 32.7015 18.0405 34.5044 19.2228 36.0672C20.405 37.63 21.8972 38.917 23.6005 39.8428V48.0714C23.6005 48.5071 23.7691 48.925 24.0691 49.2331C24.3692 49.5412 24.7762 49.7143 25.2005 49.7143H26.8005V51.3571C26.8005 51.7929 26.9691 52.2107 27.2691 52.5188C27.5692 52.8269 27.9762 53 28.4005 53H31.6005C32.0249 53 32.4318 52.8269 32.7319 52.5188C33.0319 52.2107 33.2005 51.7929 33.2005 51.3571V49.7143H34.8005C35.2249 49.7143 35.6318 49.5412 35.9319 49.2331C36.2319 48.925 36.4005 48.5071 36.4005 48.0714V39.8428C38.3312 38.7867 39.9849 37.2676 41.2213 35.4147C42.4577 33.5617 43.2401 31.4297 43.502 29.1997C43.7639 26.9697 43.4976 24.7078 42.7258 22.6062C41.9539 20.5045 40.6993 18.6253 39.0685 17.1282ZM34.8005 43.1429V44.7857H25.2005V43.1429H34.8005ZM31.6005 51.3571H28.4005V49.7143H31.6005V51.3571ZM32.4005 48.0714H25.2005V46.4286H34.8005V48.0714H32.4005ZM35.2495 38.6024C35.1144 38.6702 35.0006 38.7756 34.9212 38.9068C34.8417 39.0379 34.7999 39.1893 34.8005 39.3438V41.5H30.8005V37.7327L32.9665 35.5097C33.1166 35.3556 33.201 35.1466 33.201 34.9286C33.201 34.7106 33.1166 34.5015 32.9665 34.3474C32.8164 34.1933 32.6128 34.1067 32.4005 34.1067C32.1882 34.1067 31.9846 34.1933 31.8345 34.3474L30.0005 36.2316L28.1665 34.3474C28.0164 34.1933 27.8128 34.1067 27.6005 34.1067C27.3882 34.1067 27.1846 34.1933 27.0345 34.3474C26.8844 34.5015 26.8001 34.7106 26.8001 34.9286C26.8001 35.1466 26.8844 35.3556 27.0345 35.5097L29.2005 37.7327V41.5H25.2005V39.3438C25.2003 39.19 25.1582 39.0395 25.0788 38.9091C24.9994 38.7788 24.886 38.674 24.7515 38.6065C22.4167 37.4417 20.5131 35.5304 19.3265 33.1598C18.14 30.7893 17.7346 28.0874 18.1713 25.46C18.608 22.8327 19.8632 20.4218 21.7483 18.5894C23.6334 16.7571 26.0466 15.6023 28.6255 15.2985C29.0874 15.2451 29.5518 15.2184 30.0165 15.2184C32.9646 15.208 35.8109 16.3252 38.0005 18.3521C39.4677 19.6989 40.5894 21.3958 41.2667 23.293C41.9439 25.1903 42.1559 27.2295 41.884 29.2308C41.612 31.2321 40.8644 33.1339 39.7072 34.7683C38.55 36.4027 37.0187 37.7195 35.2485 38.6024H35.2495Z" fill="#038EB0"/>
<path d="M29.9992 11.9286C30.2114 11.9286 30.4149 11.842 30.5649 11.688C30.7149 11.5339 30.7992 11.325 30.7992 11.1071V7.82143C30.7992 7.60357 30.7149 7.39464 30.5649 7.24059C30.4149 7.08654 30.2114 7 29.9992 7C29.787 7 29.5836 7.08654 29.4335 7.24059C29.2835 7.39464 29.1992 7.60357 29.1992 7.82143V11.1071C29.1992 11.325 29.2835 11.5339 29.4335 11.688C29.5836 11.842 29.787 11.9286 29.9992 11.9286Z" fill="#038EB0"/>
<path d="M18.1213 16.4998C18.2688 16.6566 18.4708 16.7467 18.683 16.7505C18.8952 16.7542 19.1002 16.6713 19.2528 16.5199C19.4054 16.3684 19.4932 16.161 19.4969 15.9431C19.5006 15.7252 19.4198 15.5148 19.2723 15.358L19.2523 15.3385L16.9893 13.0149C16.9169 12.935 16.8297 12.8707 16.7328 12.8258C16.636 12.7808 16.5313 12.7562 16.4251 12.7532C16.3188 12.7503 16.213 12.7691 16.1139 12.8086C16.0148 12.8481 15.9244 12.9075 15.8479 12.9833C15.7714 13.0591 15.7104 13.1498 15.6685 13.2501C15.6265 13.3504 15.6044 13.4583 15.6035 13.5674C15.6026 13.6766 15.6229 13.7848 15.6633 13.8858C15.7036 13.9868 15.7631 14.0786 15.8383 14.1557L15.8583 14.1762L18.1213 16.4998Z" fill="#038EB0"/>
<path d="M14 26.7142H10.8C10.5878 26.7142 10.3843 26.8008 10.2343 26.9548C10.0843 27.1089 10 27.3178 10 27.5357C10 27.7535 10.0843 27.9625 10.2343 28.1165C10.3843 28.2705 10.5878 28.3571 10.8 28.3571H14C14.2122 28.3571 14.4157 28.2705 14.5657 28.1165C14.7157 27.9625 14.8 27.7535 14.8 27.5357C14.8 27.3178 14.7157 27.1089 14.5657 26.9548C14.4157 26.8008 14.2122 26.7142 14 26.7142Z" fill="#038EB0"/>
<path d="M18.1197 38.5716L15.8567 40.8952C15.7789 40.9696 15.7163 41.0591 15.6725 41.1586C15.6287 41.258 15.6047 41.3655 15.6019 41.4746C15.599 41.5837 15.6173 41.6923 15.6558 41.794C15.6943 41.8958 15.7521 41.9887 15.826 42.0672C15.8998 42.1457 15.9881 42.2084 16.0858 42.2514C16.1835 42.2945 16.2885 42.3172 16.3948 42.3181C16.5011 42.319 16.6065 42.2982 16.7049 42.2568C16.8033 42.2154 16.8926 42.1543 16.9677 42.0771L16.9877 42.0565L19.2507 39.7329C19.3944 39.5776 19.4733 39.3708 19.4707 39.1566C19.468 38.9424 19.3839 38.7378 19.2364 38.5863C19.0889 38.4348 18.8896 38.3485 18.681 38.3458C18.4724 38.343 18.271 38.4241 18.1197 38.5716Z" fill="#038EB0"/>
<path d="M43.0111 13.0149L40.7481 15.3385C40.6725 15.4135 40.6121 15.503 40.5702 15.602C40.5283 15.7009 40.5058 15.8074 40.504 15.9153C40.5022 16.0232 40.5211 16.1304 40.5597 16.2307C40.5982 16.3311 40.6556 16.4227 40.7286 16.5003C40.8016 16.5779 40.8888 16.64 40.9852 16.683C41.0816 16.726 41.1853 16.7491 41.2903 16.751C41.3954 16.7528 41.4998 16.7334 41.5976 16.6938C41.6953 16.6543 41.7845 16.5953 41.8601 16.5204L41.8791 16.4998L44.1421 14.1762C44.22 14.1019 44.2826 14.0123 44.3263 13.9129C44.3701 13.8134 44.3941 13.706 44.397 13.5969C44.3998 13.4877 44.3815 13.3791 44.343 13.2774C44.3045 13.1756 44.2467 13.0828 44.1729 13.0042C44.099 12.9257 44.0107 12.8631 43.913 12.82C43.8154 12.7769 43.7103 12.7542 43.604 12.7533C43.4977 12.7524 43.3923 12.7732 43.2939 12.8146C43.1956 12.856 43.1062 12.9171 43.0311 12.9944L43.0111 13.0149Z" fill="#038EB0"/>
<path d="M41.8784 38.5716C41.7271 38.4241 41.5257 38.343 41.3171 38.3458C41.1085 38.3485 40.9092 38.4348 40.7617 38.5863C40.6141 38.7378 40.5301 38.9424 40.5274 39.1566C40.5247 39.3708 40.6037 39.5776 40.7474 39.7329L43.0104 42.0565C43.1616 42.2041 43.363 42.2851 43.5716 42.2824C43.7802 42.2796 43.9795 42.1933 44.1271 42.0418C44.2746 41.8904 44.3586 41.6857 44.3613 41.4715C44.364 41.2573 44.2851 41.0505 44.1414 40.8952L41.8784 38.5716Z" fill="#038EB0"/>
<path d="M49.1992 26.7142H45.9992C45.787 26.7142 45.5836 26.8008 45.4335 26.9548C45.2835 27.1089 45.1992 27.3178 45.1992 27.5357C45.1992 27.7535 45.2835 27.9625 45.4335 28.1165C45.5836 28.2705 45.787 28.3571 45.9992 28.3571H49.1992C49.4114 28.3571 49.6149 28.2705 49.7649 28.1165C49.9149 27.9625 49.9992 27.7535 49.9992 27.5357C49.9992 27.3178 49.9149 27.1089 49.7649 26.9548C49.6149 26.8008 49.4114 26.7142 49.1992 26.7142Z" fill="#038EB0"/>
</g>
<defs>
<clipPath id="clip0_1557_2">
<rect width="40" height="46" fill="white" transform="translate(10 7)"/>
</clipPath>
</defs>
</svg>
