<svg xmlns="http://www.w3.org/2000/svg" width="62" height="62" fill="#fff" xmlns:v="https://vecta.io/nano"><path d="M52.892 11.661H36.069a4.48 4.48 0 0 0-1.894-5.592 4.48 4.48 0 0 0-6.112 1.638l-2.283 3.954H9.991a4.52 4.52 0 0 0-4.514 4.514v28.129a4.52 4.52 0 0 0 4.514 4.514h13.987c.171 1.524.065 3.348-.294 5.129h-5.611c-.55 0-.996.446-.996.996s.446.996.996.996h25.804c.55 0 .996-.446.996-.996s-.446-.996-.996-.996h-5.666c-.391-1.798-.517-3.622-.351-5.129h14.098a4.52 4.52 0 0 0 4.514-4.514V15.242c0-1.974-1.606-3.581-3.58-3.581zm-33.33 16.213l3.037 1.753-3.037 1.753v-3.507zm4.665.393l-4.3-2.483 8.161-14.135 4.3 2.483-8.161 14.135zm8.953-20.473c1.185.684 1.593 2.206.909 3.391l-.706 1.222-4.3-2.483.706-1.222c.684-1.186 2.206-1.593 3.391-.909zM9.991 13.653H24.63l-6.927 11.998c-.087.152-.133.323-.133.498v6.957c0 .55.446.996.996.996h24.819c.55 0 .996-.446.996-.996s-.446-.996-.996-.996H22.283l2.806-1.62c.151-.088.277-.213.365-.364l9.51-16.473h17.928a1.59 1.59 0 0 1 1.588 1.589v24.586H7.47V16.175c0-1.391 1.131-2.522 2.522-2.522zm26.186 40.293H25.711c.321-1.77.418-3.57.27-5.129h9.876c-.143 1.546-.029 3.346.32 5.129zm15.78-7.121H9.991c-1.391 0-2.522-1.131-2.522-2.522V41.82h47.01v2.484c0 1.391-1.131 2.522-2.522 2.522zM44.38 27.08c0 .55-.446.996-.996.996H33.066c-.55 0-.996-.446-.996-.996s.446-.996.996-.996h5.159 5.159c.55 0 .996.446.996.996z"/><rect x="31.442" y="25.669" width="13.307" height="2.661" rx="1.331"/></svg>