<svg width="46" height="46" viewBox="0 0 46 46" fill="none" xmlns="http://www.w3.org/2000/svg">
<rect width="46" height="46" rx="9" fill="white"/>
<g clip-path="url(#clip0_9_728)">
<path d="M37.0599 15.3871C37.0648 14.8829 36.9271 14.3874 36.6624 13.9566C36.3977 13.5259 36.0166 13.177 35.5621 12.9496C35.1076 12.7222 34.5979 12.6252 34.0906 12.6697C33.5834 12.7142 33.0988 12.8984 32.6918 13.2014L30.9853 14.4759L23.7051 19.9346L16.4248 14.4702L14.7271 13.1985C14.3198 12.8966 13.8354 12.7134 13.3285 12.6695C12.8217 12.6256 12.3125 12.7227 11.8585 12.9499C11.4044 13.1772 11.0234 13.5255 10.7584 13.9556C10.4935 14.3857 10.3552 14.8805 10.359 15.3843V30.872C10.3578 31.1102 10.4041 31.3463 10.495 31.5668C10.586 31.7873 10.72 31.9878 10.8893 32.1571C11.0585 32.3263 11.2598 32.4609 11.4816 32.5531C11.7034 32.6453 11.9414 32.6933 12.1819 32.6944H16.4248V22.3683L23.7051 27.8269L30.9853 22.3683V32.6829H35.234C35.7183 32.6814 36.1823 32.49 36.5244 32.1506C36.8666 31.8113 37.0591 31.3515 37.0599 30.872V17.8151V15.3871Z" fill="#B5332A"/>
<path d="M12.1731 32.6832H16.4247V22.3686L10.353 17.8154V30.8723C10.3538 31.3508 10.5455 31.8097 10.8864 32.1489C11.2273 32.4881 11.6898 32.6801 12.1731 32.6832Z" fill="#4E85EB"/>
<path d="M30.9854 32.6832H35.2341C35.7184 32.6817 36.1823 32.4903 36.5245 32.1509C36.8667 31.8116 37.0592 31.3518 37.06 30.8723V17.8154L30.9854 22.3686V32.6832Z" fill="#58A45C"/>
<path d="M30.9854 14.4759V22.3625L37.0571 17.8122V15.3871C37.062 14.8829 36.9243 14.3874 36.6596 13.9566C36.3949 13.5259 36.0137 13.177 35.5592 12.9496C35.1047 12.7222 34.595 12.6252 34.0878 12.6697C33.5805 12.7142 33.096 12.8984 32.6889 13.2014L30.9854 14.4759Z" fill="#F2BC42"/>
<path d="M16.4246 22.3689V14.4766L23.7048 19.9554L30.985 14.4967V22.3834L23.7048 27.8276L16.4246 22.3689Z" fill="#D85040"/>
<path d="M10.3502 15.3908V17.8159L16.4248 22.369V14.4767L14.727 13.205C14.3194 12.9018 13.8344 12.7174 13.3265 12.6727C12.8187 12.6281 12.3084 12.7248 11.8532 12.9522C11.398 13.1795 11.0161 13.5283 10.7505 13.9592C10.4849 14.3901 10.3462 14.886 10.3502 15.3908Z" fill="#B5332A"/>
</g>
<defs>
<clipPath id="clip0_9_728">
<rect width="26.7097" height="20.0323" fill="white" transform="translate(10.3501 12.6504)"/>
</clipPath>
</defs>
</svg>
