<svg width="370" height="347" viewBox="0 0 370 347" fill="none" xmlns="http://www.w3.org/2000/svg">
<path d="M262.61 347H156.434C155.642 347 155 346.356 155 345.561C155 344.765 155.642 344.121 156.434 344.121H262.61C287.706 344.121 308.132 323.629 308.132 298.439C308.132 297.644 308.773 297 309.566 297C310.358 297 311 297.644 311 298.439C311 325.21 289.301 347 262.62 347H262.61Z" fill="#038EB0"/>
<path d="M132.151 345.564C132.151 344.779 132.789 344.127 133.576 344.127C134.363 344.127 135 344.779 135 345.564C135 346.357 134.363 347 133.576 347C132.789 347 132.151 346.357 132.151 345.564ZM115.107 345.564C115.107 344.779 115.754 344.127 116.532 344.127C117.319 344.127 117.956 344.779 117.956 345.564C117.956 346.357 117.319 347 116.532 347C115.754 347 115.107 346.357 115.107 345.564ZM98.0633 345.564C98.0633 344.779 98.7098 344.127 99.4875 344.127C100.275 344.127 100.912 344.779 100.912 345.564C100.912 346.357 100.275 347 99.4875 347C98.7098 347 98.0633 346.357 98.0633 345.564ZM81.0191 345.564C81.0191 344.779 81.6657 344.127 82.4434 344.127C83.2305 344.127 83.8676 344.779 83.8676 345.564C83.8676 346.357 83.2305 347 82.4434 347C81.6657 347 81.0191 346.357 81.0191 345.564ZM63.975 345.564C63.975 344.779 64.6215 344.127 65.3993 344.127C66.1863 344.127 66.8235 344.779 66.8235 345.564C66.8235 346.357 66.1863 347 65.3993 347C64.6215 347 63.975 346.357 63.975 345.564ZM48.1302 345.856C47.3619 345.686 46.884 344.921 47.0527 344.146C47.2214 343.371 47.9803 342.889 48.7487 343.059C49.517 343.229 49.9855 343.995 49.8262 344.77C49.6763 345.441 49.086 345.885 48.4301 345.885C48.3364 345.885 48.2333 345.875 48.1302 345.856ZM32.0512 338.958C31.3953 338.513 31.2173 337.625 31.6577 336.973C32.0887 336.311 32.9695 336.132 33.6254 336.576C34.2813 337.011 34.4593 337.899 34.019 338.561C33.7472 338.986 33.2975 339.203 32.8383 339.203C32.576 339.203 32.2949 339.128 32.0512 338.967V338.958ZM19.4766 326.738C19.0175 326.095 19.1674 325.198 19.8046 324.744C20.4417 324.281 21.3225 324.432 21.7817 325.065C22.2408 325.708 22.0909 326.606 21.4631 327.059C21.2101 327.239 20.9196 327.333 20.6291 327.333C20.1888 327.324 19.7577 327.126 19.4766 326.729V326.738ZM12.0462 310.804C11.8494 310.029 12.2992 309.245 13.0581 309.047C13.8171 308.848 14.5948 309.302 14.7916 310.067C14.9884 310.833 14.5386 311.627 13.7796 311.825C13.6578 311.853 13.536 311.872 13.4236 311.872C12.7864 311.872 12.2148 311.447 12.0462 310.804Z" fill="#038EB0"/>
<path d="M309.495 101C309.395 101 309.296 100.99 309.206 100.97C309.106 100.95 309.017 100.92 308.927 100.88C308.837 100.841 308.747 100.801 308.668 100.741C308.588 100.691 308.508 100.631 308.439 100.561C308.159 100.282 308 99.8837 308 99.495C308 99.3953 308.01 99.2957 308.03 99.196C308.05 99.1063 308.08 99.0066 308.12 98.9169C308.149 98.8272 308.199 98.7475 308.249 98.6578C308.309 98.5781 308.369 98.5083 308.439 98.4385C308.508 98.3688 308.588 98.299 308.668 98.2492C308.747 98.1993 308.837 98.1495 308.927 98.1096C309.017 98.0698 309.106 98.0498 309.206 98.0299C309.395 97.99 309.595 97.99 309.794 98.0299C309.894 98.0498 309.983 98.0698 310.073 98.1096C310.173 98.1495 310.252 98.1993 310.332 98.2492C310.422 98.299 310.492 98.3688 310.561 98.4385C310.841 98.7176 311 99.1063 311 99.505C311 99.5947 311 99.6944 310.97 99.794C310.95 99.8837 310.92 99.9834 310.89 100.073C310.85 100.163 310.801 100.252 310.751 100.332C310.691 100.412 310.631 100.492 310.561 100.561C310.492 100.631 310.422 100.691 310.332 100.741C310.252 100.801 310.173 100.841 310.073 100.88C309.983 100.92 309.894 100.95 309.794 100.97C309.704 100.99 309.605 101 309.505 101H309.495Z" fill="#038EB0"/>
<path d="M308 279.57C308 278.779 308.671 278.139 309.5 278.139C310.329 278.139 311 278.779 311 279.57C311 280.36 310.329 281 309.5 281C308.671 281 308 280.36 308 279.57ZM308 261.558C308 260.768 308.671 260.128 309.5 260.128C310.329 260.128 311 260.768 311 261.558C311 262.339 310.329 262.989 309.5 262.989C308.671 262.989 308 262.339 308 261.558ZM308 243.538C308 242.747 308.671 242.107 309.5 242.107C310.329 242.107 311 242.747 311 243.538C311 244.328 310.329 244.968 309.5 244.968C308.671 244.968 308 244.328 308 243.538ZM308 225.526C308 224.736 308.671 224.096 309.5 224.096C310.329 224.096 311 224.736 311 225.526C311 226.307 310.329 226.957 309.5 226.957C308.671 226.957 308 226.307 308 225.526ZM308 207.506C308 206.715 308.671 206.075 309.5 206.075C310.329 206.075 311 206.715 311 207.506C311 208.296 310.329 208.936 309.5 208.936C308.671 208.936 308 208.296 308 207.506ZM308 189.494C308 188.704 308.671 188.064 309.5 188.064C310.329 188.064 311 188.704 311 189.494C311 190.285 310.329 190.925 309.5 190.925C308.671 190.925 308 190.285 308 189.494ZM308 171.474C308 170.683 308.671 170.043 309.5 170.043C310.329 170.043 311 170.683 311 171.474C311 172.264 310.329 172.904 309.5 172.904C308.671 172.904 308 172.264 308 171.474ZM308 153.462C308 152.672 308.671 152.032 309.5 152.032C310.329 152.032 311 152.672 311 153.462C311 154.253 310.329 154.893 309.5 154.893C308.671 154.893 308 154.253 308 153.462ZM308 135.451C308 134.661 308.671 134.021 309.5 134.021C310.329 134.021 311 134.661 311 135.451C311 136.232 310.329 136.881 309.5 136.881C308.671 136.881 308 136.232 308 135.451ZM308 117.43C308 116.64 308.671 116 309.5 116C310.329 116 311 116.64 311 117.43C311 118.221 310.329 118.861 309.5 118.861C308.671 118.861 308 118.221 308 117.43Z" fill="#038EB0"/>
<path d="M368.171 210H312.829C311.818 210 311 209.329 311 208.5C311 207.671 311.818 207 312.829 207H368.171C369.182 207 370 207.671 370 208.5C370 209.329 369.182 210 368.171 210Z" fill="#038EB0"/>
<path d="M0 196V220L19 207.995L0 196Z" fill="#038EB0"/>
<path d="M10.5 298C9.67105 298 9 297.531 9 296.952V228.048C9 227.469 9.67105 227 10.5 227C11.3289 227 12 227.469 12 228.048V296.952C12 297.531 11.3289 298 10.5 298Z" fill="#038EB0"/>
<path d="M309 217C313.418 217 317 213.194 317 208.5C317 203.806 313.418 200 309 200C304.582 200 301 203.806 301 208.5C301 213.194 304.582 217 309 217Z" fill="#038EB0"/>
<path fillRule="evenodd" clipRule="evenodd" d="M103.374 46.655H57.2878C32.2906 46.655 11.9451 66.9911 11.9451 91.9978V188.181C11.9451 188.969 11.3086 189.607 10.5214 189.609C9.73415 189.607 9.09766 188.969 9.09766 188.181V91.9978C9.09766 65.4312 30.7118 43.8076 57.2878 43.8076H103.539C103.462 44.7509 103.407 45.7002 103.374 46.655ZM225.356 46.655H262.406C287.413 46.655 307.749 67.0005 307.749 91.9978C307.749 92.7872 308.388 93.4262 309.177 93.4262C309.967 93.4262 310.606 92.7872 310.606 91.9978C310.606 65.4218 288.982 43.8076 262.416 43.8076H225.19C225.267 44.7509 225.322 45.7002 225.356 46.655ZM10.5214 189.609C10.5198 189.609 10.5182 189.609 10.5167 189.609H10.5261C10.5245 189.609 10.5229 189.609 10.5214 189.609Z" fill="#038EB0"/>
<path d="M164 100C191.062 100 213 77.6142 213 50C213 22.3858 191.062 0 164 0C136.938 0 115 22.3858 115 50C115 77.6142 136.938 100 164 100Z" fill="#038EB0"/>
<g clipPath="url(#clip0_1331_13)">
<path d="M145.534 71.8805C144.682 71.7099 143.9 71.291 143.286 70.6767C142.672 70.0624 142.254 69.2801 142.084 68.4284C141.943 67.7193 141.98 66.9867 142.19 66.2952C142.4 65.6037 142.778 64.9746 143.289 64.4635C143.8 63.9524 144.429 63.5751 145.12 63.365C145.812 63.1548 146.545 63.1182 147.254 63.2584C148.105 63.4289 148.887 63.8475 149.501 64.4614C150.115 65.0754 150.533 65.8573 150.704 66.7087C150.844 67.4177 150.808 68.1504 150.597 68.8419C150.387 69.5334 150.01 70.1625 149.499 70.6736C148.988 71.1846 148.359 71.5619 147.667 71.7721C146.976 71.9823 146.243 72.0207 145.534 71.8805ZM180.749 36.741C179.897 36.5705 179.115 36.1519 178.501 35.538C177.887 34.924 177.469 34.1421 177.298 33.2907C177.158 32.5817 177.195 31.849 177.405 31.1575C177.615 30.466 177.992 29.8369 178.503 29.3258C179.014 28.8148 179.644 28.4375 180.335 28.2273C181.027 28.0171 181.759 27.9805 182.468 28.1207C183.32 28.2912 184.102 28.7098 184.716 29.3238C185.33 29.9377 185.748 30.7196 185.919 31.571C186.059 32.2801 186.022 33.0127 185.812 33.7042C185.602 34.3957 185.225 35.0248 184.713 35.5359C184.202 36.047 183.573 36.4243 182.882 36.6345C182.19 36.8446 181.458 36.8812 180.749 36.741ZM164.04 39.018C166.142 39.018 168.108 39.612 169.778 40.6369L174.517 35.8977C171.133 33.3821 166.958 32.1674 162.753 32.4751C158.548 32.7829 154.594 34.5926 151.612 37.574C148.631 40.5554 146.821 44.5096 146.513 48.7147C146.205 52.9198 147.42 57.0953 149.936 60.479L154.677 55.738C153.657 54.0737 153.099 52.1675 153.06 50.2158C153.022 48.2641 153.504 46.3374 154.458 44.6342C155.412 42.931 156.803 41.5128 158.487 40.5256C160.171 39.5385 162.088 39.0181 164.04 39.018ZM173.402 44.2614C174.691 46.3646 175.234 48.8404 174.944 51.2899C174.654 53.7394 173.548 56.0199 171.804 57.7641C170.06 59.5083 167.779 60.6144 165.33 60.9044C162.88 61.1944 160.404 60.6513 158.301 59.3625L153.56 64.1017C156.944 66.6173 161.119 67.832 165.325 67.5243C169.53 67.2165 173.484 65.4068 176.465 62.4254C179.447 59.444 181.256 55.4898 181.564 51.2847C181.872 47.0796 180.657 42.9041 178.142 39.5204L173.402 44.2614Z" fill="white"/>
</g>
<defs>
<clipPath id="clip0_1331_13">
<rect width="44" height="44" fill="white" transform="translate(142 28)"/>
</clipPath>
</defs>
</svg>
