<svg xmlns="http://www.w3.org/2000/svg" xmlns:xlink="http://www.w3.org/1999/xlink" width="62" height="62" fill="none" xmlns:v="https://vecta.io/nano"><g fill="#fff"><path d="M50.543 13.023c1.03 0 1.864-.821 1.864-1.836s-.834-1.837-1.864-1.837-1.864.821-1.864 1.837.842 1.836 1.864 1.836zm0-2.363a.54.54 0 0 1 .543.535.54.54 0 0 1-.543.535.53.53 0 0 1-.543-.535c0-.302.244-.535.543-.535zm2.068-4.278H14.295c-1.455 0-2.642 1.17-2.642 2.604v3.975H9.025c-1.455 0-2.642 1.17-2.642 2.604v32.646c0 1.434 1.188 2.604 2.642 2.604h17.562v3.766a.66.66 0 0 0 .661.651h12.41a.66.66 0 0 0 .661-.651v-3.766h7.023c1.455 0 2.642-1.17 2.642-2.604v-3.975h2.627c1.455 0 2.643-1.17 2.643-2.604V8.986c0-1.434-1.187-2.604-2.643-2.604zM12.973 8.986c0-.721.598-1.302 1.321-1.302H52.61c.731 0 1.321.589 1.321 1.302v5.711H28.86l-2.949-3.014a1.22 1.22 0 0 0-.865-.364H18.55a1.2 1.2 0 0 0-1.203 1.186v2.193h-4.373V8.986zM9.025 49.521c-.731 0-1.321-.589-1.321-1.302V15.565c0-.721.598-1.302 1.321-1.302h2.627V41.64c0 1.434 1.188 2.604 2.643 2.604H28.64c.259.496.377 1.054.33 1.627h-1.022c-.755 0-1.361.604-1.361 1.34v2.309H9.025zM32.8 35.89a.75.75 0 0 1 .653-.38c.409 0 .739.325.739.728 0 .264-.142.504-.37.636-.252.147-.55.132-.857-.039-.039-.023-.079-.054-.094-.093-.252-.395-.149-.705-.071-.852zm-.008-1.557c-.48.163-.889.48-1.14.93-.378.666-.33 1.48.11 2.177a1.64 1.64 0 0 0 .558.527c.362.201.755.31 1.14.31.362 0 .716-.093 1.03-.271.629-.364 1.022-1.038 1.022-1.759 0-.891-.59-1.643-1.4-1.914v-3.348l5.843 10.391c-.008.008-.016.023-.039.031-2.068.527-3.421 2.433-3.311 4.463h-6.3c.118-2.038-1.243-3.944-3.35-4.525l5.835-10.36v3.348zm6.205 19.597H27.908l.039-6.765h11.01c.024 0 .039.015.039.039v6.726zm9.666-5.719c0 .721-.598 1.302-1.321 1.302h-7.023v-2.309c0-.744-.613-1.341-1.361-1.341h-1.022a3.04 3.04 0 0 1 .33-1.627h10.397v3.975zm3.948-5.269H39.548c.212-.116.44-.217.692-.279.417-.108.755-.395.928-.783a1.31 1.31 0 0 0-.063-1.17l-6.764-12.003a1 1 0 0 0-.881-.519 1.04 1.04 0 0 0-.897.511l-6.77 12.011a1.32 1.32 0 0 0-.055 1.178c.165.387.503.666.92.775.252.062.472.163.692.279H14.295c-.731 0-1.321-.589-1.321-1.302V15.999h4.483a1.2 1.2 0 0 0 1.203-1.185V12.62h6.331l2.949 3.014a1.22 1.22 0 0 0 .865.364h25.127v25.633c0 .721-.59 1.31-1.321 1.31z"/><use xlink:href="#B"/><use xlink:href="#B" x="-4.506"/><path d="M46.185 21.671c-.385.38-.629.86-.724 1.372h-9.241V22.02c0-.697-.574-1.263-1.282-1.263h-2.981c-.708 0-1.282.566-1.282 1.263v1.023h-9.233a2.57 2.57 0 0 0-.724-1.379c-.999-.969-2.706-.953-3.681.008-.495.488-.763 1.131-.763 1.813 0 .69.275 1.341.763 1.813.495.504 1.156.759 1.84.759a2.87 2.87 0 0 0 1.29-.31 2.3 2.3 0 0 0 1.038-1.054 3.24 3.24 0 0 0 .142-.349h6.41c-3.484 1.674-6.111 4.82-7.023 8.617h-1.022c-.708 0-1.282.566-1.282 1.263v2.937c0 .697.574 1.263 1.282 1.263h2.981c.708 0 1.282-.566 1.282-1.263v-2.937c0-.697-.574-1.263-1.282-1.263h-.598c1.101-4.091 4.428-7.299 8.604-8.291v.279c0 .697.574 1.263 1.282 1.263h2.981c.708 0 1.282-.566 1.282-1.263v-.279c4.168.992 7.495 4.2 8.604 8.291h-.543c-.708 0-1.282.566-1.282 1.263v2.937c0 .697.574 1.263 1.282 1.263h2.981c.708 0 1.282-.566 1.282-1.263v-2.937c0-.697-.574-1.263-1.282-1.263h-1.077c-.92-3.797-3.547-6.951-7.023-8.617h6.425c.126.357.33.682.605.953.495.504 1.156.759 1.84.759a2.87 2.87 0 0 0 1.29-.31 2.3 2.3 0 0 0 1.038-1.054c.511-1.062.33-2.216-.48-3.03-1.03-.961-2.737-.953-3.72.008zm-26.181 2.472c-.094.186-.252.349-.44.442-.684.341-1.274.124-1.596-.209a1.22 1.22 0 0 1-.378-.891c0-.333.134-.651.378-.899a1.29 1.29 0 0 1 .912-.372c.338 0 .668.132.904.364.409.418.488 1 .22 1.565zm2.674 12.979l-2.941.039-.039-2.898h2.941l.039 2.859zm24.585 0l-2.941.039-.039-2.898h2.941l.039 2.859zM32.005 24.957l-.016-.976c.016-.07.016-.139.008-.217v-.008c0-.023.016-.039.016-.062 0-.039-.016-.07-.024-.101l-.024-1.527h2.941l.024 1.527c-.008.039-.024.07-.024.108 0 .023.008.039.016.062v.008c-.016.101-.008.194.016.279l.016.876-2.949.031zm17.153-.814c-.094.186-.252.349-.44.442-.684.341-1.274.124-1.596-.209a1.22 1.22 0 0 1-.377-.891c0-.333.134-.651.377-.899a1.29 1.29 0 0 1 .912-.372c.338 0 .668.132.904.364.409.418.488 1 .22 1.565z"/></g><defs ><path id="B" d="M46.044 13.023c1.03 0 1.864-.821 1.864-1.836s-.834-1.837-1.864-1.837-1.864.821-1.864 1.837.834 1.836 1.864 1.836zm0-2.363a.54.54 0 0 1 .543.535.54.54 0 0 1-.543.535.53.53 0 0 1-.543-.535c0-.302.244-.535.543-.535z"/></defs></svg>