<svg xmlns="http://www.w3.org/2000/svg" width="62" height="62" fill="#fff" xmlns:v="https://vecta.io/nano"><path d="M52.515 13.577h-2.002a6.41 6.41 0 0 0 .45-2.363 6.37 6.37 0 0 0-.632-2.785c-.187-.39-.656-.555-1.046-.368s-.555.656-.368 1.046a4.83 4.83 0 0 1 .477 2.106c0 2.689-2.188 4.877-4.877 4.877s-4.877-2.188-4.877-4.877 2.188-4.877 4.877-4.877a4.82 4.82 0 0 1 2.19.52c.387.195.858.039 1.053-.347s.039-.858-.347-1.053a6.38 6.38 0 0 0-2.896-.688c-3.554 0-6.445 2.891-6.445 6.445a6.41 6.41 0 0 0 .45 2.363h-2.779c-1.161-1.704-3.117-2.826-5.33-2.826s-4.169 1.122-5.33 2.826H8.313c-1.297 0-2.352 1.055-2.352 2.352v28.853a1.83 1.83 0 0 0 1.83 1.83h14.398v1.861c0 1.864 1.325 3.424 3.083 3.787v.532h-.194a1.31 1.31 0 0 0-1.307 1.307v2.895a1.31 1.31 0 0 0 1.307 1.307h10.674a1.31 1.31 0 0 0 1.307-1.307v-2.895a1.31 1.31 0 0 0-1.307-1.307h-.365v-.5c1.842-.295 3.254-1.895 3.254-3.818v-1.861h5.157c.433 0 .784-.351.784-.784s-.351-.784-.784-.784H38.64v-4.408c0-1.437-1.146-2.645-2.555-2.692a2.63 2.63 0 0 0-1.928.742l-.023.022c-.478-.473-1.135-.766-1.86-.766s-1.382.293-1.861.767c-.478-.474-1.136-.767-1.86-.767a2.63 2.63 0 0 0-1.076.229v-3.264h11.199c-.035.27-.054.545-.054.824 0 3.554 2.891 6.445 6.445 6.445s6.445-2.891 6.445-6.445c0-3.469-2.755-6.305-6.192-6.439-.373-2.299-2.371-4.059-4.773-4.059H27.278c-.433 0-.784.351-.784.784s.351.784.784.784h13.269c1.58 0 2.902 1.128 3.204 2.62a6.47 6.47 0 0 0-4.666 3.917H27.307c-.136-.359-.35-.687-.635-.962-.52-.503-1.205-.766-1.928-.742-1.069.036-1.985.739-2.366 1.704h-2.094c-1.802 0-3.269-1.466-3.269-3.269s1.466-3.269 3.269-3.269h3.336c.433 0 .784-.351.784-.784s-.351-.784-.784-.784h-3.336c-2.667 0-4.837 2.17-4.837 4.837s2.17 4.837 4.837 4.837h1.906v10.136H7.791a.26.26 0 0 1-.261-.261V20.616h17.426c1.141 1.815 3.161 3.025 5.459 3.025s4.317-1.21 5.459-3.025H53.3v24.166a.26.26 0 0 1-.261.261h-5.582c-.433 0-.784.351-.784.784s.351.784.784.784h5.582a1.83 1.83 0 0 0 1.83-1.83V15.929c0-1.297-1.055-2.352-2.352-2.352zm-7.448 17.278c2.689 0 4.877 2.188 4.877 4.877s-2.188 4.877-4.877 4.877-4.877-2.188-4.877-4.877 2.188-4.877 4.877-4.877zM35.49 54.36v2.372H25.338V54.36H35.49zM23.757 34.327c0-.601.466-1.105 1.039-1.124a1.07 1.07 0 0 1 1.114 1.076v6.309c0 .433.351.784.784.784s.784-.351.784-.784a1.08 1.08 0 0 1 1.076-1.076 1.08 1.08 0 0 1 1.076 1.076c0 .433.351.784.784.784s.784-.351.784-.784a1.08 1.08 0 0 1 1.076-1.076 1.08 1.08 0 0 1 1.076 1.076c0 .433.351.784.784.784s.784-.351.784-.784a1.07 1.07 0 0 1 .328-.774 1.08 1.08 0 0 1 .786-.302c.573.019 1.039.524 1.039 1.124v7.837a2.3 2.3 0 0 1-2.299 2.299h-.171c-.433 0-.784.351-.784.784v1.236h-6.979v-1.236c0-.433-.351-.784-.784-.784a2.3 2.3 0 0 1-2.299-2.299V34.327zM13.57 19.048H7.53v-3.119a.82.82 0 0 1 .016-.158c.073-.357.39-.626.768-.626h5.256v3.903zm10.672 0h-9.104v-3.903h9.168a6.41 6.41 0 0 0-.336 2.051 6.42 6.42 0 0 0 .273 1.852zm6.172 3.025c-2.689 0-4.877-2.188-4.877-4.877s2.188-4.877 4.877-4.877 4.877 2.188 4.877 4.877-2.188 4.877-4.877 4.877zm22.885-3.025H36.587c.177-.587.273-1.209.273-1.852a6.41 6.41 0 0 0-.337-2.051h2.893c1.18 1.528 3.027 2.514 5.102 2.514s3.923-.987 5.102-2.514h2.894c.432 0 .784.352.784.784v3.119zM21.074 30.071c0 .433.351.784.784.784H38.97c.433 0 .784-.351.784-.784s-.351-.784-.784-.784H21.858c-.433 0-.784.351-.784.784z"/><path d="M44.401 36.516h1.334c.233 0 .422.19.422.422s-.19.422-.422.422h-2.349c-.433 0-.784.351-.784.784s.351.784.784.784h.898v.454c0 .433.351.784.784.784s.784-.351.784-.784v-.46a1.99 1.99 0 0 0 1.873-1.985c0-1.098-.893-1.991-1.991-1.991H44.4c-.233 0-.422-.189-.422-.422s.19-.422.422-.422h2.349c.433 0 .784-.351.784-.784s-.351-.784-.784-.784h-.899v-.454c0-.433-.351-.784-.784-.784s-.784.351-.784.784v.46a1.99 1.99 0 0 0-1.873 1.985c0 1.098.893 1.991 1.99 1.991zM31.082 16.412h-1.333c-.233 0-.422-.189-.422-.422s.189-.422.422-.422h2.35c.433 0 .784-.351.784-.784S32.532 14 32.099 14H31.2v-.454c0-.433-.351-.784-.784-.784s-.784.351-.784.784v.46a1.99 1.99 0 0 0-1.873 1.985c0 1.098.893 1.991 1.991 1.991h1.333c.233 0 .422.189.422.422s-.189.422-.422.422h-2.349c-.433 0-.784.351-.784.784s.351.784.784.784h.899v.454c0 .433.351.784.784.784s.784-.351.784-.784v-.46a1.99 1.99 0 0 0 1.873-1.985c0-1.098-.893-1.991-1.991-1.991zm13.437-.762c.433 0 .784-.351.784-.784v-.46a1.99 1.99 0 0 0 1.873-1.985c0-1.098-.893-1.991-1.99-1.991h-1.334c-.233 0-.422-.189-.422-.422s.19-.422.422-.422h2.349c.433 0 .784-.351.784-.784s-.351-.784-.784-.784h-.899v-.454c0-.433-.351-.784-.784-.784s-.784.351-.784.784v.46a1.99 1.99 0 0 0-1.873 1.985c0 1.098.893 1.991 1.991 1.991h1.334c.233 0 .422.19.422.422s-.189.422-.422.422h-2.349c-.433 0-.784.351-.784.784s.351.784.784.784h.898v.454c0 .433.351.784.784.784zM9.19 41.206c0 1.297 1.055 2.352 2.352 2.352s2.352-1.055 2.352-2.352-1.055-2.352-2.352-2.352-2.352 1.055-2.352 2.352zm3.137 0c0 .432-.352.784-.784.784s-.784-.352-.784-.784.352-.784.784-.784.784.352.784.784zm7.37 0c0-1.297-1.055-2.352-2.352-2.352s-2.352 1.055-2.352 2.352 1.055 2.352 2.352 2.352 2.352-1.055 2.352-2.352zm-3.136 0c0-.432.352-.784.784-.784s.784.352.784.784-.352.784-.784.784-.784-.352-.784-.784z"/></svg>