<svg xmlns="http://www.w3.org/2000/svg" width="100" height="15" fill="#febe67" xmlns:v="https://vecta.io/nano"><path d="M7.147.516c.359-.703 1.376-.674 1.706 0l1.975 3.895 4.369.615c.778.117 1.077 1.054.509 1.611l-3.142 3.016.748 4.246c.12.761-.718 1.347-1.406.996l-3.89-2.021-3.92 2.021c-.688.351-1.526-.234-1.406-.996l.748-4.246L.295 6.637C-.274 6.08.026 5.143.804 5.026l4.399-.615L7.147.516zm21 0c.359-.703 1.377-.674 1.706 0l1.975 3.895 4.369.615c.778.117 1.077 1.054.509 1.611l-3.142 3.016.748 4.246c.12.761-.718 1.347-1.406.996l-3.89-2.021-3.92 2.021c-.688.351-1.526-.234-1.406-.996l.748-4.246-3.142-3.016c-.569-.556-.269-1.494.509-1.611l4.399-.615L28.147.516zm21 0c.359-.703 1.377-.674 1.706 0l1.975 3.895 4.369.615c.778.117 1.077 1.054.509 1.611l-3.142 3.016.748 4.246c.12.761-.718 1.347-1.406.996l-3.89-2.021-3.92 2.021c-.688.351-1.526-.234-1.406-.996l.748-4.246-3.142-3.016c-.569-.556-.269-1.494.509-1.611l4.399-.615L49.147.516zm21 0c.359-.703 1.377-.674 1.706 0l1.975 3.895 4.369.615c.778.117 1.077 1.054.509 1.611l-3.142 3.016.748 4.246c.12.761-.718 1.347-1.406.996l-3.89-2.021-3.92 2.021c-.688.351-1.526-.234-1.406-.996l.748-4.246-3.142-3.016c-.569-.556-.269-1.494.509-1.611l4.399-.615L70.147.516zm21 0c.359-.703 1.377-.674 1.706 0l1.975 3.895 4.369.615c.778.117 1.078 1.054.509 1.611l-3.142 3.016.748 4.246c.12.761-.718 1.347-1.406.996l-3.89-2.021-3.92 2.021c-.688.351-1.526-.234-1.406-.996l.748-4.246-3.142-3.016c-.569-.556-.269-1.494.509-1.611l4.399-.615L91.147.516z"/></svg>