<svg xmlns="http://www.w3.org/2000/svg" width="62" height="62" fill="#fff" xmlns:v="https://vecta.io/nano"><path d="M9.104 39.429a.821.821 0 1 0 0 1.642h7.169a.821.821 0 1 0 0-1.642H9.104zm49.591 6.006l-3.456-3.456.001-27.776a1.37 1.37 0 0 0-1.368-1.368H45.97c-3.111-2.978-7.482-4.724-11.828-4.709-4.57 0-8.73 1.791-11.814 4.708l-7.636-.001a.821.821 0 1 0 0 1.642h6.111a17.31 17.31 0 0 0-1.255 1.751L5.22 16.224v-1.751h5.639a.821.821 0 1 0 0-1.642H4.946A1.37 1.37 0 0 0 3.578 14.2l-.001 30.644a1.37 1.37 0 0 0 1.368 1.368l11.123.001a.821.821 0 1 0 0-1.642l-10.85-.001.001-26.704 13.417.001c-.527 1.09-.942 2.244-1.231 3.447H9.159a.82.82 0 0 0-.821.821v6.567a.82.82 0 0 0 .821.821h8.287a17.05 17.05 0 0 0 .731 2.244H9.105a.821.821 0 1 0 0 1.642h9.841a17.25 17.25 0 0 0 1.388 2.189H9.105a.821.821 0 1 0 0 1.642h12.618a17.16 17.16 0 0 0 20.908 3.071l1.641 1.641a1.57 1.57 0 0 0 2.123.093l2.529 2.529-29.025-.002a.821.821 0 1 0 0 1.642h3.582l-.72 2.626h-1.419c-2.041 0-3.701 1.66-3.701 3.701v.404a.82.82 0 0 0 .821.821l21.89.003h0a.82.82 0 0 0 .821-.821v-.404c0-2.04-1.66-3.701-3.701-3.701h-1.419l-.72-2.628 15.233.001 3.674 3.674a3.13 3.13 0 0 0 4.454 0c1.228-1.228 1.228-3.226 0-4.454zm-19.205 6.69l-20.163-.003c.193-.936 1.024-1.642 2.016-1.642l16.131.003c.992 0 1.823.706 2.017 1.642zm-5.138-3.284l-9.887-.002.72-2.626 8.447.001.72 2.627zm19.246-32.614h-4.853a17.26 17.26 0 0 0-1.251-1.751h6.104v1.751zM9.98 27.881v-4.925h7.116a17.27 17.27 0 0 0-.165 2.38 17.26 17.26 0 0 0 .189 2.546H9.98zm8.592-2.546A15.59 15.59 0 0 1 34.141 9.767c7.727 0 14.197 5.532 15.383 13.154a.821.821 0 1 0 1.622-.252 17.12 17.12 0 0 0-1.497-4.8h3.948v22.468l-2.746-2.747a1.56 1.56 0 0 0 .368-1.01c0-.42-.164-.816-.461-1.113l-1.641-1.641a17.12 17.12 0 0 0 2.187-7.181.821.821 0 1 0-1.637-.123c-.607 8.065-7.427 14.382-15.524 14.382a15.59 15.59 0 0 1-15.569-15.569zm25.479 14.072a17.24 17.24 0 0 0 1.819-1.477 17.35 17.35 0 0 0 2.344-2.684l1.334 1.333-4.162 4.162-1.334-1.334zm13.482 9.32a1.5 1.5 0 0 1-2.132 0l-7.84-7.84 2.132-2.132 7.84 7.84a1.51 1.51 0 0 1 0 2.132zM34.141 11.403c-7.683 0-13.933 6.25-13.933 13.933a13.99 13.99 0 0 0 5.734 11.266.821.821 0 1 0 .967-1.327 12.34 12.34 0 0 1-5.059-9.939 12.31 12.31 0 0 1 12.291-12.291 12.31 12.31 0 0 1 12.291 12.291 12.31 12.31 0 0 1-12.291 12.291 12.27 12.27 0 0 1-4.069-.689.821.821 0 0 0-.543 1.549 13.9 13.9 0 0 0 4.613.782c7.682 0 13.933-6.25 13.933-13.933s-6.25-13.933-13.933-13.933zm.39 11.813a.821.821 0 1 0 0-1.642h-2.479a.82.82 0 0 0-.821.821v5.883a.82.82 0 0 0 .821.821h2.479a.821.821 0 1 0 0-1.642h-1.658v-1.299h1.475a.821.821 0 1 0 0-1.642h-1.475v-1.3h1.658zm-7.866 4.267c-.568 0-1.114-.228-1.461-.61a.821.821 0 1 0-1.217 1.103c.662.731 1.638 1.15 2.677 1.15 1.289 0 2.373-.826 2.576-1.963.153-.859-.233-1.98-1.776-2.549l-1.619-.651c-.087-.047-.124-.132-.111-.251.017-.166.141-.375.436-.463.794-.239 1.538.345 1.561.363a.821.821 0 1 0 1.052-1.261c-.057-.048-1.424-1.175-3.087-.675-.879.265-1.506.997-1.596 1.867a1.86 1.86 0 0 0 .96 1.862c.338.195 1.114.489 1.836.75.189.07.798.327.728.721-.053.3-.427.61-.959.61zm18.092-2.147c0-2.089-1.7-3.789-3.789-3.789s-3.789 1.7-3.789 3.789 1.7 3.789 3.789 3.789 3.789-1.7 3.789-3.789zm-5.937 0a2.15 2.15 0 0 1 2.148-2.148 2.15 2.15 0 0 1 2.148 2.148 2.15 2.15 0 0 1-2.148 2.148 2.15 2.15 0 0 1-2.148-2.148z"/></svg>