<svg width="46" height="46" viewBox="0 0 46 46" fill="none" xmlns="http://www.w3.org/2000/svg">
<rect width="46" height="46" rx="9" fill="white"/>
<g clip-path="url(#clip0_9_702)">
<path d="M36.9556 26.1322C39.1024 16.4856 30.652 7.72149 20.7258 9.40389C15.338 6.06083 8.16284 9.83862 8.16284 16.2494C8.16211 17.6893 8.55146 19.1024 9.28952 20.3387C7.29412 30.0085 15.8155 38.6459 25.7367 36.8483C32.7474 40.555 40.4936 33.1625 36.9607 26.1322H36.9556ZM27.5206 31.9503C24.9158 33.0212 20.6308 33.027 18.0377 31.6692C14.3425 29.6984 13.6839 25.2606 16.8733 25.2606C19.2774 25.2606 18.5159 28.0631 20.9431 29.2057C22.0582 29.7202 24.4535 29.7738 25.8454 28.8348C27.222 27.9146 27.0945 26.467 26.3468 25.7757C24.3666 23.9477 18.6999 24.6737 16.1097 21.4734C14.9845 20.0852 14.7722 17.6333 16.1553 15.8596C18.5666 12.7571 25.6425 12.568 28.6849 14.9112C31.494 17.0848 30.7361 19.9699 28.4675 19.9699C25.7411 19.9699 27.1742 16.403 22.7726 16.403C19.5846 16.403 18.3268 18.6716 20.5743 19.7765C23.6174 21.2893 31.3831 20.7843 31.3831 26.6974C31.3766 29.1608 29.8681 30.9918 27.5191 31.9503H27.5206Z" fill="#03A9F4"/>
</g>
<defs>
<clipPath id="clip0_9_702">
<rect width="29.6774" height="29.6774" fill="white" transform="translate(8.16138 8.16113)"/>
</clipPath>
</defs>
</svg>
