<svg width="62" height="62" viewBox="0 0 62 62" fill="none" xmlns="http://www.w3.org/2000/svg">
<path d="M44.8113 22.1765H51.0217C52.8019 22.1765 54.2502 20.7283 54.2502 18.9481V10.705C54.2502 8.92475 52.8019 7.47648 51.0217 7.47648H43.3142C42.6451 5.81569 41.0298 4.69873 39.2043 4.69873H18.9273C16.484 4.69873 14.4963 6.68649 14.4963 9.12975V25.3695H10.083C8.30276 25.3695 6.85449 26.8178 6.85449 28.598V36.8411C6.85449 38.6213 8.30276 40.0696 10.083 40.0696H14.4963V52.8701C14.4963 55.3134 16.484 57.3011 18.9273 57.3011H39.2043C41.6475 57.3011 43.6352 55.3134 43.6352 52.8701V51.427H45.9411C46.2914 51.427 46.594 51.1821 46.6672 50.8396L46.9885 49.3336L48.0707 48.8864L49.3637 49.726C49.6579 49.917 50.0455 49.8762 50.2933 49.6279L52.4488 47.4694C52.6963 47.2216 52.7369 46.8344 52.5461 46.5405L51.7066 45.2477L52.1534 44.1685L53.6624 43.8471C54.0051 43.7741 54.2501 43.4713 54.2501 43.1209V40.0726C54.2501 39.7222 54.005 39.4196 53.6623 39.3465L52.1535 39.0251L51.7063 37.9432L52.546 36.6501C52.7369 36.3561 52.6962 35.9686 52.4483 35.7207L50.2929 33.5653C50.045 33.3175 49.6574 33.2769 49.3636 33.4676L48.0706 34.3074L46.9886 33.8601L46.6672 32.3512C46.5942 32.0085 46.2914 31.7636 45.941 31.7636H43.6351V23.4175L44.8113 22.1765ZM52.7654 10.705V18.9481C52.7654 19.9095 51.9832 20.6918 51.0217 20.6918H44.4922C44.2884 20.6918 44.0936 20.7756 43.9534 20.9235L42.5079 22.4487V21.4343C42.5079 21.0243 42.1756 20.6919 41.7656 20.6919H40.7105C39.749 20.6919 38.9667 19.9097 38.9667 18.9482V10.705C38.9667 9.74348 39.749 8.96123 40.7105 8.96123H51.0218C51.9832 8.96123 52.7654 9.74348 52.7654 10.705ZM23.9956 6.18348H34.1359V7.55146C34.1359 7.75201 33.9664 7.92138 33.766 7.92138H24.3656C24.1651 7.92138 23.9957 7.7519 23.9957 7.55146L23.9956 6.18348ZM8.33924 36.8411V28.598C8.33924 27.6365 9.12149 26.8542 10.083 26.8542H16.6515C16.9635 28.3092 18.26 29.4036 19.8081 29.4036H22.1381V36.8411C22.1381 37.8026 21.3558 38.5848 20.3943 38.5848H19.3392C18.9292 38.5848 18.5968 38.9172 18.5968 39.3272V40.3416L17.1513 38.8164C17.0111 38.6685 16.8163 38.5847 16.6125 38.5847H10.083C9.12149 38.5849 8.33924 37.8027 8.33924 36.8411ZM19.8081 27.9188C18.8466 27.9188 18.0643 27.1379 18.0643 26.178V17.932C18.0643 16.9705 18.8466 16.1882 19.8081 16.1882H30.1194C31.0809 16.1882 31.8632 16.9705 31.8632 17.932V26.178C31.8632 27.1379 31.0809 27.9188 30.1194 27.9188H29.0643C28.6543 27.9188 28.3219 28.2512 28.3219 28.6612V29.6757L26.8764 28.1505C26.7362 28.0026 26.5414 27.9188 26.3376 27.9188H19.8081ZM16.2932 40.0697L18.8003 42.7148C18.9433 42.8658 19.1394 42.9466 19.3393 42.9466C19.4317 42.9466 19.5249 42.9294 19.614 42.8939C19.8963 42.7812 20.0815 42.508 20.0815 42.2042V40.0697H20.3942C22.1744 40.0697 23.6227 38.6214 23.6227 36.8412V29.4037H26.0182L28.5253 32.049C28.6683 32.1999 28.8644 32.2807 29.0643 32.2807C29.1567 32.2807 29.2499 32.2635 29.339 32.228C29.6213 32.1153 29.8065 31.8421 29.8065 31.5383V29.4038H30.1192C31.8994 29.4038 33.3477 27.9568 33.3477 26.1783V17.9322C33.3477 16.152 31.8994 14.7037 30.1192 14.7037H19.8081C18.0279 14.7037 16.5796 16.152 16.5796 17.9322V25.3697H15.981V9.12975C15.981 7.50522 17.3027 6.18348 18.9273 6.18348H22.5109V7.55146C22.5109 8.57413 23.3429 9.40612 24.3656 9.40612H33.766C34.7887 9.40612 35.6206 8.57413 35.6206 7.55146V6.18348H39.2043C40.2008 6.18348 41.1024 6.68532 41.64 7.47648H40.7103C38.9301 7.47648 37.4819 8.92475 37.4819 10.705V18.9481C37.4819 20.7283 38.9301 22.1765 40.7103 22.1765H41.0231V24.3111C41.0231 24.6149 41.2083 24.8881 41.4906 25.0006C41.5798 25.0362 41.673 25.0535 41.7653 25.0535C41.9007 25.0535 42.0339 25.0155 42.1504 24.9448V49.9182H15.981V40.0697H16.2932ZM43.6352 38.5381C43.8899 38.473 44.1515 38.4402 44.417 38.4402C46.1576 38.4402 47.5737 39.8563 47.5737 41.5969C47.5737 43.3375 46.1576 44.7536 44.417 44.7536C44.1515 44.7536 43.8899 44.7207 43.6352 44.6556V38.5381ZM39.2043 55.8165H18.9273C17.3028 55.8165 15.981 54.4947 15.981 52.8702V51.4031H42.1504V52.8702C42.1504 54.4947 40.8288 55.8165 39.2043 55.8165ZM45.3402 33.2484L45.6179 34.5517C45.6688 34.7909 45.8343 34.9896 46.0604 35.083L47.8642 35.8286C48.0899 35.9218 48.347 35.8982 48.552 35.7652L49.6681 35.0403L50.9735 36.3456L50.2487 37.4618C50.1157 37.6668 50.0919 37.9239 50.1852 38.1497L50.9306 39.9534C51.0241 40.1795 51.2229 40.345 51.4621 40.396L52.7653 40.6735V42.52L51.462 42.7977C51.223 42.8486 51.0244 43.014 50.9308 43.2398L50.1854 45.0405C50.0918 45.2664 50.1156 45.5238 50.2487 45.7288L50.9737 46.8452L49.6678 48.153L48.552 47.4284C48.3471 47.2954 48.0901 47.2718 47.8642 47.3649L46.0604 48.1103C45.8344 48.2038 45.6691 48.4024 45.618 48.6415L45.3404 49.9421H43.6352V46.1722C43.8922 46.216 44.1533 46.238 44.417 46.238C46.9763 46.238 49.0584 44.1559 49.0584 41.5966C49.0584 39.0372 46.9763 36.9551 44.417 36.9551C44.1533 36.9551 43.8922 36.9771 43.6352 37.021V33.2481L45.3402 33.2484ZM17.6315 37.1445C17.7856 37.1445 17.9389 37.0966 18.068 37.0027C18.291 36.8408 18.4058 36.5685 18.3664 36.2959L18.037 34.0183L19.6427 32.3685C19.8349 32.171 19.9019 31.8835 19.8169 31.6214C19.7318 31.3594 19.5087 31.1659 19.2372 31.1192L16.9697 30.7274L15.8954 28.6906C15.767 28.447 15.5142 28.2944 15.2388 28.2944C14.9633 28.2944 14.7106 28.447 14.5821 28.6906L13.5079 30.7274L11.2403 31.1192C10.9688 31.1659 10.7457 31.3595 10.6606 31.6214C10.5756 31.8835 10.6426 32.171 10.8348 32.3685L12.4405 34.0183L12.1111 36.2959C12.0717 36.5685 12.1865 36.8408 12.4094 37.0027C12.6325 37.1646 12.9266 37.1901 13.1738 37.068L15.2388 36.0511L17.3037 37.068C17.4075 37.1194 17.5198 37.1445 17.6315 37.1445ZM16.5151 33.8689L16.6951 35.1135L15.5666 34.5578C15.4632 34.5068 15.3509 34.4813 15.2385 34.4813C15.1262 34.4813 15.0139 34.5067 14.9105 34.5578L13.7821 35.1134L13.9621 33.8689C13.9952 33.6408 13.9202 33.4101 13.7593 33.2448L12.8811 32.3425L14.1203 32.1283C14.3473 32.0891 14.5432 31.9468 14.6506 31.7431L15.2384 30.6283L15.8263 31.7431C15.9337 31.9468 16.1296 32.0891 16.3566 32.1283L17.5959 32.3425L16.7177 33.2448C16.557 33.4101 16.4821 33.6406 16.5151 33.8689ZM45.5251 18.7448C45.6321 18.8 45.7489 18.8277 45.866 18.8277C45.9831 18.8277 46.1001 18.8 46.207 18.7448C50.0084 16.7796 50.4346 14.6664 50.3504 13.5817C50.2576 12.3863 49.446 11.3331 48.3306 10.9609C47.4243 10.6581 46.5168 10.8585 45.8661 11.4958C45.216 10.8587 44.3082 10.6582 43.4016 10.9609C42.2862 11.3331 41.4746 12.3863 41.3818 13.5817C41.2975 14.6664 41.7238 16.7796 45.5251 18.7448ZM42.862 13.6966C42.9166 12.9942 43.4082 12.5238 43.8716 12.3691C43.9624 12.3388 44.0856 12.3095 44.2227 12.3095C44.4318 12.3095 44.673 12.3775 44.8811 12.6133L45.3077 13.1001C45.4486 13.261 45.6521 13.3531 45.866 13.3531C46.0799 13.3531 46.2833 13.2608 46.4243 13.1001L46.8502 12.6142C47.1952 12.2223 47.6315 12.2925 47.8606 12.369C48.3238 12.5237 48.8156 12.9941 48.8702 13.6965C48.9601 14.8543 47.87 16.1355 45.8661 17.2435C43.8621 16.1356 42.7721 14.8545 42.862 13.6966ZM25.3696 44.3896C25.3696 43.9808 25.7033 43.6471 26.1122 43.6471C26.5211 43.6471 26.8548 43.9807 26.8548 44.3896C26.8548 44.7985 26.5211 45.1321 26.1122 45.1321C25.7033 45.1321 25.3696 44.7985 25.3696 44.3896ZM28.3217 44.3896C28.3217 43.9808 28.6554 43.6471 29.0643 43.6471C29.4731 43.6471 29.8069 43.9807 29.8069 44.3896C29.8069 44.7985 29.4732 45.1321 29.0643 45.1321C28.6555 45.1322 28.3217 44.7985 28.3217 44.3896ZM28.4767 25.6847L29.5229 21.7789C29.6058 21.4685 29.5411 21.1429 29.3456 20.8857C29.1488 20.6268 28.849 20.4783 28.5231 20.4783H26.3254V18.6925C26.3254 18.1223 25.8615 17.6585 25.2913 17.6585H25.1651C24.7862 17.6585 24.4488 17.8561 24.2604 18.191L23.0916 20.2974C22.9898 20.2647 22.8816 20.2467 22.7691 20.2467H21.4284C20.845 20.2467 20.3703 20.7214 20.3703 21.3048V25.2129C20.3703 25.7963 20.845 26.2708 21.4284 26.2708H22.7691C23.0054 26.2708 23.223 26.192 23.3992 26.0606L23.9044 26.3519C24.0171 26.4169 24.145 26.4511 24.2752 26.4511H27.4769C27.9396 26.4513 28.3498 26.1392 28.4767 25.6847ZM22.3425 24.7863H21.8552V21.7316H22.3425V24.7863ZM24.4741 24.9666L23.8273 24.5937V22.0322L24.8407 20.2056V21.2207C24.8407 21.6307 25.1731 21.9631 25.5831 21.9631H27.9365L27.132 24.9666H24.4741ZM31.8659 53.6097C31.8659 54.0197 31.5335 54.3521 31.1235 54.3521H27.008C26.598 54.3521 26.2657 54.0197 26.2657 53.6097C26.2657 53.1997 26.598 52.8673 27.008 52.8673H31.1235C31.5335 52.8673 31.8659 53.1997 31.8659 53.6097Z" fill="white"/>
<rect x="25.9854" y="52.8823" width="6.38235" height="1.82353" rx="0.911765" fill="white"/>
<rect x="24.1621" y="11.397" width="9.57353" height="0.911765" rx="0.455882" fill="white"/>
<circle cx="26.2129" cy="44.4485" r="1.13971" fill="white"/>
<circle cx="29.4044" cy="44.4485" r="1.13971" fill="white"/>
<circle cx="32.5958" cy="44.4485" r="1.13971" fill="white"/>
</svg>
