<svg width="144" height="169" viewBox="0 0 144 169" fill="none" xmlns="http://www.w3.org/2000/svg">
<path d="M142.958 45.8462C128.131 49.1532 117.347 60.8012 114.426 74.7273C129.252 71.4203 140.037 59.7723 142.958 45.8462Z" fill="#1B5A96" stroke="#FB9100" stroke-width="1.37791" stroke-linecap="round" stroke-linejoin="round"/>
<path d="M128.701 22.8994C128.701 22.8994 113.709 59.8459 115.638 95.2119" stroke="#FB9100" stroke-width="1.37791" stroke-linecap="round" stroke-linejoin="round"/>
<path d="M126.846 11.1782C132.046 9.3777 137.723 12.1152 139.542 17.3145C141.36 22.5138 138.605 28.1908 133.387 30.0097C128.169 31.8285 122.511 29.0727 120.692 23.8734C118.891 18.674 121.647 12.997 126.846 11.1782Z" fill="#1B5A96" stroke="#FB9100" stroke-width="1.37791" stroke-linecap="round" stroke-linejoin="round"/>
<path d="M9.96094 48.0874C9.96094 48.0874 25.0812 72.8715 27.7084 132.655" stroke="#FB9100" stroke-width="1.37791" stroke-linecap="round" stroke-linejoin="round"/>
<path d="M11.5968 41.1431C16.2266 42.227 19.111 46.8752 18.0087 51.505C16.9064 56.1348 12.2766 59.0192 7.64678 57.9169C3.01698 56.8145 0.132582 52.1847 1.23488 47.555C2.33718 42.9252 6.96698 40.0407 11.5968 41.1431Z" fill="#1B5A96" stroke="#FB9100" stroke-width="1.37791" stroke-linecap="round" stroke-linejoin="round"/>
<path d="M134.194 81.3599H5.66211V168.205H134.194V81.3599Z" fill="#FB9100" stroke="#FB9100" stroke-width="1.37791" stroke-linecap="round" stroke-linejoin="round"/>
<path d="M5.66211 81.3599H134.176L69.6524 18.9497L5.66211 81.3599Z" fill="#1B5A96" stroke="#1B5A96" stroke-width="1.37791" stroke-linecap="round" stroke-linejoin="round"/>
<path d="M115.694 104.123L69.8361 149.686L24.1445 102.414V40.7388H115.694V104.123Z" fill="#FFFDF6" stroke="#FB9100" stroke-width="1.37791" stroke-linecap="round" stroke-linejoin="round"/>
<path d="M134.176 168.205H5.66211V81.3599L69.928 147.573L134.176 81.3599V168.205Z" fill="#1B5A96" stroke="#1B5A96" stroke-width="1.37791" stroke-linecap="round" stroke-linejoin="round"/>
<path d="M47.0195 109.781C57.4916 122.697 60.7068 134.749 63.9954 146.434" stroke="#FB9100" stroke-width="1.37791" stroke-linecap="round" stroke-linejoin="round"/>
<path d="M5.66211 168.205H134.194L81.484 115.495C75.1089 109.12 64.7654 109.12 58.3719 115.495L5.66211 168.205Z" fill="#FB9100" stroke="#FB9100" stroke-width="1.37791" stroke-linecap="round" stroke-linejoin="round"/>
<path d="M12.7734 98.152C27.7283 95.543 42.1689 102.175 50.1791 113.934C35.2242 116.542 20.802 109.91 12.7734 98.152Z" fill="#1B5A96" stroke="#FB9100" stroke-width="1.37791" stroke-linecap="round" stroke-linejoin="round"/>
<path d="M23.3906 11.6559C29.2881 11.6559 34.0465 16.4143 34.0465 22.3117C34.0465 16.4143 38.8049 11.6559 44.7023 11.6559C38.8049 11.6559 34.0465 6.8791 34.0465 1C34.0465 6.8975 29.2697 11.6559 23.3906 11.6559Z" fill="#FFFDF6" stroke="#FB9100" stroke-width="1.37791" stroke-linecap="round" stroke-linejoin="round"/>
<path d="M41.3594 76.8721H44.1194V84.0001H45.6794V76.8721H48.4154V75.6001H41.3594V76.8721ZM49.432 84.0001H50.908V80.7841C50.908 79.5721 51.544 78.8041 52.552 78.8041C53.536 78.8041 54.028 79.3561 54.028 80.3641V84.0001H55.492V79.9561C55.492 78.4801 54.496 77.6161 53.224 77.6161C52.108 77.6161 51.316 78.2161 50.98 79.3081H50.908V75.6001H49.432V84.0001ZM58.8247 84.1921C60.0727 84.1921 61.0447 83.4601 61.3087 82.4401H61.3687L61.3927 84.0001H62.8087V79.8361C62.8087 78.4321 61.7287 77.6161 59.9167 77.6161C58.1167 77.6161 56.9527 78.5281 56.7967 80.0521H58.2607C58.3807 79.2121 59.0047 78.7561 59.9047 78.7561C61.0087 78.7561 61.3687 79.3321 61.3687 79.8001C61.3687 80.4361 60.9007 80.6881 59.7727 80.6881H59.0167C57.5167 80.6881 56.7367 81.3721 56.7367 82.4761C56.7367 83.5921 57.6247 84.1921 58.8247 84.1921ZM58.2367 82.3441C58.2367 81.8161 58.5847 81.5041 59.2207 81.5041H59.7367C60.6967 81.5041 61.1887 81.2401 61.3087 80.6641H61.3687V81.2761C61.3687 82.2241 60.5527 83.1841 59.3407 83.1841C58.5967 83.1841 58.2367 82.8721 58.2367 82.3441ZM64.3969 84.0001H65.8729V80.7841C65.8729 79.5721 66.5089 78.8041 67.5169 78.8041C68.5009 78.8041 68.9929 79.3561 68.9929 80.3641V84.0001H70.4569V79.9561C70.4569 78.4801 69.4609 77.6161 68.1889 77.6161C67.0729 77.6161 66.2809 78.2161 65.9449 79.3081H65.8729L65.8129 77.8081H64.3969V84.0001ZM72.0375 84.0001H73.4775V82.2361L74.3295 81.4321H74.6055C75.2055 81.4321 75.5535 81.7561 75.8175 82.3561L76.5615 84.0001H78.0855L77.0055 81.6481C76.6695 80.9161 76.2255 80.4721 75.3615 80.4121L75.3495 80.3521C75.6855 80.0521 76.2735 79.5361 76.8255 79.0081L78.0855 77.8081H76.3695L74.8215 79.2841C74.3895 79.7041 73.8735 80.2561 73.5015 80.6761L73.4415 80.6521C73.4655 79.9921 73.4775 79.2841 73.4775 78.5281V75.6001H72.0375V84.0001ZM82.7674 86.3281C83.9674 86.3281 84.6874 85.6681 85.2514 84.2161L87.7114 77.8081H86.1634L85.3954 79.9801C85.1194 80.8081 84.8434 81.6241 84.5554 82.6321H84.4954C84.2194 81.6361 83.9434 80.7841 83.6794 79.9801L82.9474 77.8081H81.3518L83.6434 83.9761L83.4874 84.3721C83.2354 84.9721 82.9594 85.1641 82.3594 85.1641C82.1434 85.1641 81.8918 85.1281 81.5918 85.0681V86.1721C82.0234 86.2681 82.4194 86.3281 82.7674 86.3281ZM91.4564 84.1921C93.2684 84.1921 94.7804 82.9201 94.7804 80.8801C94.7804 78.8881 93.2684 77.6161 91.4564 77.6161C89.6444 77.6161 88.1204 78.8881 88.1204 80.8801C88.1204 82.9201 89.6444 84.1921 91.4564 84.1921ZM89.6084 80.8801C89.6084 79.5241 90.3404 78.7681 91.4564 78.7681C92.5724 78.7681 93.3044 79.5241 93.3044 80.8801C93.3044 82.2721 92.5724 83.0401 91.4564 83.0401C90.3404 83.0401 89.6084 82.2721 89.6084 80.8801ZM98.2934 84.1921C99.4094 84.1921 100.213 83.5921 100.549 82.5001H100.621L100.669 84.0001H102.085V77.8081H100.621V81.0241C100.621 82.2361 99.9854 83.0041 98.9774 83.0041C98.0534 83.0041 97.4894 82.3921 97.4894 81.3961V77.8081H96.0254V81.8521C96.0254 83.3281 97.0214 84.1921 98.2934 84.1921Z" fill="#1B5A96"/>
</svg>
