<svg xmlns="http://www.w3.org/2000/svg" xmlns:xlink="http://www.w3.org/1999/xlink" width="62" height="62" fill="none" xmlns:v="https://vecta.io/nano"><style><![CDATA[.B{stroke:#fff}.C{strokeWidth:1.6}.D{stroke-miterlimit:10}.E{strokeLinejoin:round}.F{strokeLinecap:round}]]></style><mask id="A" maskUnits="userSpaceOnUse" x="2" y="2" width="58" height="58"><path d="M2.385 2.385h57.231v57.231H2.385V2.385z" fill="#fff"/></mask><g mask="url(#A)" class="B C D E"><path d="M3.502 19.747h50.917" class="F"/><use xlink:href="#C"/><path d="M35.912 9.683h10c1.461 0 2.655 1.194 2.655 2.654s-1.195 2.654-2.655 2.654h-10c-1.461 0-2.655-1.194-2.655-2.654s1.195-2.654 2.655-2.654z"/><use xlink:href="#C" x="9.803"/><path d="M20.539 28.345l-2.237 9.361m7.388-.846l3.165-3.553c.139-.155.139-.408 0-.564L25.69 29.19m-12.54 7.67l-3.165-3.553c-.139-.155-.139-.408 0-.564l3.165-3.553" class="F"/><path d="M47.601 33.285c1.223.272 2.367.754 3.397 1.4l.916-.912a1.4 1.4 0 0 1 1.977 0l1.442 1.441a1.4 1.4 0 0 1 0 1.976l-.913.915c.643 1.02 1.118 2.154 1.394 3.363h1.283c.77 0 1.4.63 1.4 1.397v2.043c0 .766-.63 1.396-1.4 1.396h-1.289c-.276 1.203-.751 2.331-1.388 3.344l.913.912a1.4 1.4 0 0 1 0 1.976L53.89 53.98a1.4 1.4 0 0 1-1.977 0l-.916-.912a10.81 10.81 0 0 1-3.359 1.39v1.298c0 .77-.631 1.4-1.397 1.4h-2.044c-.767 0-1.397-.63-1.397-1.4v-1.301a10.83 10.83 0 0 1-3.352-1.387l-.912.912a1.4 1.4 0 0 1-1.977 0l-1.445-1.444c-.542-.542-.542-1.431 0-1.976l.916-.912a10.76 10.76 0 0 1-1.391-3.344h-1.296a1.4 1.4 0 0 1-1.397-1.396v-2.043a1.4 1.4 0 0 1 1.397-1.397h1.293c.272-1.197.741-2.318 1.372-3.328l-.919-.921a1.4 1.4 0 0 1 0-1.976l1.442-1.441a1.4 1.4 0 0 1 1.977 0l.909.906c1.014-.643 2.142-1.121 3.346-1.403v-1.289c0-.77.627-1.4 1.397-1.4H46.2c.77 0 1.4.63 1.4 1.4v1.27z"/><path d="M45.221 38.127a5.76 5.76 0 0 1 5.76 5.76 5.76 5.76 0 0 1-11.524 0 5.76 5.76 0 0 1 5.764-5.76z"/><path d="M14.281 46.304H7.665c-2.287 0-4.163-2.239-4.163-4.972V9.816c0-2.736 1.873-4.972 4.163-4.972h4.822 37.768c2.291 0 4.163 2.239 4.163 4.972v24.486M33.343 46.304h-9.071m-4.985 0h.021" class="F"/></g><defs ><path id="C" d="M12.837 14.99a2.66 2.66 0 0 0 2.658-2.654 2.66 2.66 0 0 0-2.658-2.654 2.66 2.66 0 0 0-2.655 2.654 2.66 2.66 0 0 0 2.655 2.654z"/></defs></svg>