<svg width="46" height="46" viewBox="0 0 46 46" fill="none" xmlns="http://www.w3.org/2000/svg">
<rect width="46" height="46" rx="9" fill="white"/>
<g clip-path="url(#clip0_9_709)">
<path d="M6.67749 39.3229L8.98276 30.9384C7.55999 28.4799 6.81343 25.6912 6.81837 22.8537C6.81837 13.9336 14.112 6.67773 23.0705 6.67773C25.2052 6.67815 27.3189 7.09722 29.2909 7.911C31.2629 8.72479 33.0547 9.91735 34.5638 11.4206C36.073 12.9239 37.27 14.7084 38.0865 16.6723C38.903 18.6361 39.3231 20.7409 39.3227 22.8664C39.3162 31.7865 32.029 39.0424 23.0705 39.0424H23.0641C20.3503 39.0418 17.6799 38.3645 15.2966 37.0722L6.67749 39.3229ZM15.6937 34.1456L16.1867 34.4389C18.2689 35.6665 20.6443 36.3139 23.0641 36.3134H23.0705C30.5178 36.3134 36.5755 30.2817 36.5755 22.8664C36.577 21.1004 36.2289 19.3513 35.5512 17.7193C34.8735 16.0872 33.8794 14.6042 32.6259 13.3548C31.3723 12.1054 29.8837 11.1142 28.2453 10.4379C26.6068 9.76154 24.8506 9.41329 23.0769 9.41304C15.6232 9.41304 9.56548 15.4447 9.56548 22.86C9.56226 25.3905 10.277 27.8703 11.6274 30.0139L11.9476 30.524L10.5836 35.4845L15.6937 34.1456Z" fill="white"/>
<path d="M7.24756 38.7564L9.47598 30.6633C8.09782 28.2915 7.37327 25.5992 7.37563 22.8591C7.38203 14.2451 14.4195 7.24421 23.0643 7.24421C25.1263 7.23791 27.169 7.63932 29.074 8.42518C30.9789 9.21104 32.7082 10.3657 34.1616 11.8222C35.6242 13.2691 36.7833 14.991 37.5715 16.888C38.3597 18.7849 38.7613 20.8189 38.7529 22.8718C38.7465 31.4794 31.709 38.4867 23.0643 38.4867H23.0579C20.4384 38.4872 17.8605 37.8346 15.5593 36.5885L7.24756 38.7564Z" fill="url(#paint0_linear_9_709)"/>
<path d="M6.67749 39.3229L8.98276 30.9384C7.55999 28.4799 6.81343 25.6912 6.81837 22.8537C6.81837 13.9336 14.112 6.67773 23.0705 6.67773C25.2052 6.67815 27.3189 7.09722 29.2909 7.911C31.2629 8.72479 33.0547 9.91735 34.5638 11.4206C36.073 12.9239 37.27 14.7084 38.0865 16.6723C38.903 18.6361 39.3231 20.7409 39.3227 22.8664C39.3162 31.7865 32.029 39.0424 23.0705 39.0424H23.0641C20.3503 39.0418 17.6799 38.3645 15.2966 37.0722L6.67749 39.3229ZM15.6937 34.1456L16.1867 34.4389C18.2689 35.6665 20.6443 36.3139 23.0641 36.3134H23.0705C30.5178 36.3134 36.5755 30.2817 36.5755 22.8664C36.577 21.1004 36.2289 19.3513 35.5512 17.7193C34.8735 16.0872 33.8794 14.6042 32.6259 13.3548C31.3723 12.1054 29.8837 11.1142 28.2453 10.4379C26.6068 9.76154 24.8506 9.41329 23.0769 9.41304C15.6232 9.41304 9.56548 15.4447 9.56548 22.86C9.56226 25.3905 10.277 27.8703 11.6274 30.0139L11.9476 30.524L10.5836 35.4845L15.6937 34.1456Z" fill="url(#paint1_linear_9_709)"/>
<path fillRule="evenodd" clipRule="evenodd" d="M19.0042 16.0882C18.6968 15.4124 18.3766 15.3996 18.0885 15.3869C17.8515 15.3741 17.5826 15.3805 17.3072 15.3805C17.1018 15.3862 16.8998 15.4338 16.7136 15.5205C16.5275 15.6071 16.3612 15.7309 16.225 15.8842C15.8536 16.2859 14.8035 17.2678 14.8035 19.2571C14.8035 21.2464 16.2571 23.172 16.462 23.4398C16.6669 23.7076 19.2731 27.9221 23.397 29.5416C26.8293 30.887 27.5273 30.6192 28.2701 30.5554C29.0129 30.4916 30.6714 29.5799 31.0108 28.6362C31.3502 27.6926 31.3502 26.8828 31.2477 26.717C31.1453 26.5513 30.8763 26.4493 30.4665 26.2452C30.0567 26.0412 28.0652 25.0657 27.6938 24.9318C27.3224 24.7979 27.0534 24.7277 26.7781 25.1358C26.5027 25.5439 25.7279 26.4493 25.4909 26.717C25.254 26.9848 25.0171 27.0231 24.6137 26.8191C24.2102 26.615 22.8975 26.1878 21.3479 24.8106C20.1376 23.7394 19.3244 22.4132 19.0874 22.0115C18.8505 21.6099 19.0618 21.3867 19.2667 21.189C19.446 21.0105 19.6701 20.7172 19.8751 20.4813C20.08 20.2454 20.144 20.0796 20.2785 19.8055C20.413 19.5313 20.3489 19.3017 20.2465 19.0977C20.1568 18.8873 19.3692 16.8916 19.0042 16.0882Z" fill="white"/>
</g>
<defs>
<linearGradient id="paint0_linear_9_709" x1="23.0002" y1="38.7564" x2="23.0002" y2="7.24613" gradientUnits="userSpaceOnUse">
<stop stopColor="#20B038"/>
<stop offset="1" stopColor="#60D66A"/>
</linearGradient>
<linearGradient id="paint1_linear_9_709" x1="23.0001" y1="39.3229" x2="23.0001" y2="6.67773" gradientUnits="userSpaceOnUse">
<stop stopColor="#F9F9F9"/>
<stop offset="1" stopColor="white"/>
</linearGradient>
<clipPath id="clip0_9_709">
<rect width="32.6452" height="32.6452" fill="white" transform="translate(6.67749 6.67773)"/>
</clipPath>
</defs>
</svg>
