<svg width="50" height="50" viewBox="0 0 50 50" fill="none" xmlns="http://www.w3.org/2000/svg">
<rect opacity="0.15" width="50" height="50" rx="12" fill="#F39019" fill-opacity="0.42"/>
<g clip-path="url(#clip0_1856_48)">
<path d="M28.9702 11.3148C29.11 11.1958 29.2197 11.0454 29.2904 10.8759C29.361 10.7065 29.3907 10.5227 29.3768 10.3397C29.363 10.1566 29.3061 9.97936 29.2107 9.82245C29.1154 9.66555 28.9843 9.5334 28.8282 9.43677L25.2006 7.17892C25.0188 7.06282 24.8078 7.00054 24.5921 6.99929C24.3764 6.99803 24.1647 7.05784 23.9815 7.17182C23.7957 7.2816 23.6447 7.44159 23.5459 7.6334C23.447 7.8252 23.4043 8.04102 23.4227 8.25601L23.4859 9.10803L23.3091 9.12081C21.0597 9.28841 18.8669 9.90697 16.8615 10.9397C14.8561 11.9723 13.0791 13.398 11.6362 15.1318C11.5017 15.2933 11.4019 15.4807 11.3429 15.6823C11.2839 15.884 11.267 16.0956 11.2932 16.3041C11.319 16.5105 11.3874 16.7093 11.4941 16.8879C11.6008 17.0665 11.7435 17.2209 11.9131 17.3414C12.2265 17.5738 12.6169 17.6774 13.0043 17.6311C13.3917 17.5848 13.7466 17.3919 13.9963 17.0922C15.1781 15.678 16.6316 14.5151 18.2707 13.6725C19.9098 12.83 21.7013 12.3247 23.5391 12.1867L23.7159 12.1732L23.7948 13.2851C23.8108 13.4995 23.8859 13.7054 24.0118 13.8798C24.1376 14.0543 24.3092 14.1905 24.5076 14.2735C24.706 14.3564 24.9235 14.3829 25.1361 14.3499C25.3486 14.317 25.5479 14.2259 25.7118 14.0867L28.9702 11.3148ZM24.781 13.6174C24.7037 13.5847 24.6369 13.5313 24.5881 13.4629C24.5394 13.3946 24.5105 13.3141 24.5048 13.2304L24.4224 12.1256C24.4077 11.9386 24.3203 11.7648 24.1789 11.6415C24.0376 11.5182 23.8535 11.4552 23.6662 11.466C21.6996 11.5823 19.7778 12.1015 18.0201 12.9913C16.2624 13.881 14.7063 15.1224 13.4482 16.6385C13.3721 16.7304 13.2769 16.8047 13.1693 16.8562C13.0617 16.9077 12.9441 16.9351 12.8248 16.9367C12.6454 16.9341 12.4715 16.8749 12.3278 16.7677C12.2377 16.7039 12.162 16.622 12.1054 16.5272C12.0488 16.4325 12.0125 16.327 11.999 16.2174C11.9852 16.1059 11.9945 15.9926 12.0262 15.8848C12.058 15.7769 12.1115 15.6768 12.1836 15.5905C13.5871 13.9125 15.3159 12.5362 17.2659 11.5447C19.2158 10.5532 21.3465 9.96705 23.5292 9.8216C23.6233 9.81586 23.7154 9.79142 23.8 9.7497C23.8846 9.70799 23.96 9.64984 24.0219 9.57865C24.0838 9.50746 24.1308 9.42466 24.1603 9.33508C24.1899 9.2455 24.2012 9.15093 24.1938 9.05691L24.1306 8.20489C24.1239 8.12057 24.1408 8.03605 24.1794 7.9608C24.218 7.88555 24.2769 7.82255 24.3493 7.77888C24.421 7.73468 24.5038 7.71158 24.588 7.71221C24.6723 7.71283 24.7547 7.73717 24.8257 7.78243L28.4554 10.0396C28.5163 10.0776 28.5674 10.1294 28.6046 10.1908C28.6417 10.2522 28.6639 10.3215 28.6692 10.3931C28.6745 10.4647 28.6629 10.5366 28.6352 10.6028C28.6076 10.6691 28.5647 10.7279 28.5101 10.7744L25.2553 13.5435C25.1913 13.5984 25.1133 13.6344 25.0301 13.6474C24.9468 13.6605 24.8615 13.6501 24.7838 13.6174H24.781Z" fill="black"/>
<path d="M38.3654 34.8646C38.4938 34.7096 38.5905 34.5309 38.6499 34.3386C38.7092 34.1463 38.7301 33.9441 38.7114 33.7437C38.6926 33.5433 38.6346 33.3486 38.5405 33.1706C38.4465 32.9927 38.3184 32.8349 38.1634 32.7065C38.0084 32.5781 37.8297 32.4814 37.6373 32.4221C37.445 32.3627 37.2429 32.3418 37.0425 32.3606C36.8421 32.3793 36.6473 32.4374 36.4694 32.5314C36.2914 32.6254 36.1337 32.7535 36.0053 32.9085C34.8234 34.3227 33.3699 35.4855 31.7308 36.3283C30.0917 37.171 28.3003 37.6764 26.4624 37.8147L26.2856 37.8275L26.2068 36.7156C26.1932 36.5004 26.1189 36.2934 25.9927 36.1185C25.8664 35.9436 25.6933 35.808 25.4932 35.7273C25.3489 35.6657 25.1936 35.6339 25.0367 35.6336C24.7619 35.6353 24.4969 35.7355 24.2897 35.9161L21.035 38.6852C20.8951 38.8042 20.7854 38.9546 20.7148 39.124C20.6441 39.2935 20.6145 39.4772 20.6283 39.6603C20.6422 39.8434 20.6991 40.0206 20.7944 40.1775C20.8898 40.3344 21.0208 40.4666 21.177 40.5632L24.801 42.8218C24.9837 42.9345 25.194 42.9946 25.4087 42.9955C25.6234 42.9963 25.8341 42.9378 26.0177 42.8265C26.2013 42.7152 26.3506 42.5553 26.4491 42.3646C26.5476 42.1738 26.5916 41.9595 26.576 41.7454L26.5128 40.8898L26.6896 40.8763C28.9412 40.7157 31.1367 40.1002 33.1436 39.0669C35.1504 38.0336 36.9268 36.604 38.3654 34.8646ZM26.4724 40.1791C26.3782 40.1848 26.2862 40.2093 26.2016 40.251C26.117 40.2927 26.0416 40.3508 25.9797 40.422C25.9178 40.4932 25.8707 40.576 25.8412 40.6656C25.8117 40.7552 25.8003 40.8497 25.8078 40.9438L25.871 41.7958C25.8772 41.8797 25.8601 41.9637 25.8216 42.0385C25.783 42.1133 25.7245 42.1759 25.6526 42.2195C25.5806 42.2631 25.498 42.2859 25.4138 42.2855C25.3297 42.285 25.2473 42.2612 25.1759 42.2168L21.5469 39.9597C21.4858 39.9219 21.4346 39.8702 21.3974 39.8088C21.3601 39.7474 21.3379 39.6781 21.3326 39.6065C21.3273 39.5349 21.339 39.4631 21.3667 39.3969C21.3944 39.3307 21.4374 39.2719 21.4922 39.2255L24.747 36.4565C24.811 36.4017 24.889 36.3658 24.9723 36.3527C25.0555 36.3397 25.1408 36.35 25.2185 36.3825C25.2963 36.4151 25.3634 36.4685 25.4126 36.537C25.4617 36.6055 25.4909 36.6862 25.4968 36.7703L25.5792 37.8751C25.5934 38.0624 25.6807 38.2366 25.8224 38.3601C25.964 38.4835 26.1485 38.5462 26.3361 38.5347C30.3605 38.2876 33.9895 36.4508 36.5541 33.3622C36.6827 33.2024 36.8676 33.0979 37.0708 33.0702C37.274 33.0424 37.4802 33.0936 37.6468 33.2131C37.7433 33.2787 37.8251 33.3638 37.8868 33.4628C37.9486 33.5619 37.989 33.6727 38.0054 33.7882C38.0189 33.8991 38.0095 34.0115 37.9776 34.1185C37.9457 34.2255 37.8921 34.3248 37.8201 34.4102C36.4165 36.0885 34.6873 37.465 32.7369 38.4565C30.7866 39.448 28.6555 40.034 26.4724 40.1791Z" fill="black"/>
<path d="M9.11246 26.5162L9.12524 26.693C9.2862 28.944 9.90187 31.1391 10.935 33.1454C11.9682 35.1518 13.3974 36.9279 15.1364 38.3664C15.2914 38.4948 15.4702 38.5915 15.6625 38.6508C15.8549 38.7102 16.0571 38.7311 16.2575 38.7123C16.458 38.6935 16.6527 38.6354 16.8307 38.5413C17.0087 38.4473 17.1664 38.3191 17.2949 38.1641C17.4233 38.009 17.5199 37.8302 17.5793 37.6379C17.6386 37.4455 17.6595 37.2433 17.6407 37.0429C17.6219 36.8425 17.5638 36.6477 17.4698 36.4697C17.3757 36.2918 17.2475 36.134 17.0925 36.0056C15.6783 34.8238 14.5154 33.3703 13.6727 31.7313C12.83 30.0922 12.3245 28.3008 12.1862 26.463L12.1734 26.2862L13.2853 26.2074C13.4998 26.1913 13.7056 26.1162 13.8801 25.9904C14.0545 25.8646 14.1908 25.693 14.2737 25.4945C14.3567 25.2961 14.3832 25.0786 14.3502 24.8661C14.3172 24.6536 14.2261 24.4543 14.0869 24.2903L11.3178 21.0349C11.1988 20.8951 11.0484 20.7854 10.879 20.7147C10.7095 20.644 10.5258 20.6144 10.3427 20.6283C10.1596 20.6421 9.98238 20.699 9.82547 20.7944C9.66856 20.8897 9.53641 21.0208 9.43978 21.1769L7.17904 24.8015C7.06333 24.9834 7.00128 25.1942 7.00002 25.4097C6.99876 25.6252 7.05835 25.8367 7.17194 26.0199C7.28166 26.2058 7.4416 26.357 7.63339 26.4561C7.82518 26.5552 8.04104 26.5982 8.25616 26.5801L9.11246 26.5162ZM7.77973 25.6536C7.73549 25.5818 7.71207 25.4992 7.71207 25.415C7.71207 25.3307 7.73549 25.2481 7.77973 25.1764L10.0369 21.5468C10.0748 21.4859 10.1266 21.4348 10.1879 21.3976C10.2493 21.3605 10.3186 21.3384 10.3901 21.333C10.4617 21.3277 10.5335 21.3393 10.5997 21.367C10.6659 21.3946 10.7246 21.4375 10.7711 21.4921L13.5402 24.7476C13.5946 24.8114 13.6303 24.889 13.6434 24.9719C13.6565 25.0547 13.6465 25.1395 13.6145 25.217C13.5825 25.2945 13.5297 25.3617 13.462 25.4112C13.3943 25.4606 13.3142 25.4904 13.2306 25.4973L12.1258 25.5797C11.9387 25.5944 11.7648 25.682 11.6415 25.8235C11.5181 25.965 11.4552 26.1492 11.4662 26.3366C11.7133 30.361 13.5502 33.9899 16.6388 36.5537C16.7987 36.6825 16.9033 36.8677 16.931 37.0711C16.9587 37.2746 16.9075 37.481 16.7879 37.6479C16.722 37.7436 16.6369 37.8246 16.538 37.8858C16.4391 37.9469 16.3286 37.9868 16.2135 38.0029C16.1805 38.0072 16.1473 38.0093 16.1141 38.0093C15.9226 38.0085 15.7375 37.9406 15.5908 37.8176C13.9128 36.4142 12.5366 34.6855 11.5451 32.7357C10.5535 30.7859 9.96733 28.6555 9.82178 26.4729C9.81604 26.3788 9.79159 26.2867 9.74988 26.2021C9.70816 26.1175 9.65001 26.0421 9.57882 25.9802C9.50763 25.9184 9.42483 25.8713 9.33525 25.8418C9.24566 25.8123 9.1511 25.8009 9.05707 25.8083L8.20504 25.8715C8.12088 25.8784 8.03649 25.8616 7.96136 25.8231C7.88622 25.7846 7.82332 25.7259 7.77973 25.6536Z" fill="#F39019"/>
<path d="M32.5053 32.0615L32.3335 32.0558V26.2429C32.3335 26.1487 32.2961 26.0584 32.2295 25.9919C32.163 25.9253 32.0727 25.8879 31.9785 25.8879C31.8843 25.8879 31.794 25.9253 31.7275 25.9919C31.6609 26.0584 31.6235 26.1487 31.6235 26.2429V32.0608H28.8487V17.6474H31.6235V22.6758C31.6235 22.7699 31.6609 22.8602 31.7275 22.9268C31.794 22.9934 31.8843 23.0308 31.9785 23.0308C32.0727 23.0308 32.163 22.9934 32.2295 22.9268C32.2961 22.8602 32.3335 22.7699 32.3335 22.6758V17.7582C32.3331 17.5414 32.2468 17.3335 32.0935 17.1802C31.9402 17.0269 31.7324 16.9406 31.5156 16.9402H28.9595C28.8518 16.9401 28.7453 16.9611 28.6458 17.0021C28.5463 17.0431 28.4559 17.1033 28.3797 17.1792C28.3034 17.2552 28.2429 17.3454 28.2016 17.4447C28.1602 17.5441 28.1388 17.6506 28.1387 17.7582V20.4754H25.4718C25.255 20.4758 25.0471 20.5621 24.8938 20.7154C24.7405 20.8687 24.6542 21.0765 24.6538 21.2934V24.0063H21.9869C21.7698 24.0063 21.5615 24.0926 21.4078 24.2461C21.2542 24.3996 21.1678 24.6078 21.1676 24.825V27.5422H18.5021C18.2853 27.5426 18.0775 27.6289 17.9241 27.7822C17.7708 27.9355 17.6845 28.1433 17.6842 28.3602V32.0601H17.5074C17.4132 32.0601 17.3229 32.0975 17.2563 32.164C17.1897 32.2306 17.1523 32.3209 17.1523 32.4151C17.1523 32.5092 17.1897 32.5995 17.2563 32.6661C17.3229 32.7327 17.4132 32.7701 17.5074 32.7701H32.489C32.5832 32.7716 32.6741 32.7356 32.7417 32.6701C32.8094 32.6046 32.8482 32.5149 32.8497 32.4208C32.8512 32.3266 32.8153 32.2357 32.7497 32.1681C32.6842 32.1004 32.5945 32.0616 32.5004 32.0601L32.5053 32.0615ZM21.169 32.0615H18.3942V28.2522H21.1676L21.169 32.0615ZM24.6538 32.0615H21.8776V24.7164H24.6538V32.0615ZM28.1387 32.0615H25.3639V21.1819H28.1387V32.0615Z" fill="black"/>
<path d="M23.1591 20.4783L23.7414 17.8739C23.7752 17.7207 23.7742 17.5619 23.7387 17.4091C23.7031 17.2563 23.6338 17.1133 23.5358 16.9908C23.4379 16.8683 23.3137 16.7692 23.1725 16.7008C23.0313 16.6325 22.8765 16.5967 22.7196 16.5959C22.68 16.5961 22.6404 16.5985 22.601 16.603L19.9484 16.8962C19.7566 16.9175 19.5745 16.9913 19.4219 17.1093C19.2693 17.2273 19.1522 17.3851 19.0833 17.5654C19.0145 17.7456 18.9967 17.9413 19.0318 18.131C19.0669 18.3207 19.1536 18.4971 19.2824 18.6407L20.0804 19.5332L17.2233 22.0893C17.1532 22.1522 17.111 22.2403 17.106 22.3343C17.1009 22.4283 17.1334 22.5205 17.1963 22.5906C17.2272 22.6256 17.2648 22.6541 17.3068 22.6743C17.3489 22.6945 17.3946 22.7061 17.4413 22.7084C17.4878 22.711 17.5344 22.7043 17.5784 22.6888C17.6224 22.6734 17.6629 22.6494 17.6976 22.6183L20.554 20.0586L21.3528 20.9533C21.4816 21.0968 21.6475 21.2021 21.8322 21.2575C22.0169 21.313 22.2133 21.3166 22.3999 21.2678C22.5865 21.219 22.7561 21.1198 22.89 20.9811C23.0239 20.8423 23.117 20.6693 23.1591 20.4811V20.4783ZM22.2205 20.5791C22.1924 20.5864 22.1636 20.5903 22.1346 20.5904C22.0866 20.5903 22.0393 20.5801 21.9956 20.5604C21.9519 20.5407 21.9129 20.512 21.8811 20.4761L19.8113 18.1657C19.7747 18.1253 19.7483 18.0766 19.7345 18.0238C19.7207 17.971 19.7198 17.9156 19.732 17.8624C19.7442 17.8092 19.7691 17.7598 19.8046 17.7182C19.84 17.6767 19.885 17.6444 19.9356 17.624V17.6162L19.9683 17.6069L20.0982 17.592C22.6948 17.308 22.7054 17.308 22.7189 17.308C22.7697 17.3083 22.8198 17.3199 22.8655 17.3421C22.9112 17.3643 22.9513 17.3964 22.983 17.4361C23.0146 17.4758 23.037 17.522 23.0485 17.5715C23.0599 17.621 23.0601 17.6724 23.0491 17.722L22.4676 20.327C22.4535 20.3877 22.423 20.4433 22.3795 20.4878C22.3359 20.5323 22.2809 20.5638 22.2205 20.5791Z" fill="#F39019"/>
<path d="M38.6857 28.968C38.8047 29.1076 38.9551 29.2172 39.1246 29.2878C39.294 29.3584 39.4777 29.3879 39.6607 29.3741C39.8438 29.3603 40.021 29.3034 40.1779 29.2081C40.3348 29.1129 40.467 28.9819 40.5637 28.8259L42.8216 25.1992C42.9344 25.0164 42.9945 24.806 42.9953 24.5913C42.9961 24.3765 42.9376 24.1657 42.8262 23.9821C42.7148 23.7985 42.5548 23.6492 42.3639 23.5508C42.173 23.4523 41.9587 23.4085 41.7445 23.4241L40.8889 23.4873L40.8761 23.3105C40.7235 21.2388 40.1863 19.2136 39.292 17.3386C39.2515 17.2537 39.179 17.1883 39.0904 17.1568C39.0242 17.1333 38.9525 17.1299 38.8844 17.1471C38.8163 17.1643 38.7549 17.2013 38.7078 17.2535C38.6608 17.3056 38.6303 17.3705 38.6201 17.44C38.61 17.5095 38.6207 17.5805 38.6509 17.6439C39.5318 19.4905 40.0508 21.4887 40.1796 23.5306C40.1853 23.6248 40.2097 23.7168 40.2515 23.8014C40.2932 23.886 40.3513 23.9615 40.4225 24.0233C40.4937 24.0852 40.5765 24.1323 40.6661 24.1618C40.7557 24.1913 40.8502 24.2027 40.9443 24.1952L41.7963 24.132C41.8803 24.1257 41.9644 24.1428 42.0393 24.1813C42.1142 24.2199 42.177 24.2785 42.2206 24.3506C42.2642 24.4227 42.287 24.5054 42.2864 24.5897C42.2859 24.6739 42.2619 24.7564 42.2174 24.8278L39.9602 28.4567C39.9222 28.5177 39.8704 28.5688 39.8089 28.6059C39.7475 28.6431 39.6782 28.6652 39.6066 28.6705C39.535 28.6758 39.4632 28.6642 39.3969 28.6366C39.3307 28.6089 39.2719 28.566 39.2253 28.5114L36.4562 25.2567C36.4006 25.1926 36.3641 25.1143 36.3506 25.0306C36.3371 24.9469 36.3472 24.8611 36.3799 24.7829C36.4125 24.7046 36.4662 24.637 36.5352 24.5876C36.6041 24.5382 36.6854 24.5091 36.77 24.5034L37.8748 24.421C38.0619 24.4063 38.2358 24.3188 38.3592 24.1772C38.4825 24.0357 38.5454 23.8515 38.5344 23.6641C38.418 21.6976 37.8988 19.776 37.009 18.0185C36.1192 16.261 34.8778 14.7049 33.3618 13.447C33.202 13.3183 33.0974 13.1333 33.0696 12.93C33.0417 12.7267 33.0927 12.5205 33.212 12.3535C33.2782 12.2578 33.3636 12.1767 33.4627 12.1156C33.5618 12.0545 33.6725 12.0146 33.7879 11.9985C33.8987 11.9851 34.0111 11.9946 34.1181 12.0265C34.2251 12.0584 34.3244 12.1119 34.4098 12.1839C35.5717 13.1527 36.5918 14.2799 37.4403 15.5323C37.4931 15.6103 37.5747 15.664 37.6672 15.6818C37.7597 15.6996 37.8554 15.6799 37.9334 15.6271C38.0113 15.5743 38.0651 15.4926 38.0829 15.4002C38.1007 15.3077 38.081 15.2119 38.0282 15.134C37.1423 13.8266 36.0772 12.6499 34.8643 11.6386C34.5501 11.3955 34.1537 11.284 33.7589 11.3275C33.364 11.3711 33.0015 11.5662 32.7478 11.8719C32.4941 12.1775 32.369 12.5698 32.3989 12.9659C32.4288 13.362 32.6114 13.731 32.9081 13.9951C34.3225 15.1768 35.4854 16.6302 36.3282 18.2693C37.1709 19.9084 37.6763 21.6999 37.8144 23.5377L37.8272 23.7145L36.7153 23.7933C36.5008 23.8094 36.295 23.8845 36.1206 24.0103C35.9461 24.1361 35.8099 24.3077 35.7269 24.5062C35.6439 24.7046 35.6175 24.9221 35.6504 25.1346C35.6834 25.3472 35.7745 25.5464 35.9137 25.7104L38.6857 28.968Z" fill="#F39019"/>
<path d="M31.9761 24.1129C31.9059 24.1129 31.8373 24.1337 31.7789 24.1727C31.7205 24.2117 31.675 24.2671 31.6481 24.332C31.6212 24.3969 31.6142 24.4683 31.6279 24.5371C31.6416 24.606 31.6754 24.6692 31.7251 24.7189C31.7747 24.7685 31.838 24.8024 31.9068 24.8161C31.9757 24.8297 32.0471 24.8227 32.112 24.7958C32.1768 24.769 32.2323 24.7235 32.2713 24.6651C32.3103 24.6067 32.3311 24.5381 32.3311 24.4679C32.3311 24.3737 32.2937 24.2834 32.2271 24.2168C32.1606 24.1503 32.0703 24.1129 31.9761 24.1129Z" fill="#F39019"/>
</g>
<defs>
<clipPath id="clip0_1856_48">
<rect width="36" height="36" fill="white" transform="translate(7 7)"/>
</clipPath>
</defs>
</svg>
