<svg width="50" height="50" viewBox="0 0 50 50" fill="none" xmlns="http://www.w3.org/2000/svg">
<rect opacity="0.15" width="50" height="50" rx="12" fill="#F39019" fill-opacity="0.42"/>
<g clip-path="url(#clip0_1856_47)">
<path d="M14.9326 19.8755V23.085L13.7081 22.1281C13.608 22.0501 13.4846 22.0077 13.3576 22.0077C13.2306 22.0077 13.1072 22.0501 13.0071 22.1281L11.7827 23.085V19.8755H10.957V23.614C10.9577 23.764 11.0177 23.9078 11.1239 24.0139C11.2301 24.12 11.374 24.1799 11.5242 24.1806C11.7786 24.1806 11.7277 24.1745 13.3556 22.9021C14.9615 24.1572 14.9264 24.1806 15.1869 24.1806C15.3379 24.1804 15.4826 24.1205 15.5894 24.0139C15.6963 23.9073 15.7564 23.7628 15.7567 23.6119V19.8755H14.9326Z" fill="#F39019"/>
<path d="M33.2725 28.7534L33.2572 28.7362L31.4056 26.8855C31.3633 26.8431 31.3132 26.8096 31.2579 26.7867C31.2026 26.7639 31.1434 26.7522 31.0835 26.7523C30.9711 26.7515 30.8623 26.7924 30.7783 26.8672L30.761 26.8824V26.8875H30.757L25.208 32.431C25.1654 32.473 25.1316 32.5231 25.1087 32.5783C25.0857 32.6336 25.074 32.6928 25.0742 32.7526V34.6008C25.0742 34.7221 25.1225 34.8384 25.2083 34.9242C25.2942 35.0099 25.4106 35.0581 25.5321 35.0581H27.3827C27.4425 35.0583 27.5018 35.0466 27.5571 35.0237C27.6123 35.0009 27.6625 34.9673 27.7047 34.925L33.2557 29.3795C33.3377 29.2968 33.3851 29.1861 33.3882 29.0698C33.3913 28.9535 33.35 28.8403 33.2725 28.7534ZM25.9863 34.146V32.9411L31.0815 27.851L32.2877 29.0558L27.192 34.146H25.9863Z" fill="#F39019"/>
<path d="M25.319 19.1687H10.7039C9.72241 19.1712 8.78187 19.5618 8.08783 20.255C7.39378 20.9482 7.00269 21.8877 7 22.8681V37.4673C7.00269 38.4478 7.39386 39.3874 8.08801 40.0806C8.78217 40.7738 9.72283 41.1643 10.7044 41.1667H33.4379C34.4195 41.1641 35.3602 40.7734 36.0543 40.08C36.7483 39.3866 37.1393 38.4469 37.1418 37.4663V26.1121C37.1418 25.9908 37.0935 25.8745 37.0077 25.7887C36.9218 25.703 36.8053 25.6548 36.6839 25.6548C36.5625 25.6548 36.446 25.703 36.3602 25.7887C36.2743 25.8745 36.2261 25.9908 36.2261 26.1121V37.4668C36.2246 38.206 35.93 38.9146 35.4068 39.4373C34.8836 39.9601 34.1743 40.2545 33.4343 40.2561H10.6998C9.9605 40.2535 9.25225 39.9588 8.72981 39.4362C8.20737 38.9137 7.9132 38.2058 7.91159 37.4673V22.8681C7.91321 22.129 8.20779 21.4207 8.73089 20.8981C9.25399 20.3754 9.96302 20.0811 10.7029 20.0793H25.3184C25.4399 20.0793 25.5563 20.0311 25.6422 19.9454C25.728 19.8596 25.7763 19.7433 25.7763 19.622C25.7752 19.5015 25.7266 19.3863 25.6409 19.3014C25.5553 19.2165 25.4396 19.1688 25.319 19.1687Z" fill="#424242"/>
<path d="M22.3927 28.6844H11.4637C11.1839 28.6844 10.957 28.911 10.957 29.1905C10.957 29.47 11.1839 29.6966 11.4637 29.6966H22.3927C22.6725 29.6966 22.8994 29.47 22.8994 29.1905C22.8994 28.911 22.6725 28.6844 22.3927 28.6844Z" fill="#424242"/>
<path d="M17.8703 26.0043H11.4637C11.1839 26.0043 10.957 26.2309 10.957 26.5105C10.957 26.79 11.1839 27.0166 11.4637 27.0166H17.8703C18.1502 27.0166 18.377 26.79 18.377 26.5105C18.377 26.2309 18.1502 26.0043 17.8703 26.0043Z" fill="#424242"/>
<path d="M22.3927 31.3639H11.4637C11.1839 31.3639 10.957 31.5905 10.957 31.87C10.957 32.1495 11.1839 32.3761 11.4637 32.3761H22.3927C22.6725 32.3761 22.8994 32.1495 22.8994 31.87C22.8994 31.5905 22.6725 31.3639 22.3927 31.3639Z" fill="#424242"/>
<path d="M22.3927 34.0439H11.4637C11.1839 34.0439 10.957 34.2705 10.957 34.55C10.957 34.8295 11.1839 35.0561 11.4637 35.0561H22.3927C22.6725 35.0561 22.8994 34.8295 22.8994 34.55C22.8994 34.2705 22.6725 34.0439 22.3927 34.0439Z" fill="#424242"/>
<path d="M32.8318 36.8799H11.4627C11.1834 36.8799 10.957 37.106 10.957 37.385V37.387C10.957 37.666 11.1834 37.8921 11.4627 37.8921H32.8318C33.1111 37.8921 33.3375 37.666 33.3375 37.387V37.385C33.3375 37.106 33.1111 36.8799 32.8318 36.8799Z" fill="#F39019"/>
<path d="M41.9858 15.9882C41.9256 14.1566 41.168 12.4171 39.8675 11.1246C39.1953 10.449 38.3956 9.9134 37.5147 9.54871C36.6338 9.18402 35.6893 8.99752 34.7357 9.00002C30.8217 9.00002 27.624 12.112 27.4862 15.9882C27.184 16.1214 26.927 16.3394 26.7464 16.6157C26.5658 16.892 26.4694 17.2147 26.4688 17.5446V19.4563C26.4692 19.9079 26.6489 20.3408 26.9685 20.6601C27.288 20.9795 27.7214 21.1591 28.1734 21.1596C28.4662 21.1596 28.7471 21.0435 28.9542 20.8367C29.1613 20.6299 29.2777 20.3494 29.2778 20.0569V16.943C29.2769 16.6702 29.1746 16.4076 28.9907 16.206C28.8069 16.0043 28.5546 15.8782 28.2828 15.852C28.4863 12.4748 31.303 9.7897 34.7347 9.7897C35.5844 9.78762 36.4261 9.95389 37.2111 10.2789C37.9961 10.6039 38.7088 11.0812 39.3079 11.6831C40.4254 12.7952 41.0938 14.2794 41.1856 15.8525C40.9142 15.879 40.6623 16.0053 40.4787 16.2068C40.2952 16.4082 40.193 16.6706 40.1921 16.943V20.0569C40.1929 20.332 40.2969 20.5967 40.4836 20.7989C40.6702 21.001 40.926 21.126 41.2003 21.149V21.9371C41.1998 22.3632 41.0301 22.7716 40.7284 23.0729C40.4268 23.3741 40.0178 23.5435 39.5913 23.5439H38.3999C38.342 23.3751 38.2467 23.2216 38.1211 23.0947C38.0104 22.9831 37.8786 22.8947 37.7334 22.8345C37.5882 22.7743 37.4324 22.7436 37.2752 22.7441H36.0466C35.8738 22.7436 35.7029 22.7811 35.5461 22.8538C35.3387 22.9496 35.163 23.1026 35.0398 23.2948C34.9165 23.4871 34.8509 23.7105 34.8507 23.9387C34.8501 24.0957 34.8809 24.2512 34.941 24.3962C35.0012 24.5412 35.0896 24.6728 35.2012 24.7833C35.3118 24.8948 35.4435 24.9832 35.5887 25.0434C35.7338 25.1035 35.8895 25.1343 36.0466 25.1339H37.2752C37.5223 25.1325 37.763 25.0549 37.9644 24.9117C38.1658 24.7686 38.318 24.5669 38.4004 24.3341H39.5913C40.2277 24.3337 40.838 24.0811 41.2881 23.6317C41.7383 23.1823 41.9916 22.5729 41.9924 21.9371V21.0087C42.2924 20.8745 42.5471 20.6565 42.726 20.3809C42.9049 20.1054 43.0002 19.7842 43.0006 19.4558V17.5441C42.9999 17.2143 42.9034 16.8917 42.7228 16.6155C42.5422 16.3393 42.2853 16.1214 41.9832 15.9882H41.9858ZM28.4878 16.943V20.0569C28.4877 20.1397 28.4547 20.2189 28.3962 20.2774C28.3376 20.3359 28.2582 20.3688 28.1755 20.369C27.9326 20.369 27.6997 20.2726 27.528 20.1011C27.3563 19.9295 27.2598 19.6969 27.2598 19.4543V17.5441C27.2598 17.3015 27.3563 17.0689 27.528 16.8974C27.6997 16.7258 27.9326 16.6295 28.1755 16.6295C28.2582 16.6296 28.3376 16.6625 28.3962 16.721C28.4547 16.7795 28.4877 16.8587 28.4878 16.9415V16.943ZM37.6714 24.0231C37.6519 24.1139 37.6018 24.1953 37.5296 24.2537C37.4573 24.3122 37.3671 24.3441 37.2741 24.3442H36.0461C35.9928 24.3443 35.9399 24.3338 35.8907 24.3133C35.8414 24.2928 35.7967 24.2627 35.7592 24.2248C35.7214 24.1874 35.6913 24.1429 35.6709 24.0938C35.6504 24.0446 35.64 23.9919 35.6402 23.9387C35.6405 23.8612 35.6631 23.7853 35.7052 23.7201C35.7472 23.6549 35.8071 23.6031 35.8777 23.5708C35.9305 23.5463 35.988 23.5338 36.0461 23.5342H37.2741C37.3275 23.5341 37.3803 23.5445 37.4296 23.5649C37.4788 23.5853 37.5235 23.6153 37.561 23.6532C37.5987 23.6906 37.6286 23.7351 37.6489 23.7841C37.6692 23.8331 37.6797 23.8857 37.6796 23.9387C37.68 23.9671 37.6773 23.9954 37.6714 24.0231ZM42.2086 19.4563C42.2086 19.6989 42.1121 19.9316 41.9404 20.1031C41.7687 20.2746 41.5358 20.371 41.2929 20.371C41.2101 20.3709 41.1307 20.3379 41.0722 20.2795C41.0137 20.221 40.9807 20.1417 40.9806 20.059V16.943C40.9807 16.8603 41.0137 16.781 41.0722 16.7225C41.1307 16.664 41.2101 16.6311 41.2929 16.631C41.5358 16.631 41.7687 16.7273 41.9404 16.8989C42.1121 17.0704 42.2086 17.3031 42.2086 17.5457V19.4563Z" fill="#424242"/>
<path d="M38.8373 19.6504C38.7555 18.892 38.4647 18.1711 37.9971 17.5679C37.5295 16.9648 36.9036 16.503 36.189 16.2341C36.4473 16.0204 36.6552 15.7526 36.7982 15.4496C36.9412 15.1466 37.0156 14.8159 37.0162 14.481C37.0155 13.8768 36.7749 13.2975 36.3471 12.8703C35.9194 12.4431 35.3395 12.2029 34.7346 12.2024C34.1299 12.2031 33.5501 12.4433 33.1224 12.8705C32.6948 13.2977 32.4543 13.8768 32.4536 14.481C32.4542 14.8159 32.5286 15.1465 32.6715 15.4495C32.8143 15.7524 33.0222 16.0203 33.2802 16.2341C32.5661 16.5034 31.9408 16.9654 31.4738 17.5685C31.0068 18.1716 30.7165 18.8923 30.635 19.6504C30.6292 19.7053 30.635 19.7608 30.652 19.8133C30.669 19.8658 30.6968 19.9142 30.7337 19.9553C30.7707 19.9963 30.8159 20.0291 30.8663 20.0516C30.9168 20.0741 30.9714 20.0858 31.0267 20.0859H38.4477C38.5026 20.0856 38.5569 20.0738 38.607 20.0514C38.6571 20.0289 38.7019 19.9961 38.7386 19.9553C38.7755 19.9142 38.8033 19.8658 38.8203 19.8133C38.8373 19.7608 38.8431 19.7053 38.8373 19.6504ZM34.7306 16.7595H34.7356C35.4822 16.7612 36.2068 17.0122 36.7942 17.4726C37.3815 17.933 37.7979 18.5763 37.9771 19.3003H31.4921C31.6715 18.5771 32.0875 17.9345 32.6742 17.4744C33.261 17.0144 33.9847 16.7633 34.7306 16.761V16.7595ZM34.7336 15.9719C34.3388 15.9704 33.9606 15.8129 33.6817 15.5339C33.4027 15.2548 33.2456 14.8769 33.2446 14.4825C33.2456 14.088 33.4028 13.7099 33.682 13.4309C33.9613 13.1519 34.3397 12.9947 34.7346 12.9936C35.1304 12.994 35.5098 13.1512 35.7897 13.4307C36.0696 13.7102 36.2271 14.0892 36.2277 14.4845C36.2265 14.8796 36.0685 15.2582 35.7885 15.5372C35.5085 15.8163 35.1292 15.9731 34.7336 15.9734V15.9719Z" fill="#F39019"/>
</g>
<defs>
<clipPath id="clip0_1856_47">
<rect width="36" height="32.1667" fill="white" transform="translate(7 9)"/>
</clipPath>
</defs>
</svg>
