<svg width="50" height="50" viewBox="0 0 50 50" fill="none" xmlns="http://www.w3.org/2000/svg">
<rect opacity="0.15" width="50" height="50" rx="12" fill="#F39019" fill-opacity="0.42"/>
<g clip-path="url(#clip0_1856_45)">
<path d="M35.7372 15.8926C35.6896 15.8513 35.6344 15.8198 35.5746 15.7999C35.5149 15.78 35.4518 15.7721 35.389 15.7766C35.3262 15.7812 35.2649 15.7981 35.2086 15.8263C35.1524 15.8546 35.1022 15.8937 35.0611 15.9414L32.7175 18.6456L31.2534 17.4941C31.2047 17.4501 31.1475 17.4166 31.0853 17.3957C31.0231 17.3747 30.9572 17.3668 30.8918 17.3724C30.8265 17.3779 30.7629 17.3968 30.7051 17.4279C30.6473 17.4591 30.5966 17.5017 30.5559 17.5533C30.5153 17.6048 30.4857 17.6641 30.469 17.7276C30.4522 17.7911 30.4487 17.8573 30.4586 17.9221C30.4685 17.987 30.4916 18.0492 30.5265 18.1048C30.5614 18.1603 30.6074 18.2081 30.6615 18.2452L32.4838 19.6785C32.5334 19.7179 32.5903 19.747 32.6512 19.7643C32.7121 19.7816 32.7758 19.7867 32.8386 19.7792C32.9015 19.7717 32.9622 19.7519 33.0174 19.7208C33.0725 19.6897 33.121 19.648 33.1599 19.5981V19.5943L35.7845 16.5619C35.866 16.4664 35.9067 16.3427 35.8978 16.2175C35.8889 16.0923 35.8313 15.9756 35.7372 15.8926Z" fill="#424242"/>
<path d="M14.3081 14.1574H18.529C18.6563 14.1574 18.7784 14.1068 18.8684 14.0168C18.9584 13.9268 19.009 13.8047 19.009 13.6774C19.009 13.5501 18.9584 13.428 18.8684 13.338C18.7784 13.248 18.6563 13.1974 18.529 13.1974H14.3081C14.1808 13.1974 14.0587 13.248 13.9687 13.338C13.8787 13.428 13.8281 13.5501 13.8281 13.6774C13.8281 13.8047 13.8787 13.9268 13.9687 14.0168C14.0587 14.1068 14.1808 14.1574 14.3081 14.1574Z" fill="#424242"/>
<path d="M38.5639 18.6937C38.7446 17.6308 38.606 16.5383 38.1657 15.5542C37.7254 14.57 37.0032 13.7386 36.0904 13.1649C35.1776 12.5912 34.1152 12.3011 33.0375 12.3312C31.9598 12.3613 30.9152 12.7103 30.0359 13.3341C29.1564 13.9579 28.4817 14.8286 28.097 15.8359C27.7124 16.8432 27.635 17.9419 27.8748 18.9932C28.1145 20.0445 28.6606 21.001 29.444 21.7419C30.2274 22.4828 31.2129 22.9748 32.2759 23.1557C33.7014 23.3974 35.1645 23.0632 36.3437 22.2265C37.5228 21.3898 38.3214 20.1191 38.5639 18.6937ZM35.7884 21.4468C34.8252 22.1314 33.6305 22.4079 32.4644 22.216C32.4459 22.2115 32.4271 22.2082 32.4081 22.2062C31.2435 21.9919 30.2105 21.3267 29.5337 20.355C28.8568 19.3834 28.5908 18.1839 28.7933 17.0173C28.9959 15.8506 29.6508 14.811 30.6155 14.1244C31.5803 13.4378 32.7771 13.1598 33.9457 13.3506C35.1159 13.5495 36.1599 14.2034 36.8495 15.1695C37.5392 16.1356 37.8185 17.3353 37.6265 18.5067C37.6227 18.5247 37.619 18.5435 37.6167 18.563C37.4122 19.7283 36.7549 20.7652 35.7884 21.4475V21.4468Z" fill="#F39019"/>
<path d="M28.3198 34.8439H26.9166V27.5861C26.9166 27.459 26.8661 27.3371 26.7762 27.2472C26.6863 27.1573 26.5644 27.1068 26.4373 27.1068H23.5746C23.4475 27.1068 23.3256 27.1573 23.2357 27.2472C23.1459 27.3371 23.0954 27.459 23.0954 27.5861V34.8439H16.1185V29.2514C16.1185 29.1242 16.068 29.0023 15.9781 28.9123C15.8883 28.8223 15.7664 28.7716 15.6392 28.7714H12.7773C12.6499 28.7714 12.5279 28.822 12.4378 28.912C12.3478 29.002 12.2973 29.1241 12.2973 29.2514V34.8439H10.8941C10.7668 34.8439 10.6447 34.8945 10.5547 34.9845C10.4646 35.0745 10.4141 35.1966 10.4141 35.3239C10.4141 35.4512 10.4646 35.5733 10.5547 35.6633C10.6447 35.7533 10.7668 35.8039 10.8941 35.8039H28.3213C28.3843 35.8039 28.4467 35.7915 28.505 35.7674C28.5632 35.7432 28.6161 35.7079 28.6607 35.6633C28.7053 35.6187 28.7406 35.5658 28.7647 35.5076C28.7889 35.4493 28.8013 35.3869 28.8013 35.3239C28.8013 35.2609 28.7889 35.1984 28.7647 35.1402C28.7406 35.082 28.7053 35.0291 28.6607 34.9845C28.6161 34.9399 28.5632 34.9046 28.505 34.8804C28.4467 34.8563 28.3843 34.8439 28.3213 34.8439H28.3198ZM15.1592 34.8439H13.2565V29.7314H15.1592V34.8439ZM25.9573 34.8439H24.0546V28.0661H25.9573V34.8439Z" fill="#424242"/>
<path d="M41.1165 33.1913L42.1959 32.5671C42.5908 32.3375 42.8788 31.9609 42.9968 31.5196C43.1147 31.0783 43.0531 30.6082 42.8254 30.2122L40.3465 25.9222C40.1691 25.6149 39.9006 25.3703 39.5781 25.2221C39.3676 25.125 39.1397 25.0711 38.908 25.0636L38.0667 23.5898C39.3184 22.5342 40.195 21.102 40.5656 19.507C40.9361 17.9121 40.7807 16.24 40.1226 14.7407C39.4644 13.2414 38.3389 11.9952 36.9141 11.1883C35.4893 10.3815 33.8416 10.0572 32.2173 10.264V9.39568C32.2167 9.02571 32.0695 8.67105 31.8079 8.40944C31.5463 8.14783 31.1916 8.0006 30.8216 8H11.1139C11.043 8.00022 10.973 8.01625 10.9091 8.04692C10.8451 8.07758 10.7888 8.12212 10.7443 8.17728L7.13867 12.5468V12.5514C7.13352 12.5563 7.12875 12.5615 7.12439 12.5671C7.10695 12.5877 7.09112 12.6095 7.07707 12.6325C7.06894 12.6455 7.06167 12.6591 7.05529 12.673C7.03265 12.7204 7.01793 12.7712 7.01172 12.8233V12.8466V12.8578V12.8691V38.2497C7.01251 38.6198 7.15992 38.9744 7.42165 39.236C7.68338 39.4976 8.03811 39.6448 8.40815 39.6454H9.90298V40.7617C9.90397 41.1317 10.0514 41.4863 10.3131 41.748C10.5748 42.0097 10.9294 42.1571 11.2994 42.1581H33.7122C34.0822 42.1573 34.4369 42.0099 34.6984 41.7482C34.96 41.4864 35.1072 41.1317 35.1078 40.7617V25.117C35.1679 25.1012 35.228 25.0847 35.2874 25.0674L36.2489 26.6058C36.1404 26.8127 36.0747 27.0393 36.0558 27.2721C36.0275 27.6198 36.1061 27.9679 36.2812 28.2697L38.76 32.5588C38.9891 32.9547 39.3658 33.2436 39.8075 33.3621C40.2493 33.4807 40.72 33.4193 41.1165 33.1913ZM10.7435 9.67962V11.9654C10.7428 12.0811 10.6963 12.1918 10.6143 12.2734C10.5322 12.355 10.4213 12.4009 10.3056 12.4011H8.49679L10.7435 9.67962ZM8.39688 38.6854C8.28144 38.6848 8.17089 38.6388 8.0892 38.5572C8.0075 38.4756 7.96124 38.3652 7.96045 38.2497V13.3604H10.3056C10.6758 13.3602 11.0308 13.2132 11.2928 12.9518C11.5549 12.6903 11.7026 12.3356 11.7035 11.9654V8.96075H30.8209C30.9365 8.96134 31.0471 9.00751 31.1288 9.08923C31.2106 9.17095 31.2567 9.28162 31.2573 9.39718V10.4488C29.9655 10.7913 28.7868 11.4684 27.8403 12.412C26.8937 13.3555 26.2128 14.532 25.8662 15.8227C25.6078 16.7843 25.5421 17.7874 25.6726 18.7745C25.8032 19.7616 26.1276 20.7131 26.6271 21.5744L26.6421 21.6007C26.7172 21.7352 26.8021 21.8659 26.8878 21.9944L25.7647 23.022C25.4895 22.8658 25.1727 22.7985 24.8577 22.8294C24.5428 22.8604 24.2451 22.988 24.0055 23.1947L21.1022 21.4513C21.1552 21.2187 21.1531 20.977 21.0961 20.7454C21.0391 20.5138 20.9289 20.2987 20.7741 20.1172C20.6193 19.9358 20.4243 19.793 20.2046 19.7002C19.9848 19.6074 19.7465 19.5672 19.5085 19.5829C19.2705 19.5985 19.0394 19.6695 18.8337 19.7902C18.628 19.9109 18.4533 20.0779 18.3236 20.2781C18.1938 20.4782 18.1126 20.7059 18.0864 20.9429C18.0602 21.18 18.0898 21.4199 18.1726 21.6436L15.0515 24.1224C14.7572 23.9289 14.4051 23.8428 14.0546 23.8786C13.7042 23.9145 13.3768 24.0701 13.1278 24.3192L13.1037 24.344L11.1109 23.3975C11.0537 23.3675 10.991 23.3494 10.9266 23.3441C10.8622 23.3389 10.7974 23.3467 10.7361 23.3672C10.6748 23.3876 10.6183 23.4202 10.5699 23.463C10.5215 23.5058 10.4822 23.5579 10.4544 23.6162C10.4267 23.6745 10.4109 23.7379 10.4082 23.8024C10.4055 23.867 10.4159 23.9314 10.4387 23.9919C10.4614 24.0523 10.4962 24.1076 10.5408 24.1543C10.5855 24.201 10.6391 24.2382 10.6985 24.2636L12.6898 25.2124C12.682 25.2764 12.678 25.3409 12.6778 25.4054C12.6776 25.6296 12.7267 25.8511 12.8214 26.0543C12.9162 26.2574 13.0543 26.4373 13.2262 26.5813C13.3981 26.7253 13.5994 26.8297 13.816 26.8874C14.0327 26.9451 14.2593 26.9545 14.48 26.915C14.7007 26.8756 14.91 26.7882 15.0932 26.659C15.2764 26.5298 15.4291 26.362 15.5404 26.1674C15.6517 25.9728 15.7189 25.7562 15.7374 25.5327C15.7559 25.3093 15.7251 25.0846 15.6472 24.8743L18.7683 22.3955C19.0469 22.5781 19.3773 22.665 19.7096 22.6431C20.042 22.6211 20.3581 22.4915 20.6102 22.2738L23.5135 24.0165C23.4888 24.128 23.4762 24.2418 23.4759 24.356C23.4752 24.5848 23.5256 24.8109 23.6236 25.0176C23.7216 25.2243 23.8647 25.4065 24.0422 25.5507C24.2198 25.6949 24.4275 25.7975 24.6499 25.8511C24.8723 25.9046 25.1039 25.9076 25.3277 25.8599C25.5514 25.8122 25.7616 25.7151 25.9429 25.5755C26.1242 25.436 26.272 25.2576 26.3754 25.0536C26.4787 24.8495 26.5351 24.6248 26.5403 24.3961C26.5455 24.1674 26.4995 23.9404 26.4055 23.7318L27.4684 22.759C28.4597 23.9 29.7699 24.7178 31.2303 25.1072L31.2558 25.1132V38.2497C31.255 38.3652 31.2088 38.4756 31.1271 38.5572C31.0454 38.6388 30.9348 38.6848 30.8194 38.6854H8.39688ZM25.58 24.3538C25.5798 24.486 25.5339 24.6141 25.4499 24.7162C25.3659 24.8184 25.2491 24.8882 25.1194 24.9139C24.9897 24.9396 24.8551 24.9196 24.7386 24.8572C24.622 24.7948 24.5306 24.6939 24.4801 24.5717C24.4296 24.4496 24.4229 24.3136 24.4613 24.1871C24.4998 24.0606 24.5808 23.9513 24.6908 23.8779C24.8007 23.8044 24.9327 23.7714 25.0643 23.7843C25.1959 23.7973 25.3189 23.8554 25.4124 23.9489C25.4658 24.0019 25.5081 24.065 25.5368 24.1345C25.5656 24.204 25.5802 24.2786 25.58 24.3538ZM20.1813 21.1125C20.1811 21.2447 20.1352 21.3728 20.0512 21.4749C19.9672 21.5771 19.8505 21.6469 19.7208 21.6726C19.5911 21.6983 19.4565 21.6783 19.3399 21.6159C19.2233 21.5535 19.132 21.4526 19.0814 21.3304C19.0309 21.2082 19.0242 21.0723 19.0627 20.9458C19.1011 20.8193 19.1822 20.71 19.2921 20.6366C19.402 20.5631 19.5341 20.53 19.6656 20.543C19.7972 20.5559 19.9203 20.6141 20.0138 20.7076C20.1209 20.8151 20.1811 20.9607 20.1813 21.1125ZM14.7819 25.4054C14.7819 25.5377 14.7361 25.6659 14.6522 25.7681C14.5683 25.8704 14.4516 25.9404 14.3219 25.9662C14.1922 25.9921 14.0575 25.9721 13.9409 25.9098C13.8242 25.8475 13.7328 25.7467 13.6821 25.6245C13.6315 25.5023 13.6248 25.3664 13.6631 25.2398C13.7015 25.1132 13.7826 25.0039 13.8925 24.9304C14.0025 24.8569 14.1345 24.8238 14.2661 24.8367C14.3977 24.8496 14.5208 24.9078 14.6143 25.0013C14.6675 25.0543 14.7097 25.1173 14.7384 25.1867C14.7671 25.256 14.7819 25.3304 14.7819 25.4054ZM34.1486 40.7617C34.148 40.8772 34.1018 40.9879 34.0201 41.0696C33.9384 41.1513 33.8277 41.1975 33.7122 41.1981H11.2881C11.1726 41.1975 11.0619 41.1513 10.9802 41.0696C10.8985 40.9879 10.8523 40.8772 10.8517 40.7617V39.6454H30.8209C31.1908 39.6444 31.5453 39.4971 31.807 39.2356C32.0686 38.9741 32.2161 38.6197 32.2173 38.2497V25.2995C32.8584 25.3822 33.5075 25.3822 34.1486 25.2995V40.7617ZM34.558 24.2629C34.54 24.2629 34.5219 24.2697 34.5046 24.2742C33.6316 24.4502 32.732 24.4482 31.8598 24.2682L31.8132 24.2584C31.7013 24.2351 31.5878 24.2081 31.4797 24.1788C30.6391 23.9554 29.8509 23.5682 29.1604 23.0394C28.4698 22.5107 27.8905 21.8507 27.4556 21.0975V21.0922C26.9345 20.187 26.6347 19.1715 26.5806 18.1285C26.5265 17.0854 26.7197 16.0443 27.1444 15.0901C27.5692 14.1359 28.2134 13.2956 29.0247 12.6377C29.8359 11.9798 30.7911 11.523 31.8124 11.3044C31.8312 11.3044 31.8493 11.2976 31.8673 11.2931C33.4077 10.9786 35.0098 11.2222 36.3871 11.9804C37.7645 12.7386 38.8272 13.9619 39.3855 15.4317C39.9437 16.9015 39.961 18.5219 39.4343 20.0032C38.9075 21.4846 37.8711 22.7303 36.5103 23.5177H36.505C35.8993 23.8672 35.2422 24.1187 34.558 24.2629ZM36.2106 24.7346C36.4762 24.6192 36.735 24.4888 36.9858 24.344L37.0121 24.329C37.1067 24.2742 37.1999 24.2171 37.2915 24.1585L37.9488 25.3138L36.9362 25.899L36.2106 24.7346ZM39.5908 32.0788L37.112 27.7897C37.0344 27.6558 37 27.5013 37.0136 27.3472C37.0254 27.1915 37.0841 27.0431 37.1818 26.9213C37.211 26.8853 37.2434 26.8521 37.2787 26.8221C37.3137 26.7921 37.3514 26.7655 37.3914 26.7425L38.4708 26.1183C38.5085 26.0968 38.5479 26.0787 38.5888 26.0642C38.6258 26.0497 38.664 26.0384 38.703 26.0304H38.7135C38.8705 26.0022 39.0323 26.0232 39.1769 26.0905C39.3203 26.1556 39.4396 26.2641 39.518 26.4007L41.9968 30.6899C42.0972 30.8663 42.1239 31.0752 42.0713 31.2712C42.0187 31.4672 41.891 31.6346 41.7159 31.7371L40.6365 32.3613C40.46 32.4614 40.2513 32.4881 40.0553 32.4355C39.8594 32.3829 39.692 32.2553 39.5893 32.0804L39.5908 32.0788Z" fill="#424242"/>
<path d="M14.3081 16.3651H19.4296C19.5569 16.3651 19.679 16.3145 19.769 16.2245C19.859 16.1345 19.9096 16.0124 19.9096 15.8851C19.9096 15.7578 19.859 15.6357 19.769 15.5457C19.679 15.4557 19.5569 15.4051 19.4296 15.4051H14.3081C14.1808 15.4051 14.0587 15.4557 13.9687 15.5457C13.8787 15.6357 13.8281 15.7578 13.8281 15.8851C13.8281 16.0124 13.8787 16.1345 13.9687 16.2245C14.0587 16.3145 14.1808 16.3651 14.3081 16.3651Z" fill="#F39019"/>
<path d="M21.0514 25.4662H18.1601C18.0986 25.4661 18.0377 25.4782 17.9808 25.5017C17.924 25.5251 17.8723 25.5596 17.8287 25.603C17.7852 25.6465 17.7507 25.6981 17.7271 25.755C17.7035 25.8118 17.6914 25.8727 17.6914 25.9342V34.8439H18.6582V26.4255H20.5601V34.8439H21.5201V25.9342C21.5201 25.8727 21.508 25.8118 21.4844 25.755C21.4609 25.6981 21.4263 25.6465 21.3828 25.603C21.3393 25.5596 21.2876 25.5251 21.2307 25.5017C21.1739 25.4782 21.1129 25.4661 21.0514 25.4662Z" fill="#F39019"/>
</g>
<defs>
<clipPath id="clip0_1856_45">
<rect width="36.0555" height="34.1581" fill="white" transform="translate(7 8)"/>
</clipPath>
</defs>
</svg>
