<svg width="50" height="50" viewBox="0 0 50 50" fill="none" xmlns="http://www.w3.org/2000/svg">
<rect opacity="0.15" width="50" height="50" rx="12" fill="#F39019" fill-opacity="0.42"/>
<g clip-path="url(#clip0_1856_46)">
<path d="M38.3151 37.6743H29.8094C29.6969 37.6743 29.5889 37.6296 29.5094 37.55C29.4298 37.4704 29.3851 37.3625 29.3851 37.2499C29.3851 37.1374 29.4298 37.0294 29.5094 36.9498C29.5889 36.8703 29.6969 36.8255 29.8094 36.8255H38.3151C39.3316 36.8242 40.3062 36.42 41.0252 35.7015C41.7443 34.983 42.1492 34.0087 42.1513 32.9921V11.685C42.1502 10.6679 41.7456 9.69276 41.0264 8.97357C40.3072 8.25438 39.3321 7.84985 38.3151 7.84872H11.685C10.6676 7.84891 9.69193 8.25314 8.97254 8.97254C8.25314 9.69193 7.84891 10.6676 7.84872 11.685V32.9921C7.85078 34.0087 8.2557 34.983 8.97477 35.7015C9.69384 36.42 10.6684 36.8242 11.685 36.8255H11.7033C11.8159 36.8255 11.9238 36.8703 12.0034 36.9498C12.083 37.0294 12.1277 37.1374 12.1277 37.2499C12.1277 37.3625 12.083 37.4704 12.0034 37.55C11.9238 37.6296 11.8159 37.6743 11.7033 37.6743H11.6864C10.4445 37.6731 9.25384 37.1796 8.37534 36.3019C7.49684 35.4242 7.00225 34.234 7 32.9921V11.685C7 10.4424 7.49359 9.25079 8.37219 8.37219C9.25079 7.49359 10.4424 7 11.685 7H38.3151C39.5571 7.0015 40.7479 7.49557 41.6262 8.37384C42.5044 9.25212 42.9985 10.4429 43 11.685V32.9921C42.9978 34.2337 42.5034 35.4238 41.6252 36.3014C40.747 37.1791 39.5566 37.6728 38.3151 37.6743Z" fill="black"/>
<path d="M42.5749 15.8373H36.8892C36.7767 15.8373 36.6687 15.7926 36.5891 15.713C36.5096 15.6334 36.4648 15.5255 36.4648 15.4129C36.4648 15.3004 36.5096 15.1925 36.5891 15.1129C36.6687 15.0333 36.7767 14.9886 36.8892 14.9886H42.5749C42.6875 14.9886 42.7954 15.0333 42.875 15.1129C42.9546 15.1925 42.9993 15.3004 42.9993 15.4129C42.9993 15.5255 42.9546 15.6334 42.875 15.713C42.7954 15.7926 42.6875 15.8373 42.5749 15.8373Z" fill="black"/>
<path d="M34.4145 15.8373H7.42436C7.31181 15.8373 7.20388 15.7926 7.12429 15.713C7.04471 15.6334 7 15.5255 7 15.4129C7 15.3004 7.04471 15.1925 7.12429 15.1129C7.20388 15.0333 7.31181 14.9886 7.42436 14.9886H34.4145C34.527 14.9886 34.6349 15.0333 34.7145 15.1129C34.7941 15.1925 34.8388 15.3004 34.8388 15.4129C34.8388 15.5255 34.7941 15.6334 34.7145 15.713C34.6349 15.7926 34.527 15.8373 34.4145 15.8373Z" fill="black"/>
<path d="M11.4209 13.1752C11.2849 13.1754 11.1493 13.1595 11.017 13.1278C10.5816 13.0245 10.2021 12.7586 9.95623 12.3845C9.71041 12.0105 9.61685 11.5567 9.69473 11.1159C9.77261 10.6752 10.016 10.2809 10.3751 10.0138C10.7342 9.74665 11.1819 9.62691 11.6264 9.67907C12.0709 9.73123 12.4787 9.95134 12.7662 10.2943C13.0537 10.6373 13.1993 11.0773 13.173 11.5241C13.1467 11.9709 12.9507 12.3907 12.6249 12.6977C12.2992 13.0046 11.8685 13.1755 11.4209 13.1752ZM11.4209 10.5116C11.1882 10.5119 10.9644 10.6011 10.7952 10.7609C10.6261 10.9208 10.5245 11.1392 10.5111 11.3716C10.4977 11.6039 10.5737 11.8326 10.7233 12.0108C10.873 12.189 11.0851 12.3032 11.3163 12.3302C11.5474 12.3572 11.7801 12.2948 11.9668 12.1558C12.1535 12.0169 12.28 11.8118 12.3205 11.5827C12.3609 11.3535 12.3123 11.1175 12.1845 10.923C12.0567 10.7285 11.8595 10.5902 11.6331 10.5364C11.5635 10.5199 11.4923 10.5116 11.4209 10.5116Z" fill="#F39019"/>
<path d="M16.7474 13.1745C16.3113 13.1752 15.8906 13.0137 15.567 12.7213C15.2434 12.4289 15.0403 12.0266 14.997 11.5927C14.9537 11.1587 15.0734 10.7242 15.3328 10.3737C15.5922 10.0231 15.9727 9.78165 16.4004 9.69621C16.828 9.61077 17.2721 9.6875 17.6463 9.91146C18.0205 10.1354 18.298 10.4906 18.4248 10.9078C18.5515 11.3251 18.5185 11.7746 18.3321 12.1688C18.1458 12.5631 17.8194 12.8739 17.4165 13.0408C17.2045 13.1293 16.9771 13.1747 16.7474 13.1745ZM16.7474 10.5109C16.5212 10.5097 16.3027 10.5928 16.1343 10.7438C15.966 10.8949 15.8598 11.1032 15.8366 11.3282C15.8133 11.5531 15.8746 11.7787 16.0085 11.9611C16.1423 12.1434 16.3393 12.2693 16.5609 12.3145C16.7825 12.3596 17.0131 12.3207 17.2076 12.2053C17.4021 12.0898 17.5467 11.9062 17.6133 11.69C17.6799 11.4738 17.6637 11.2406 17.5678 11.0358C17.4719 10.8309 17.3033 10.669 17.0947 10.5816C16.9839 10.5348 16.8648 10.5108 16.7446 10.5109H16.7474Z" fill="black"/>
<path d="M22.6017 13.1737C22.1956 13.1734 21.8022 13.0323 21.4884 12.7744C21.1747 12.5166 20.9601 12.1579 20.8811 11.7595C20.8022 11.3612 20.8638 10.9477 21.0555 10.5897C21.2472 10.2317 21.5571 9.95119 21.9324 9.79602C22.3077 9.64086 22.7252 9.62062 23.1137 9.73875C23.5023 9.85689 23.8379 10.1061 24.0633 10.4439C24.2887 10.7817 24.39 11.1872 24.35 11.5914C24.31 11.9955 24.131 12.3732 23.8437 12.6602C23.6808 12.8235 23.4872 12.9529 23.274 13.041C23.0609 13.1292 22.8324 13.1743 22.6017 13.1737ZM22.6017 10.5123C22.392 10.5124 22.1888 10.5853 22.0267 10.7185C21.8646 10.8517 21.7538 11.037 21.713 11.2427C21.6722 11.4485 21.7041 11.662 21.8031 11.847C21.9021 12.0319 22.0621 12.1768 22.256 12.2569C22.4498 12.3371 22.6655 12.3475 22.8662 12.2865C23.0669 12.2255 23.2402 12.0968 23.3566 11.9223C23.4731 11.7478 23.5254 11.5383 23.5047 11.3296C23.4841 11.1209 23.3916 10.9257 23.2432 10.7775C23.159 10.6933 23.059 10.6265 22.9489 10.581C22.8388 10.5354 22.7209 10.5121 22.6017 10.5123Z" fill="black"/>
<path d="M38.5782 13.1745H27.9281C27.6946 13.1792 27.4624 13.1372 27.2453 13.0511C27.0282 12.965 26.8304 12.8364 26.6636 12.6729C26.4968 12.5094 26.3643 12.3142 26.2738 12.0989C26.1833 11.8835 26.1367 11.6523 26.1367 11.4187C26.1367 11.1851 26.1833 10.9539 26.2738 10.7385C26.3643 10.5232 26.4968 10.328 26.6636 10.1645C26.8304 10.001 27.0282 9.87242 27.2453 9.78628C27.4624 9.70015 27.6946 9.6582 27.9281 9.66289H38.5782C38.8117 9.6582 39.0438 9.70015 39.261 9.78628C39.4781 9.87242 39.6759 10.001 39.8427 10.1645C40.0095 10.328 40.142 10.5232 40.2325 10.7385C40.323 10.9539 40.3696 11.1851 40.3696 11.4187C40.3696 11.6523 40.323 11.8835 40.2325 12.0989C40.142 12.3142 40.0095 12.5094 39.8427 12.6729C39.6759 12.8364 39.4781 12.965 39.261 13.0511C39.0438 13.1372 38.8117 13.1792 38.5782 13.1745ZM27.9281 10.5116C27.8069 10.5082 27.6862 10.5292 27.5731 10.5732C27.4601 10.6173 27.3571 10.6836 27.2701 10.7681C27.1832 10.8527 27.1141 10.9538 27.0669 11.0656C27.0197 11.1773 26.9954 11.2974 26.9954 11.4187C26.9954 11.54 27.0197 11.66 27.0669 11.7718C27.1141 11.8835 27.1832 11.9847 27.2701 12.0692C27.3571 12.1538 27.4601 12.2201 27.5731 12.2641C27.6862 12.3082 27.8069 12.3291 27.9281 12.3258H38.5782C38.6994 12.3291 38.8201 12.3082 38.9331 12.2641C39.0461 12.2201 39.1492 12.1538 39.2361 12.0692C39.3231 11.9847 39.3922 11.8835 39.4394 11.7718C39.4866 11.66 39.5109 11.54 39.5109 11.4187C39.5109 11.2974 39.4866 11.1773 39.4394 11.0656C39.3922 10.9538 39.3231 10.8527 39.2361 10.7681C39.1492 10.6836 39.0461 10.6173 38.9331 10.5732C38.8201 10.5292 38.6994 10.5082 38.5782 10.5116H27.9281Z" fill="#F39019"/>
<path d="M11.7017 28.641C11.5892 28.641 11.4812 28.5963 11.4016 28.5167C11.3221 28.4371 11.2773 28.3292 11.2773 28.2166V20.6623C11.2783 19.8641 11.5958 19.0989 12.1603 18.5346C12.7247 17.9703 13.49 17.6529 14.2882 17.6522H27.2241C28.0218 17.6537 28.7864 17.9713 29.3502 18.5356C29.9141 19.0998 30.2312 19.8646 30.2322 20.6623V26.7094C30.2322 26.822 30.1874 26.9299 30.1079 27.0095C30.0283 27.0891 29.9203 27.1338 29.8078 27.1338C29.6952 27.1338 29.5873 27.0891 29.5077 27.0095C29.4281 26.9299 29.3834 26.822 29.3834 26.7094V20.6623C29.3827 20.0893 29.1547 19.54 28.7495 19.1348C28.3444 18.7296 27.795 18.5016 27.222 18.5009H14.2868C13.7139 18.5018 13.1647 18.7299 12.7597 19.135C12.3547 19.5402 12.1268 20.0894 12.1261 20.6623V28.2166C12.1261 28.3292 12.0814 28.4371 12.0018 28.5167C11.9222 28.5963 11.8143 28.641 11.7017 28.641Z" fill="black"/>
<path d="M27.2227 43H14.2868C13.4888 42.9987 12.7239 42.681 12.1597 42.1166C11.5956 41.5522 11.2783 40.7872 11.2773 39.9892V30.6921C11.2773 30.5796 11.3221 30.4716 11.4016 30.3921C11.4812 30.3125 11.5892 30.2678 11.7017 30.2678C11.8143 30.2678 11.9222 30.3125 12.0018 30.3921C12.0814 30.4716 12.1261 30.5796 12.1261 30.6921V39.9892C12.1266 40.5624 12.3546 41.1121 12.76 41.5174C13.1653 41.9228 13.7149 42.1507 14.2882 42.1513H27.2241C27.7969 42.15 28.3458 41.9217 28.7505 41.5164C29.1553 41.1111 29.3829 40.5619 29.3834 39.9892V33.6528C29.3834 33.5402 29.4281 33.4323 29.5077 33.3527C29.5873 33.2731 29.6952 33.2284 29.8078 33.2284C29.9203 33.2284 30.0283 33.2731 30.1079 33.3527C30.1874 33.4323 30.2322 33.5402 30.2322 33.6528V39.9892C30.2314 40.7872 29.9141 41.5524 29.35 42.1168C28.7858 42.6813 28.0208 42.9989 27.2227 43Z" fill="black"/>
<path d="M26.0824 23.8266H15.4309C15.0359 23.8266 14.657 23.6697 14.3777 23.3903C14.0983 23.111 13.9414 22.7321 13.9414 22.3371C13.9414 21.9421 14.0983 21.5632 14.3777 21.2839C14.657 21.0045 15.0359 20.8476 15.4309 20.8476H26.0824C26.4774 20.8476 26.8563 21.0045 27.1356 21.2839C27.415 21.5632 27.5719 21.9421 27.5719 22.3371C27.5719 22.7321 27.415 23.111 27.1356 23.3903C26.8563 23.6697 26.4774 23.8266 26.0824 23.8266ZM15.4309 21.6963C15.261 21.6963 15.098 21.7638 14.9778 21.884C14.8576 22.0042 14.7901 22.1672 14.7901 22.3371C14.7901 22.5071 14.8576 22.67 14.9778 22.7902C15.098 22.9104 15.261 22.9779 15.4309 22.9779H26.0824C26.2523 22.9779 26.4153 22.9104 26.5355 22.7902C26.6557 22.67 26.7232 22.5071 26.7232 22.3371C26.7232 22.1672 26.6557 22.0042 26.5355 21.884C26.4153 21.7638 26.2523 21.6963 26.0824 21.6963H15.4309Z" fill="#F39019"/>
<path d="M27.1462 27.0221H14.897C14.7845 27.0221 14.6765 26.9774 14.5969 26.8978C14.5174 26.8182 14.4727 26.7102 14.4727 26.5977C14.4727 26.4852 14.5174 26.3772 14.5969 26.2976C14.6765 26.218 14.7845 26.1733 14.897 26.1733H27.1462C27.2588 26.1733 27.3667 26.218 27.4463 26.2976C27.5259 26.3772 27.5706 26.4852 27.5706 26.5977C27.5706 26.7102 27.5259 26.8182 27.4463 26.8978C27.3667 26.9774 27.2588 27.0221 27.1462 27.0221Z" fill="black"/>
<path d="M27.4157 30.2175H14.897C14.7845 30.2175 14.6765 30.1728 14.5969 30.0932C14.5174 30.0136 14.4727 29.9057 14.4727 29.7931C14.4727 29.6806 14.5174 29.5727 14.5969 29.4931C14.6765 29.4135 14.7845 29.3688 14.897 29.3688H27.4157C27.5282 29.3688 27.6362 29.4135 27.7158 29.4931C27.7953 29.5727 27.84 29.6806 27.84 29.7931C27.84 29.9057 27.7953 30.0136 27.7158 30.0932C27.6362 30.1728 27.5282 30.2175 27.4157 30.2175Z" fill="black"/>
<path d="M25.5994 33.4165H14.897C14.7845 33.4165 14.6765 33.3718 14.5969 33.2922C14.5174 33.2126 14.4727 33.1047 14.4727 32.9921C14.4727 32.8796 14.5174 32.7716 14.5969 32.692C14.6765 32.6125 14.7845 32.5677 14.897 32.5677H25.5994C25.712 32.5677 25.8199 32.6125 25.8995 32.692C25.9791 32.7716 26.0238 32.8796 26.0238 32.9921C26.0238 33.1047 25.9791 33.2126 25.8995 33.2922C25.8199 33.3718 25.712 33.4165 25.5994 33.4165Z" fill="black"/>
<path d="M25.1446 36.6091H14.897C14.7845 36.6091 14.6765 36.5644 14.5969 36.4848C14.5174 36.4052 14.4727 36.2973 14.4727 36.1847C14.4727 36.0722 14.5174 35.9643 14.5969 35.8847C14.6765 35.8051 14.7845 35.7604 14.897 35.7604H25.1446C25.2572 35.7604 25.3651 35.8051 25.4447 35.8847C25.5243 35.9643 25.569 36.0722 25.569 36.1847C25.569 36.2973 25.5243 36.4052 25.4447 36.4848C25.3651 36.5644 25.2572 36.6091 25.1446 36.6091Z" fill="black"/>
<path d="M21.2879 39.8045H14.897C14.7845 39.8045 14.6765 39.7598 14.5969 39.6802C14.5174 39.6007 14.4727 39.4927 14.4727 39.3802C14.4727 39.2676 14.5174 39.1597 14.5969 39.0801C14.6765 39.0005 14.7845 38.9558 14.897 38.9558H21.2879C21.4004 38.9558 21.5084 39.0005 21.588 39.0801C21.6676 39.1597 21.7123 39.2676 21.7123 39.3802C21.7123 39.4927 21.6676 39.6007 21.588 39.6802C21.5084 39.7598 21.4004 39.8045 21.2879 39.8045Z" fill="black"/>
<path d="M29.1151 34.9725C29.0358 34.9724 28.958 34.95 28.8908 34.908C28.8235 34.8659 28.7693 34.8058 28.7345 34.7345C28.6996 34.6632 28.6855 34.5835 28.6937 34.5046C28.7018 34.4256 28.7319 34.3506 28.7806 34.2879L29.7969 32.9801L29.8104 32.9639L29.8281 32.9398L34.8235 26.5115C36.3279 24.5757 37.5896 22.9489 37.6031 22.9327C37.7456 22.7563 37.8516 22.5533 37.9148 22.3355C37.978 22.1177 37.9971 21.8895 37.9711 21.6643C37.9451 21.439 37.8744 21.2212 37.7632 21.0236C37.6519 20.8259 37.5024 20.6524 37.3234 20.5133C37.1444 20.3741 36.9394 20.272 36.7204 20.213C36.5015 20.154 36.2729 20.1392 36.0482 20.1696C35.8235 20.1999 35.607 20.2748 35.4116 20.3897C35.2161 20.5047 35.0455 20.6575 34.9098 20.8392L34.2563 21.6801C34.1872 21.769 34.0857 21.8269 33.974 21.8409C33.8624 21.855 33.7497 21.8241 33.6608 21.7551C33.5718 21.686 33.514 21.5845 33.4999 21.4728C33.4859 21.3612 33.5168 21.2485 33.5858 21.1596L34.2393 20.3186C34.4407 20.0417 34.6957 19.8082 34.9891 19.6318C35.2826 19.4554 35.6085 19.3398 35.9474 19.2918C36.2864 19.2439 36.6316 19.2646 36.9625 19.3526C37.2933 19.4407 37.6031 19.5944 37.8734 19.8046C38.1436 20.0147 38.3689 20.2771 38.5358 20.576C38.7027 20.8749 38.8078 21.2044 38.8449 21.5447C38.882 21.8851 38.8502 22.2294 38.7516 22.5573C38.653 22.8851 38.4894 23.1898 38.2707 23.4532L35.4912 27.0306L30.4653 33.4979L29.449 34.8049C29.4098 34.8565 29.3593 34.8984 29.3015 34.9274C29.2436 34.9565 29.1799 34.9719 29.1151 34.9725Z" fill="black"/>
<path d="M25.7519 32.3556C25.6725 32.3555 25.5948 32.3331 25.5275 32.291C25.4602 32.2489 25.406 32.1888 25.3712 32.1175C25.3364 32.0462 25.3222 31.9666 25.3304 31.8877C25.3385 31.8087 25.3686 31.7336 25.4173 31.671L31.9532 23.2594C31.9874 23.2154 32.03 23.1785 32.0784 23.151C32.1269 23.1234 32.1803 23.1056 32.2357 23.0987C32.291 23.0918 32.3472 23.0958 32.4009 23.1106C32.4547 23.1253 32.505 23.1506 32.5491 23.1848C32.5931 23.219 32.6299 23.2616 32.6575 23.31C32.6851 23.3585 32.7029 23.4119 32.7098 23.4673C32.7167 23.5226 32.7127 23.5788 32.6979 23.6325C32.6831 23.6863 32.6579 23.7366 32.6237 23.7807L26.0871 32.1943C26.0471 32.2449 25.9962 32.2857 25.9381 32.3137C25.88 32.3416 25.8163 32.3559 25.7519 32.3556Z" fill="black"/>
<path d="M25.1439 36.6098C25.1241 36.6109 25.1043 36.6109 25.0845 36.6098C24.9999 36.5979 24.921 36.5607 24.8579 36.5032C24.7948 36.4456 24.7505 36.3704 24.7309 36.2873C24.718 36.2352 24.7153 36.1812 24.7231 36.1282V36.119V36.1041L25.1234 33.2885L25.3243 31.8775C25.3347 31.8038 25.3643 31.7341 25.4102 31.6755C25.456 31.6169 25.5165 31.5714 25.5855 31.5435C25.6545 31.5157 25.7296 31.5064 25.8033 31.5167C25.877 31.5271 25.9467 31.5566 26.0054 31.6023L29.3698 34.2192C29.4284 34.2649 29.474 34.3251 29.5021 34.3939C29.5301 34.4627 29.5395 34.5377 29.5295 34.6113C29.5195 34.6849 29.4903 34.7545 29.4449 34.8133C29.3995 34.8721 29.3395 34.918 29.2708 34.9463L25.3335 36.573C25.2739 36.5995 25.2091 36.6121 25.1439 36.6098ZM26.0669 32.7198L25.6694 35.5114L28.2764 34.4364L26.0669 32.7198Z" fill="#F39019"/>
<path d="M35.6496 26.5617C35.5552 26.5615 35.4637 26.5299 35.3893 26.4718L32.0248 23.8549C31.9365 23.7853 31.8795 23.6835 31.8662 23.5718C31.853 23.4602 31.8846 23.3478 31.9541 23.2594L33.5879 21.1567C33.657 21.0679 33.7586 21.0102 33.8703 20.9962C33.9819 20.9823 34.0946 21.0133 34.1834 21.0824L37.5472 23.6993C37.5912 23.7335 37.6281 23.776 37.6557 23.8245C37.6833 23.8729 37.7011 23.9263 37.708 23.9816C37.715 24.0369 37.711 24.093 37.6962 24.1468C37.6815 24.2005 37.6563 24.2508 37.6221 24.2949L35.9884 26.3983C35.9541 26.4423 35.9114 26.4792 35.8629 26.5067C35.8143 26.5343 35.7608 26.552 35.7054 26.5588C35.6869 26.5609 35.6682 26.5619 35.6496 26.5617ZM32.8813 23.4497L35.5746 25.5432L36.6878 24.1103L33.9946 22.0153L32.8813 23.4497Z" fill="#F39019"/>
</g>
<defs>
<clipPath id="clip0_1856_46">
<rect width="36" height="36" fill="white" transform="translate(7 7)"/>
</clipPath>
</defs>
</svg>
