<svg width="50" height="50" viewBox="0 0 50 50" fill="none" xmlns="http://www.w3.org/2000/svg">
<rect opacity="0.15" width="50" height="50" rx="12" fill="#F39019" fill-opacity="0.42"/>
<g clip-path="url(#clip0_1858_49)">
<path d="M37.4959 34.7982H33.6856C33.5969 34.7983 33.5096 34.8205 33.4316 34.8629C33.3537 34.9053 33.2876 34.9665 33.2394 35.0409C33.233 35.0494 33.2273 35.0586 33.2188 35.0721C33.1714 35.1474 33.1436 35.2334 33.1382 35.3222C33.1327 35.411 33.1498 35.4997 33.1877 35.5802L35.0882 39.6247C35.2866 40.0476 35.3091 40.5319 35.1505 40.9714C34.9919 41.4108 34.6653 41.7694 34.2424 41.9685C34.0324 42.0671 33.805 42.1233 33.5732 42.134C33.3414 42.1447 33.1098 42.1095 32.8916 42.0307C32.6735 41.9518 32.473 41.8307 32.3017 41.6743C32.1305 41.5179 31.9917 41.3293 31.8935 41.1193L31.0817 39.3897C30.5621 38.2675 29.7133 37.3296 28.6478 36.7005C28.0775 36.3672 27.6269 35.8628 27.36 35.2589C27.1745 34.8428 27.0828 34.391 27.0916 33.9355V29.1374L27.1263 29.1225V28.8677H25.9894V29.2832H26.029V33.9327C26.0288 34.1513 25.9418 34.3609 25.7871 34.5155C25.6324 34.67 25.4226 34.757 25.2038 34.7572H22.5297C22.311 34.7568 22.1013 34.6698 21.9466 34.5153C21.792 34.3607 21.7049 34.1512 21.7045 33.9327V29.2832H21.7428V29.1961H20.6172V29.2832H20.642V33.9327C20.6429 34.4325 20.8421 34.9116 21.196 35.265C21.5498 35.6184 22.0294 35.8172 22.5297 35.818H25.2045C25.5962 35.8181 25.9781 35.6959 26.2968 35.4684C26.3251 35.5448 26.3563 35.6205 26.3896 35.6956C26.7465 36.5024 27.3488 37.1765 28.1109 37.6219C28.9907 38.1417 29.6916 38.9164 30.1205 39.8433L30.9323 41.5737C31.0901 41.9095 31.3126 42.2109 31.587 42.4608C31.8615 42.7107 32.1825 42.9042 32.5318 43.0301C32.8811 43.156 33.2518 43.2119 33.6227 43.1947C33.9936 43.1775 34.3575 43.0874 34.6936 42.9296C35.372 42.611 35.896 42.0364 36.1505 41.332C36.405 40.6277 36.3691 39.8512 36.0508 39.1732L34.4925 35.8597H37.4959C37.6368 35.8597 37.7719 35.8038 37.8715 35.7043C37.9712 35.6047 38.0271 35.4697 38.0271 35.329C38.0271 35.1882 37.9712 35.0532 37.8715 34.9537C37.7719 34.8541 37.6368 34.7982 37.4959 34.7982Z" fill="#424242"/>
<path d="M40.7986 31.6985C41.0083 31.4875 41.1735 31.2366 41.2844 30.9607C41.3952 30.6847 41.4495 30.3893 41.4439 30.092C41.4338 29.6955 41.32 29.3086 41.1139 28.9697C40.9077 28.6307 40.6163 28.3516 40.2687 28.16C40.4909 27.9052 40.6531 27.6038 40.7434 27.2781C40.8336 26.9524 40.8496 26.6106 40.7901 26.2779C40.7306 25.9452 40.5972 25.63 40.3997 25.3556C40.2023 25.0812 39.9457 24.8546 39.6489 24.6923C39.8161 24.4999 39.9493 24.2805 40.0428 24.0434C40.0458 24.0367 40.0484 24.0298 40.0506 24.0228C40.1814 23.6803 40.2271 23.311 40.1836 22.9469C40.1401 22.5828 40.0087 22.2347 39.8008 21.9325C39.5929 21.6303 39.3146 21.3831 38.9899 21.2121C38.6653 21.0411 38.3039 20.9514 37.9368 20.9507H29.6321C29.6462 20.9168 29.6583 20.88 29.671 20.846H28.8415V21.3888H28.4102V22.0144H28.6432H37.9368C38.1326 22.015 38.3253 22.0634 38.4982 22.1552C38.6711 22.247 38.8189 22.3796 38.929 22.5414C39.039 22.7032 39.1079 22.8893 39.1297 23.0837C39.1514 23.2781 39.1254 23.4749 39.0539 23.657C39.0539 23.657 39.0539 23.6633 39.0504 23.6662C38.96 23.8872 38.8058 24.0763 38.6075 24.2095C38.4093 24.3427 38.1758 24.414 37.9368 24.4142C37.8007 24.4212 37.6724 24.4802 37.5785 24.579C37.4846 24.6777 37.4323 24.8088 37.4323 24.945C37.4323 25.0812 37.4846 25.2122 37.5785 25.311C37.6724 25.4097 37.8007 25.4687 37.9368 25.4757H38.5581C38.7231 25.4637 38.8889 25.4858 39.0451 25.5407C39.2012 25.5955 39.3444 25.6819 39.4656 25.7945C39.5868 25.9071 39.6835 26.0435 39.7496 26.1951C39.8157 26.3467 39.8498 26.5103 39.8498 26.6756C39.8498 26.841 39.8157 27.0046 39.7496 27.1562C39.6835 27.3078 39.5868 27.4441 39.4656 27.5567C39.3444 27.6693 39.2012 27.7557 39.0451 27.8106C38.8889 27.8654 38.7231 27.8875 38.5581 27.8755C38.4172 27.8755 38.282 27.9314 38.1824 28.031C38.0828 28.1305 38.0268 28.2655 38.0268 28.4063C38.0268 28.5471 38.0828 28.6821 38.1824 28.7816C38.282 28.8811 38.4172 28.9371 38.5581 28.9371H39.1814C39.4956 28.9381 39.7969 29.0617 40.021 29.2816C40.2452 29.5015 40.3745 29.8002 40.3814 30.114C40.3839 30.2702 40.355 30.4255 40.2964 30.5704C40.2377 30.7153 40.1505 30.847 40.0399 30.9575C39.923 31.077 39.7834 31.1721 39.6293 31.2372C39.4752 31.3023 39.3097 31.3362 39.1425 31.3369H38.5588C38.4179 31.3369 38.2827 31.3928 38.1831 31.4923C38.0835 31.5918 38.0275 31.7269 38.0275 31.8676C38.0275 32.0084 38.0835 32.1434 38.1831 32.2429C38.2827 32.3425 38.4179 32.3984 38.5588 32.3984C38.7965 32.399 39.0288 32.4698 39.2262 32.6021C39.4237 32.7343 39.5776 32.922 39.6685 33.1415C39.7594 33.3609 39.7833 33.6024 39.737 33.8354C39.6908 34.0684 39.5766 34.2825 39.4088 34.4507C39.3653 34.4957 39.3179 34.5366 39.2671 34.5731C39.2101 34.6132 39.1614 34.6642 39.1241 34.723C39.0867 34.7819 39.0613 34.8476 39.0494 34.9162C39.0374 34.9849 39.0391 35.0553 39.0543 35.1233C39.0696 35.1913 39.0981 35.2557 39.1382 35.3127C39.1783 35.3697 39.2293 35.4182 39.2882 35.4556C39.3472 35.4929 39.4129 35.5183 39.4816 35.5302C39.5504 35.5422 39.6208 35.5405 39.6889 35.5253C39.7569 35.5101 39.8214 35.4816 39.8784 35.4415C39.9796 35.3698 40.0744 35.2895 40.1618 35.2016C40.5682 34.7955 40.8048 34.2501 40.8235 33.6762C40.8422 33.1022 40.6416 32.5426 40.2624 32.1111C40.4602 32.0003 40.6409 31.8613 40.7986 31.6985Z" fill="#424242"/>
<path d="M29.6309 20.9514C29.7987 20.5467 29.843 20.1014 29.7583 19.6715C29.6736 19.2417 29.4637 18.8464 29.1548 18.5354C28.9981 18.3732 28.8184 18.2349 28.6214 18.1249C28.9081 17.7983 29.0946 17.3961 29.1584 16.9664C29.2223 16.5368 29.1608 16.0978 28.9815 15.7021C28.8021 15.3064 28.5124 14.9707 28.1471 14.7352C27.7817 14.4997 27.3562 14.3743 26.9214 14.3741H22.8526L24.411 11.0614C24.6136 10.631 24.7041 10.1563 24.6741 9.68155C24.644 9.20679 24.4944 8.74732 24.2391 8.34577C23.9838 7.94423 23.6311 7.61363 23.2137 7.38467C22.7963 7.1557 22.3278 7.03579 21.8517 7.03607C21.3145 7.0377 20.7888 7.19148 20.3355 7.47959C19.8823 7.76769 19.5201 8.1783 19.291 8.66377L18.4785 10.3898C18.0495 11.3167 17.3487 12.0914 16.4689 12.6113C15.7066 13.0569 15.1043 13.7312 14.7476 14.5383C14.7143 14.6133 14.6838 14.6891 14.6548 14.7648C14.3363 14.5375 13.9546 14.4155 13.5632 14.4159H10.8878C10.3873 14.4165 9.90744 14.6153 9.55354 14.9689C9.19963 15.3225 9.00056 15.8019 9 16.3019V17.8277C9 17.9685 9.05597 18.1035 9.1556 18.203C9.25524 18.3025 9.39037 18.3585 9.53127 18.3585C9.67217 18.3585 9.8073 18.3025 9.90693 18.203C10.0066 18.1035 10.0625 17.9685 10.0625 17.8277V16.3019C10.0627 16.0834 10.1496 15.8739 10.3042 15.7194C10.4588 15.5648 10.6684 15.4778 10.8871 15.4774H13.5632C13.782 15.4778 13.9917 15.5648 14.1463 15.7193C14.301 15.8739 14.3881 16.0834 14.3885 16.3019V27.0985C14.3881 27.317 14.301 27.5265 14.1463 27.681C13.9917 27.8356 13.782 27.9226 13.5632 27.9229H10.8878C10.669 27.9227 10.4592 27.8358 10.3044 27.6812C10.1497 27.5267 10.0627 27.3171 10.0625 27.0985V19.9508C10.0625 19.81 10.0066 19.675 9.90693 19.5755C9.8073 19.4759 9.67217 19.42 9.53127 19.42C9.39037 19.42 9.25524 19.4759 9.1556 19.5755C9.05597 19.675 9 19.81 9 19.9508V27.0985C9.00056 27.5984 9.19953 28.0776 9.55328 28.4312C9.90703 28.7848 10.3867 28.9837 10.8871 28.9845H13.5632C13.9827 28.9839 14.3899 28.8431 14.72 28.5846C15.3387 29.039 16.087 29.2831 16.855 29.281H26.0289C26.2422 29.2894 26.4559 29.2754 26.6664 29.2392C26.8353 29.212 27.0013 29.1692 27.1622 29.1111C27.5472 28.956 27.881 28.6961 28.1256 28.361C28.3721 27.9948 28.5187 27.5705 28.5506 27.1303C28.5602 26.9262 28.544 26.7217 28.5024 26.5217C28.4764 26.4148 28.4445 26.3094 28.4068 26.2061L28.4004 26.1891C28.3066 25.9518 28.1732 25.7321 28.0059 25.5394C28.361 25.3441 28.6572 25.0573 28.8636 24.7088C29.0701 24.3603 29.1792 23.9628 29.1796 23.5579C29.1789 23.2508 29.1168 22.9469 28.9969 22.6641C28.8789 22.4299 28.7108 22.2245 28.5046 22.0625C28.6302 22.0313 28.7512 21.9837 28.8644 21.921C29.3709 21.6407 29.5671 21.1411 29.6309 20.9514ZM27.5384 21.2954H26.9157C26.7748 21.2954 26.6397 21.3513 26.5401 21.4508C26.4404 21.5504 26.3845 21.6854 26.3845 21.8261C26.3845 21.9669 26.4404 22.1019 26.5401 22.2015C26.6397 22.301 26.7748 22.3569 26.9157 22.3569C27.0808 22.3449 27.2466 22.367 27.4027 22.4219C27.5589 22.4767 27.702 22.5631 27.8232 22.6757C27.9445 22.7883 28.0411 22.9247 28.1073 23.0763C28.1734 23.2279 28.2075 23.3915 28.2075 23.5568C28.2075 23.7222 28.1734 23.8858 28.1073 24.0374C28.0411 24.189 27.9445 24.3253 27.8232 24.4379C27.702 24.5505 27.5589 24.6369 27.4027 24.6918C27.2466 24.7466 27.0808 24.7687 26.9157 24.7567H26.2938C26.1529 24.7567 26.0178 24.8126 25.9181 24.9122C25.8185 25.0117 25.7625 25.1467 25.7625 25.2875C25.7625 25.4282 25.8185 25.5632 25.9181 25.6628C26.0178 25.7623 26.1529 25.8182 26.2938 25.8182C26.533 25.8181 26.7668 25.8894 26.9652 26.0229C27.1636 26.1565 27.3176 26.3462 27.4073 26.5677L27.4116 26.5776C27.4827 26.7596 27.5083 26.9562 27.4863 27.1504C27.4643 27.3446 27.3953 27.5305 27.2852 27.692C27.1751 27.8535 27.0273 27.9858 26.8546 28.0775C26.6819 28.1691 26.4894 28.2174 26.2938 28.218H16.855C16.3106 28.2197 15.7803 28.046 15.3426 27.7227C15.4145 27.5209 15.4512 27.3084 15.451 27.0942V16.3019C15.4513 16.2986 15.4513 16.2953 15.451 16.292C15.4416 15.8368 15.533 15.3851 15.7188 14.9693C15.9848 14.3654 16.4347 13.8608 17.0044 13.527C18.07 12.8981 18.9189 11.9602 19.4383 10.8378L20.2501 9.10891C20.3941 8.80629 20.621 8.55063 20.9044 8.37152C21.1879 8.19242 21.5163 8.0972 21.8517 8.0969C22.1106 8.09663 22.3664 8.15392 22.6004 8.26463C23.0242 8.46313 23.3517 8.82156 23.5111 9.26118C23.6705 9.7008 23.6487 10.1856 23.4505 10.6092L21.5499 14.6537C21.5135 14.7321 21.4968 14.8182 21.5013 14.9045C21.5057 14.9909 21.5312 15.0748 21.5754 15.1491L21.6016 15.1908C21.6501 15.2648 21.7161 15.3256 21.7939 15.3677C21.8717 15.4099 21.9587 15.432 22.0472 15.4321H26.9193C27.0843 15.4201 27.2501 15.4422 27.4063 15.4971C27.5624 15.5519 27.7056 15.6383 27.8268 15.7509C27.948 15.8635 28.0447 15.9999 28.1108 16.1515C28.1769 16.3031 28.211 16.4667 28.211 16.632C28.211 16.7974 28.1769 16.961 28.1108 17.1126C28.0447 17.2642 27.948 17.4005 27.8268 17.5131C27.7056 17.6257 27.5624 17.7121 27.4063 17.767C27.2501 17.8218 27.0843 17.844 26.9193 17.8319C26.7784 17.8319 26.6432 17.8879 26.5436 17.9874C26.444 18.0869 26.388 18.2219 26.388 18.3627C26.388 18.5035 26.444 18.6385 26.5436 18.738C26.6432 18.8375 26.7784 18.8935 26.9193 18.8935H27.503C27.6701 18.8942 27.8354 18.9281 27.9893 18.9931C28.1432 19.0581 28.2827 19.1529 28.3997 19.2721C28.5111 19.3833 28.5988 19.5159 28.6576 19.6618C28.7164 19.8077 28.745 19.964 28.7419 20.1213C28.7343 20.4352 28.6042 20.7337 28.3793 20.9531C28.1544 21.1724 27.8527 21.2953 27.5384 21.2954Z" fill="#F39019"/>
<path d="M16.2136 32.9016L16.1739 32.753C16.0698 32.3717 15.8253 32.0439 15.4894 31.8352C15.1534 31.6265 14.751 31.5524 14.3627 31.6277L12.7242 31.9462C12.5138 31.9872 12.3142 32.0711 12.1376 32.1925C11.961 32.3139 11.8114 32.4703 11.6979 32.652C11.5844 32.8336 11.5096 33.0367 11.478 33.2485C11.4464 33.4603 11.4588 33.6763 11.5144 33.8832L11.6135 34.2526C11.669 34.4594 11.7665 34.6526 11.8999 34.8202C12.0333 34.9879 12.1997 35.1263 12.3889 35.227C12.5781 35.3277 12.7859 35.3884 12.9996 35.4055C13.2133 35.4225 13.4281 35.3955 13.6309 35.3261L15.2106 34.7848C15.5849 34.6554 15.8963 34.3894 16.0824 34.04C16.2684 33.6907 16.3153 33.284 16.2136 32.9016ZM14.8677 33.7791L13.2888 34.3205C13.2238 34.3428 13.1549 34.3516 13.0864 34.3462C13.0179 34.3408 12.9512 34.3213 12.8906 34.2891C12.8299 34.2568 12.7765 34.2124 12.7338 34.1586C12.691 34.1049 12.6598 34.0429 12.6421 33.9766L12.5393 33.6093C12.5215 33.543 12.5174 33.4737 12.5275 33.4058C12.5376 33.3378 12.5617 33.2727 12.5981 33.2145C12.6345 33.1562 12.6826 33.1061 12.7393 33.0673C12.7959 33.0284 12.86 33.0016 12.9275 32.9886L14.5659 32.6681C14.5974 32.6618 14.6295 32.6588 14.6616 32.6589C14.7719 32.659 14.879 32.6954 14.9666 32.7624C15.0541 32.8294 15.1172 32.9233 15.1461 33.0297L15.1858 33.1783C15.2185 33.3008 15.2035 33.4311 15.1438 33.543C15.0841 33.6549 14.9842 33.74 14.8642 33.7813L14.8677 33.7791Z" fill="#424242"/>
<path d="M18.5632 36.0338C18.2822 35.7551 17.9061 35.5929 17.5104 35.5798C17.1146 35.5667 16.7286 35.7036 16.4297 35.963L15.1702 37.0564C15.0083 37.1972 14.877 37.3698 14.7847 37.5635C14.6924 37.7571 14.641 37.9677 14.6337 38.1821C14.6264 38.3964 14.6634 38.61 14.7422 38.8095C14.8211 39.009 14.9403 39.1901 15.0923 39.3416L15.3622 39.6112C15.6559 39.904 16.0537 40.0686 16.4686 40.0691H16.5218C16.736 40.0612 16.9463 40.0097 17.1399 39.9177C17.3334 39.8257 17.5061 39.6952 17.6473 39.5341L18.7439 38.2765C19.0036 37.9779 19.1406 37.5922 19.1275 37.1968C19.1144 36.8014 18.952 36.4257 18.673 36.1449L18.5632 36.0338ZM17.9441 37.5759L16.8469 38.8334C16.802 38.8855 16.7468 38.9277 16.6847 38.9573C16.6227 38.9869 16.5551 39.0033 16.4863 39.0054C16.4176 39.0076 16.3492 38.9958 16.2852 38.9706C16.2213 38.9454 16.1632 38.9074 16.1145 38.8589L15.8439 38.5886C15.7953 38.5398 15.7573 38.4815 15.7323 38.4174C15.7072 38.3533 15.6956 38.2848 15.6982 38.216C15.7008 38.1472 15.7175 38.0797 15.7473 38.0177C15.7771 37.9557 15.8194 37.9004 15.8715 37.8554L17.1302 36.7599C17.226 36.6766 17.3498 36.6328 17.4766 36.6371C17.6035 36.6414 17.724 36.6937 17.8138 36.7833L17.9229 36.8915C18.0123 36.9814 18.0643 37.1018 18.0687 37.2284C18.073 37.3551 18.0293 37.4787 17.9463 37.5745L17.9441 37.5759Z" fill="#F39019"/>
<path d="M21.951 38.5256L21.8029 38.486C21.4203 38.3848 21.0135 38.4319 20.6641 38.6179C20.3148 38.8039 20.0488 39.115 19.9194 39.4888L19.3775 41.0662C19.308 41.2688 19.2809 41.4835 19.2979 41.697C19.3149 41.9105 19.3757 42.1182 19.4765 42.3073C19.5773 42.4963 19.7159 42.6626 19.8837 42.7958C20.0516 42.9291 20.245 43.0264 20.4521 43.0818L20.8219 43.1808C21.0289 43.2363 21.2452 43.2487 21.4573 43.2172C21.6693 43.1856 21.8726 43.1109 22.0545 42.9975C22.2364 42.8841 22.393 42.7346 22.5146 42.5582C22.6362 42.3818 22.7202 42.1823 22.7614 41.9721L23.0808 40.3324C23.1561 39.9439 23.0815 39.5414 22.8719 39.2058C22.6623 38.8701 22.3333 38.6261 21.951 38.5228V38.5256ZM22.0381 40.1314L21.7179 41.7683C21.7047 41.8356 21.6777 41.8995 21.6386 41.956C21.5996 42.0125 21.5494 42.0604 21.4911 42.0967C21.4328 42.133 21.3676 42.1569 21.2996 42.167C21.2317 42.1771 21.1624 42.1732 21.096 42.1554L20.727 42.057C20.6606 42.0393 20.5985 42.0081 20.5447 41.9654C20.4909 41.9227 20.4464 41.8694 20.414 41.8088C20.3817 41.7482 20.3621 41.6816 20.3566 41.6132C20.3511 41.5447 20.3597 41.4759 20.382 41.4109L20.9239 39.8327C20.9651 39.7128 21.0503 39.613 21.1623 39.5534C21.2743 39.4938 21.4048 39.4788 21.5274 39.5114L21.6761 39.5511C21.7986 39.5843 21.904 39.6626 21.9712 39.7702C22.0383 39.8779 22.0622 40.0069 22.0381 40.1314Z" fill="#424242"/>
<path d="M35.1387 17.3012L35.1783 17.4491C35.2677 17.7806 35.4638 18.0735 35.7364 18.2826C36.0089 18.4917 36.3428 18.6054 36.6864 18.6062C36.7865 18.6063 36.8864 18.5966 36.9846 18.5772L38.6181 18.258C38.8283 18.2173 39.0278 18.1337 39.2042 18.0125C39.3806 17.8913 39.5302 17.7351 39.6435 17.5536C39.7568 17.3722 39.8315 17.1693 39.8629 16.9577C39.8942 16.7461 39.8816 16.5304 39.8258 16.3239L39.7274 15.9566C39.6723 15.7499 39.5752 15.5568 39.4421 15.3892C39.3091 15.2217 39.1429 15.0834 38.9539 14.9828C38.765 14.8823 38.5573 14.8217 38.3439 14.8049C38.1305 14.7881 37.9159 14.8154 37.7135 14.8851L36.1388 15.4216C35.7653 15.5507 35.4546 15.8163 35.2691 16.165C35.0835 16.5137 35.0369 16.9196 35.1387 17.3012ZM36.4845 16.4272L38.0592 15.8879C38.1238 15.8655 38.1923 15.8566 38.2604 15.8619C38.3286 15.8672 38.3949 15.8864 38.4552 15.9185C38.5155 15.9506 38.5686 15.9949 38.611 16.0484C38.6534 16.102 38.6843 16.1637 38.7017 16.2297L38.8001 16.5977C38.8182 16.6636 38.8223 16.7325 38.8124 16.8001C38.8025 16.8677 38.7787 16.9325 38.7425 16.9905C38.7063 17.0484 38.6585 17.0983 38.6021 17.1369C38.5457 17.1755 38.482 17.202 38.4148 17.2148L36.7813 17.534C36.6575 17.5587 36.5288 17.5353 36.4217 17.4685C36.3145 17.4017 36.2369 17.2965 36.2047 17.1745L36.1651 17.0266C36.1319 16.9048 36.1464 16.775 36.2058 16.6636C36.2652 16.5522 36.3649 16.4676 36.4845 16.4272Z" fill="#424242"/>
<path d="M32.8006 14.1809C33.0808 14.458 33.4553 14.6192 33.8493 14.6323C34.2432 14.6454 34.6277 14.5095 34.9257 14.2517L36.1809 13.159C36.3425 13.0188 36.4734 12.8467 36.5655 12.6537C36.6576 12.4606 36.7089 12.2507 36.7162 12.0369C36.7235 11.8232 36.6867 11.6102 36.608 11.4114C36.5293 11.2125 36.4104 11.0319 36.2588 10.881L35.9896 10.6113C35.8385 10.4599 35.6577 10.3412 35.4586 10.2626C35.2595 10.184 35.0463 10.1473 34.8324 10.1547C34.6185 10.162 34.4083 10.2134 34.2151 10.3055C34.0219 10.3975 33.8498 10.5284 33.7094 10.6899L32.6178 11.9453C32.3588 12.2433 32.2221 12.6281 32.2352 13.0225C32.2484 13.417 32.4104 13.7919 32.6887 14.0719L32.8006 14.1809ZM33.4204 12.6431L34.5127 11.3877C34.5574 11.336 34.6123 11.2941 34.6739 11.2646C34.7356 11.2352 34.8027 11.2188 34.871 11.2164C34.9393 11.2141 35.0074 11.2259 35.0709 11.2511C35.1344 11.2763 35.1921 11.3144 35.2402 11.3629L35.5094 11.6325C35.5579 11.6806 35.596 11.7382 35.6212 11.8016C35.6465 11.8651 35.6583 11.9331 35.656 12.0013C35.6536 12.0696 35.6372 12.1366 35.6077 12.1982C35.5782 12.2598 35.5363 12.3147 35.4846 12.3593L34.2301 13.4534C34.1348 13.5359 34.0118 13.5794 33.8858 13.575C33.7598 13.5707 33.6401 13.5189 33.5508 13.4301L33.4424 13.3218C33.3527 13.2329 33.3003 13.1132 33.296 12.9871C33.2916 12.861 33.3356 12.7379 33.419 12.6431H33.4204Z" fill="#F39019"/>
<path d="M29.4176 11.6969L29.5656 11.7366C29.9477 11.8395 30.3546 11.7934 30.7039 11.6075C31.0532 11.4217 31.3186 11.1101 31.4463 10.7359L31.9861 9.16268C32.0557 8.96053 32.083 8.74621 32.0661 8.53308C32.0492 8.31995 31.9886 8.11257 31.888 7.92388C31.7873 7.73519 31.6489 7.56922 31.4813 7.43632C31.3136 7.30342 31.1204 7.20644 30.9136 7.15142L30.5453 7.05305C30.3389 6.9974 30.1232 6.98477 29.9117 7.01595C29.7002 7.04713 29.4974 7.12145 29.3159 7.23429C29.1344 7.34714 28.978 7.49609 28.8566 7.67188C28.7352 7.84767 28.6513 8.04654 28.6101 8.25613L28.2899 9.88807C28.2153 10.2757 28.2901 10.6772 28.4992 11.012C28.7083 11.3469 29.0363 11.5906 29.4176 11.6941V11.6969ZM29.3326 10.0954L29.6528 8.46277C29.6747 8.34973 29.7353 8.24784 29.8242 8.17461C29.9132 8.10138 30.0249 8.06139 30.1401 8.06151C30.1841 8.06158 30.2279 8.06729 30.2704 8.0785L30.6388 8.17757C30.7049 8.19495 30.7667 8.22579 30.8203 8.26817C30.8739 8.31054 30.9181 8.36353 30.9503 8.42381C30.9824 8.48408 31.0017 8.55034 31.007 8.61843C31.0123 8.68652 31.0034 8.75496 30.9809 8.81945L30.4412 10.3927C30.3998 10.5116 30.315 10.6106 30.2038 10.6697C30.0925 10.7289 29.963 10.7439 29.8412 10.7118L29.6924 10.6722C29.5708 10.639 29.4661 10.5611 29.3994 10.4542C29.3327 10.3473 29.3089 10.2192 29.3326 10.0954Z" fill="#424242"/>
</g>
<defs>
<clipPath id="clip0_1858_49">
<rect width="32.442" height="36.2339" fill="white" transform="translate(9 7)"/>
</clipPath>
</defs>
</svg>
