<svg width="50" height="50" viewBox="0 0 50 50" fill="none" xmlns="http://www.w3.org/2000/svg">
<rect opacity="0.15" width="50" height="50" rx="12" fill="#F39019" fill-opacity="0.42"/>
<g clip-path="url(#clip0_1856_43)">
<path d="M34.5315 17.4831L35.1362 16.8783C35.0201 16.8721 34.9069 16.8402 34.8046 16.7849C34.7023 16.7297 34.6135 16.6524 34.5447 16.5587C34.4758 16.465 34.4287 16.3572 34.4065 16.243C34.3844 16.1289 34.3878 16.0113 34.4166 15.8986L33.6727 16.6364C31.0132 14.1779 27.5563 12.7608 23.9363 12.6451L23.894 13.8546C27.2073 13.9588 30.3738 15.246 32.8201 17.4831L31.0663 19.2368C29.034 17.3935 26.407 16.3419 23.6642 16.2736V17.4831C26.0983 17.5492 28.4299 18.4771 30.2438 20.1016L28.5445 21.8009C27.1142 20.572 25.2899 19.898 23.4042 19.902C22.7304 19.9002 22.0593 19.9876 21.4085 20.1621L21.7169 21.3292C22.7417 21.0607 23.8157 21.0408 24.8497 21.2712C25.8837 21.5015 26.8477 21.9755 27.6616 22.6536L25.9501 24.3772C25.1882 23.8036 24.2548 23.5041 23.3013 23.5272C22.3479 23.5504 21.4302 23.8948 20.697 24.5048C19.9637 25.1147 19.458 25.9544 19.2616 26.8877C19.0653 27.821 19.1898 28.7933 19.6151 29.6469C20.0404 30.5006 20.7416 31.1856 21.6049 31.591C22.4682 31.9964 23.4431 32.0984 24.3716 31.8804C25.3001 31.6624 26.1278 31.1373 26.7205 30.3901C27.3133 29.6429 27.6364 28.7175 27.6374 27.7637C27.6396 26.8511 27.3422 25.9631 26.7907 25.2359L28.5143 23.5305C29.3148 24.491 29.8284 25.6576 29.9963 26.8966C30.1642 28.1356 29.9795 29.3968 29.4634 30.5356C28.9472 31.6744 28.1206 32.6448 27.0783 33.3353C26.036 34.0259 24.8201 34.4087 23.5702 34.4398C22.3203 34.471 21.0869 34.1493 20.0114 33.5116C18.9359 32.8738 18.062 31.9459 17.4897 30.8343C16.9175 29.7226 16.6701 28.4721 16.776 27.2263C16.8819 25.9805 17.3368 24.7897 18.0884 23.7906L17.1208 23.0649C16.233 24.2511 15.6984 25.6642 15.5788 27.1411C15.4592 28.618 15.7594 30.0987 16.4449 31.4124C17.1303 32.7261 18.1731 33.8193 19.4529 34.566C20.7327 35.3128 22.1975 35.6826 23.6785 35.6329C25.1594 35.5833 26.5961 35.1161 27.823 34.2852C29.0499 33.4544 30.0171 32.2937 30.6129 30.9371C31.2088 29.5804 31.4091 28.083 31.1908 26.6174C30.9725 25.1518 30.3444 23.7777 29.379 22.6536L31.0784 20.9603C32.2904 22.3229 33.1181 23.9834 33.4767 25.7714C33.8353 27.5594 33.7118 29.4106 33.119 31.1351C32.5261 32.8597 31.4852 34.3955 30.103 35.5851C28.7208 36.7747 27.0471 37.5752 25.2535 37.9046C23.4599 38.2339 21.6109 38.0803 19.8963 37.4594C18.1817 36.8385 16.663 35.7726 15.4962 34.3712C14.3293 32.9698 13.5562 31.2832 13.2561 29.4845C12.9561 27.6857 13.1399 25.8395 13.7887 24.1353L12.6457 23.6938C11.9158 25.6014 11.7075 27.6691 12.0424 29.684C12.3773 31.6989 13.2432 33.5881 14.551 35.157C15.8588 36.726 17.5611 37.9179 19.4827 38.6102C21.4044 39.3025 23.4758 39.47 25.4837 39.0955C27.4916 38.7211 29.3634 37.8181 30.9063 36.4797C32.4492 35.1413 33.6074 33.4159 34.2617 31.481C34.9161 29.5461 35.0428 27.4718 34.6289 25.4717C34.215 23.4715 33.2754 21.6179 31.9069 20.1016L33.6607 18.3539C35.3278 20.1727 36.4811 22.4022 37.0023 24.8137C37.5236 27.2253 37.394 29.7321 36.6269 32.077C35.8597 34.422 34.4827 36.5207 32.6369 38.1579C30.7911 39.7951 28.5431 40.9118 26.1234 41.3937C23.7036 41.8755 21.1993 41.705 18.8672 40.8997C16.5351 40.0944 14.4591 38.6832 12.8523 36.811C11.2454 34.9387 10.1655 32.6728 9.72322 30.2455C9.28097 27.8182 9.49232 25.317 10.3356 22.9983L9.19866 22.5871C8.28606 25.1096 8.06106 27.8296 8.54674 30.4678C9.03242 33.1059 10.2113 35.5674 11.9624 37.5996C13.7135 39.6317 15.9737 41.1614 18.5112 42.0316C21.0487 42.9018 23.772 43.0811 26.4016 42.5513C29.0313 42.0215 31.4727 40.8015 33.4752 39.0166C35.4777 37.2317 36.9693 34.9461 37.7968 32.3944C38.6244 29.8427 38.7581 27.1168 38.1842 24.4964C37.6104 21.8759 36.3497 19.4554 34.5315 17.4831ZM23.4042 30.7875C22.9324 30.7883 22.4669 30.6787 22.045 30.4675C21.6232 30.2563 21.2566 29.9492 20.9746 29.571C20.6926 29.1927 20.503 28.7537 20.4211 28.2891C20.3391 27.8245 20.367 27.3471 20.5025 26.8952C20.6381 26.4433 20.8774 26.0293 21.2016 25.6865C21.5257 25.3436 21.9255 25.0814 22.3691 24.9207C22.8128 24.7601 23.2878 24.7054 23.7563 24.7612C24.2248 24.817 24.6737 24.9816 25.0672 25.242L23.6521 26.6631H24.7406V27.3162L25.9501 26.1067C26.2497 26.564 26.4197 27.0939 26.4421 27.6401C26.4644 28.1863 26.3383 28.7284 26.0771 29.2086C25.8159 29.6888 25.4294 30.0892 24.9587 30.3672C24.488 30.6453 23.9508 30.7905 23.4042 30.7875Z" fill="#424242"/>
<path d="M14.6402 22.1638C16.1282 22.1638 17.5827 21.7226 18.8198 20.8959C20.057 20.0693 21.0212 18.8943 21.5906 17.5197C22.16 16.145 22.309 14.6324 22.0187 13.1731C21.7284 11.7137 21.0119 10.3732 19.9598 9.32113C18.9077 8.26901 17.5672 7.55251 16.1079 7.26223C14.6486 6.97195 13.1359 7.12094 11.7613 7.69034C10.3866 8.25974 9.21169 9.22399 8.38505 10.4611C7.55841 11.6983 7.11719 13.1528 7.11719 14.6407C7.11879 16.6355 7.91191 18.5481 9.32241 19.9586C10.7329 21.3691 12.6455 22.1622 14.6402 22.1638ZM14.6402 8.28484C15.8973 8.28484 17.1262 8.65761 18.1714 9.356C19.2166 10.0544 20.0312 11.047 20.5123 12.2084C20.9934 13.3698 21.1192 14.6478 20.874 15.8807C20.6287 17.1136 20.0234 18.2461 19.1345 19.135C18.2456 20.0239 17.1131 20.6292 15.8802 20.8745C14.6473 21.1197 13.3693 20.9939 12.2079 20.5128C11.0466 20.0317 10.0539 19.2171 9.35551 18.1719C8.65711 17.1266 8.28435 15.8978 8.28435 14.6407C8.28595 12.9555 8.9561 11.3398 10.1477 10.1482C11.3393 8.95659 12.955 8.28644 14.6402 8.28484Z" fill="#F39019"/>
<path d="M11.6879 14.1448L10.8594 14.9673L13.1574 17.2653C13.2686 17.3756 13.4181 17.4384 13.5747 17.4407C13.7291 17.4369 13.8763 17.3741 13.9859 17.2653L18.4187 12.8385L17.5902 12.0403L13.5747 16.0558L11.6879 14.175V14.1448Z" fill="#424242"/>
<path d="M42.8344 11.6351C42.7842 11.519 42.6988 11.4215 42.5903 11.3564C42.4819 11.2913 42.3557 11.2619 42.2296 11.2723L40.6694 11.3267L41.7821 10.2261L40.9294 9.38546L39.859 10.474L39.9134 8.91375C39.9178 8.79281 39.8859 8.67333 39.8217 8.57075C39.7574 8.46818 39.6639 8.38723 39.5532 8.33838C39.4425 8.28953 39.3196 8.27503 39.2006 8.29674C39.0815 8.31846 38.9717 8.3754 38.8854 8.46019L35.7165 11.6351C35.6551 11.6965 35.6077 11.7705 35.5774 11.8519C35.5471 11.9332 35.5348 12.0202 35.5411 12.1068L35.7286 14.6044L35.021 15.312L23.3555 26.9594V27.806H24.2142L35.9463 16.074L36.551 15.4692L39.0486 15.6567C39.1362 15.6639 39.2244 15.652 39.3069 15.6217C39.3894 15.5914 39.4643 15.5435 39.5264 15.4813L42.6953 12.3124C42.7849 12.2273 42.8463 12.1167 42.8712 11.9956C42.896 11.8745 42.8832 11.7487 42.8344 11.6351ZM38.6011 10.4256L38.5527 11.75L36.8353 13.4735L36.7506 12.2943L38.6011 10.4256ZM38.8491 14.4411L37.6396 14.3504L39.4357 12.5846L40.7601 12.5362L38.8491 14.4411Z" fill="#F39019"/>
</g>
<defs>
<clipPath id="clip0_1856_43">
<rect width="35.7647" height="35.7647" fill="white" transform="translate(7.11719 7.11768)"/>
</clipPath>
</defs>
</svg>
