<svg width="20" height="20" viewBox="0 0 20 20" fill="none" xmlns="http://www.w3.org/2000/svg">
<g clip-path="url(#clip0_1822_120)">
<path d="M8.12528 16.9184C8.05593 16.9184 7.98778 16.9 7.92759 16.8652C7.8674 16.8304 7.81725 16.7802 7.78212 16.7198C6.45553 14.4338 2.91795 9.56706 2.88238 9.51802C2.82562 9.44023 2.79847 9.34437 2.80589 9.248C2.81331 9.15162 2.85481 9.06117 2.9228 8.99321L4.01051 7.90641C4.07673 7.84026 4.16377 7.79966 4.25652 7.79167C4.34927 7.78368 4.44185 7.80881 4.51819 7.86268L8.04202 10.351C10.3997 7.29332 12.5897 5.18185 14.0303 3.93401C15.6519 2.53127 16.6843 1.89979 16.7275 1.87363C16.7894 1.83609 16.8603 1.8163 16.9324 1.81641H18.6919C18.7726 1.81647 18.8513 1.8413 18.9177 1.8876C18.9841 1.93391 19.035 1.99951 19.0637 2.07572C19.0924 2.15194 19.0975 2.23517 19.0784 2.3144C19.0593 2.39363 19.0169 2.46512 18.9567 2.51941C13.9608 7.02111 8.52544 16.6188 8.47128 16.7153C8.43686 16.7768 8.38702 16.8281 8.32678 16.8639C8.26654 16.8998 8.19802 16.919 8.12811 16.9196L8.12528 16.9184Z" fill="#F39019"/>
<path d="M14.8398 19.0909H1.3083C1.2027 19.0909 1.10143 19.0485 1.02677 18.973C0.952103 18.8975 0.910156 18.7951 0.910156 18.6883V5.00542C0.910263 4.89871 0.952257 4.79642 1.02691 4.721C1.10157 4.64559 1.20277 4.60323 1.3083 4.60323H10.0819C10.1352 4.60151 10.1884 4.61065 10.2381 4.6301C10.2879 4.64955 10.3333 4.67891 10.3716 4.71645C10.4099 4.75398 10.4404 4.79892 10.4612 4.8486C10.482 4.89827 10.4927 4.95167 10.4927 5.00562C10.4927 5.05957 10.482 5.11297 10.4612 5.16265C10.4404 5.21232 10.4099 5.25726 10.3716 5.2948C10.3333 5.33233 10.2879 5.3617 10.2381 5.38115C10.1884 5.40059 10.1352 5.40973 10.0819 5.40801H1.70603V18.2861H14.4416V9.8153C14.4399 9.76137 14.449 9.70766 14.4682 9.65734C14.4874 9.60701 14.5165 9.56111 14.5536 9.52236C14.5907 9.48361 14.6352 9.4528 14.6843 9.43176C14.7334 9.41072 14.7862 9.39988 14.8396 9.39988C14.8929 9.39988 14.9457 9.41072 14.9949 9.43176C15.044 9.4528 15.0884 9.48361 15.1255 9.52236C15.1627 9.56111 15.1917 9.60701 15.2109 9.65734C15.2302 9.70766 15.2392 9.76137 15.2375 9.8153V18.6883C15.2375 18.795 15.1956 18.8974 15.121 18.9728C15.0465 19.0483 14.9453 19.0908 14.8398 19.0909Z" fill="#171C24"/>
</g>
<defs>
<clipPath id="clip0_1822_120">
<rect width="18.1818" height="17.2727" fill="white" transform="translate(0.910156 1.81812)"/>
</clipPath>
</defs>
</svg>
