<svg width="20" height="21" viewBox="0 0 20 21" fill="none" xmlns="http://www.w3.org/2000/svg">
<g clip-path="url(#clip0_1822_486)">
<path fill-rule="evenodd" clip-rule="evenodd" d="M6.3484 15.7087C6.30139 15.5935 6.22509 15.4926 6.12706 15.4159C5.38138 14.8395 4.77842 14.0991 4.36485 13.2522C3.95129 12.4052 3.73824 11.4745 3.74219 10.532C3.74299 9.47444 4.01221 8.43443 4.52462 7.50935C5.03704 6.58427 5.77589 5.80439 6.67195 5.24277C7.56801 4.68116 8.59197 4.35618 9.6479 4.29828C10.7038 4.24038 11.7572 4.45146 12.7093 4.91174C13.6614 5.37202 14.4811 6.06644 15.0915 6.92995C15.702 7.79346 16.0833 8.7978 16.1998 9.84889C16.3162 10.9 16.1639 11.9634 15.7572 12.9396C15.3504 13.9158 14.7026 14.7727 13.8743 15.4302C13.7792 15.5039 13.7033 15.5994 13.6529 15.7087H6.3484ZM7.33377 11.5673L8.76183 12.9954C8.83274 13.0667 8.91792 13.1223 9.0118 13.1584C9.10567 13.1945 9.20613 13.2104 9.30657 13.205C9.40702 13.1996 9.50519 13.1731 9.59466 13.1271C9.68413 13.0811 9.76287 13.0168 9.82573 12.9382L12.6819 9.36808C12.7408 9.29461 12.7846 9.2102 12.8107 9.11973C12.8369 9.02925 12.8449 8.93449 12.8343 8.84092C12.8236 8.74734 12.7946 8.65678 12.7488 8.57447C12.7031 8.49216 12.6415 8.41971 12.5676 8.3613C12.4196 8.24455 12.2315 8.19104 12.0443 8.21244C11.857 8.23384 11.6858 8.32842 11.568 8.47554L9.20453 11.4245L8.36197 10.5677C8.22538 10.4507 8.04967 10.3896 7.86997 10.3965C7.69026 10.4034 7.51979 10.4779 7.39263 10.6051C7.26546 10.7323 7.19097 10.9027 7.18403 11.0824C7.17709 11.2621 7.23821 11.4378 7.35519 11.5744L7.33377 11.5673ZM13.5744 17.1367V18.5648C13.5744 19.1329 13.3487 19.6778 12.947 20.0795C12.5453 20.4812 12.0004 20.7069 11.4323 20.7069H8.57618C8.00928 20.7083 7.46494 20.4849 7.06244 20.0857C6.86261 19.8861 6.70423 19.649 6.59639 19.388C6.48856 19.127 6.4334 18.8472 6.43409 18.5648V17.1367H13.5744ZM9.29021 0.714031C9.29021 0.524658 9.36544 0.343041 9.49935 0.209135C9.63325 0.075228 9.81487 0 10.0042 0C10.1936 0 10.3752 0.075228 10.5091 0.209135C10.643 0.343041 10.7183 0.524658 10.7183 0.714031V2.14209C10.7183 2.33147 10.643 2.51308 10.5091 2.64699C10.3752 2.78089 10.1936 2.85612 10.0042 2.85612C9.81487 2.85612 9.63325 2.78089 9.49935 2.64699C9.36544 2.51308 9.29021 2.33147 9.29021 2.14209V0.714031ZM17.8586 11.4245C17.6692 11.4245 17.4876 11.3493 17.3537 11.2154C17.2198 11.0815 17.1445 10.8998 17.1445 10.7105C17.1445 10.5211 17.2198 10.3395 17.3537 10.2056C17.4876 10.0717 17.6692 9.99643 17.8586 9.99643H19.2866C19.476 9.99643 19.6576 10.0717 19.7915 10.2056C19.9254 10.3395 20.0007 10.5211 20.0007 10.7105C20.0007 10.8998 19.9254 11.0815 19.7915 11.2154C19.6576 11.3493 19.476 11.4245 19.2866 11.4245H17.8586ZM0.721843 11.4245C0.53247 11.4245 0.350854 11.3493 0.216947 11.2154C0.0830407 11.0815 0.0078125 10.8998 0.0078125 10.7105C0.0078125 10.5211 0.0830407 10.3395 0.216947 10.2056C0.350854 10.0717 0.53247 9.99643 0.721843 9.99643H2.1499C2.33928 9.99643 2.52089 10.0717 2.6548 10.2056C2.78871 10.3395 2.86394 10.5211 2.86394 10.7105C2.86394 10.8998 2.78871 11.0815 2.6548 11.2154C2.52089 11.3493 2.33928 11.4245 2.1499 11.4245H0.721843ZM17.1445 2.56337C17.2086 2.48862 17.2873 2.42792 17.3759 2.38506C17.4645 2.3422 17.561 2.31812 17.6593 2.31432C17.7577 2.31052 17.8557 2.32709 17.9474 2.36299C18.039 2.39888 18.1222 2.45333 18.1918 2.52292C18.2614 2.59251 18.3158 2.67572 18.3517 2.76735C18.3876 2.85898 18.4042 2.95704 18.4004 3.05538C18.3966 3.15371 18.3725 3.2502 18.3296 3.33879C18.2868 3.42737 18.2261 3.50614 18.1513 3.57015L17.1445 4.58408C17.0101 4.71853 16.8277 4.79407 16.6376 4.79407C16.4474 4.79407 16.2651 4.71853 16.1306 4.58408C15.9962 4.44962 15.9206 4.26726 15.9206 4.07712C15.9206 3.88697 15.9962 3.70461 16.1306 3.57015L17.1445 2.56337ZM1.85001 3.57015C1.73303 3.43356 1.67191 3.25785 1.67885 3.07815C1.68579 2.89844 1.76029 2.72798 1.88745 2.60081C2.01462 2.47365 2.18509 2.39915 2.36479 2.39221C2.54449 2.38527 2.7202 2.44639 2.8568 2.56337L3.87072 3.57015C4.00517 3.70461 4.08071 3.88697 4.08071 4.07712C4.08071 4.26726 4.00517 4.44962 3.87072 4.58408C3.73626 4.71853 3.5539 4.79407 3.36376 4.79407C3.17361 4.79407 2.99125 4.71853 2.8568 4.58408L1.85001 3.57015Z" fill="white"/>
</g>
<defs>
<clipPath id="clip0_1822_486">
<rect width="20" height="20.714" fill="white"/>
</clipPath>
</defs>
</svg>
