<svg width="44" height="35" viewBox="0 0 44 35" fill="none" xmlns="http://www.w3.org/2000/svg">
<path d="M13.387 24.6604H0L0.0481725 24.333C0.274044 22.8487 0.898181 21.4938 1.84976 20.5448C2.27498 20.1085 2.78374 19.7623 3.34567 19.5269C3.9076 19.2915 4.51119 19.1717 5.12043 19.1747H8.26663C8.87586 19.1717 9.47943 19.2915 10.0413 19.5269C10.6033 19.7623 11.112 20.1085 11.5372 20.5448C12.4889 21.4938 13.1129 22.8487 13.3387 24.333L13.387 24.6604ZM36.4538 17.9211H36.4614C37.3334 17.9179 38.1686 17.5698 38.7847 16.9528C39.4009 16.3358 39.7478 15.5001 39.7499 14.6282V13.6336C39.748 12.7607 39.4004 11.924 38.7831 11.3068C38.1659 10.6896 37.3293 10.342 36.4564 10.3401C35.565 10.3341 34.7072 10.6795 34.0687 11.3016C33.7595 11.6058 33.5145 11.9689 33.348 12.3694C33.1815 12.7699 33.097 13.1997 33.0995 13.6335V14.6282C33.0968 15.0619 33.1811 15.4918 33.3476 15.8924C33.5141 16.2929 33.7593 16.656 34.0687 16.96C34.7066 17.5813 35.5634 17.9265 36.4538 17.9211ZM34.8528 19.1746C34.2432 19.1716 33.6392 19.2914 33.0769 19.5268C32.5146 19.7622 32.0054 20.1084 31.5797 20.5447C30.6307 21.4937 30.004 22.8486 29.7807 24.3329L29.7302 24.6603H43.1194L43.0712 24.3329C42.8454 22.8486 42.2212 21.4937 41.2697 20.5447C40.8441 20.1082 40.3349 19.7619 39.7726 19.5265C39.2102 19.2911 38.6062 19.1714 37.9965 19.1746H34.8528ZM6.72141 17.9211H6.72899C7.60091 17.9179 8.43613 17.5698 9.05225 16.9528C9.66837 16.3358 10.0153 15.5001 10.0173 14.6282V13.6336C10.0156 12.761 9.66844 11.9247 9.05174 11.3074C8.43504 10.6901 7.599 10.3422 6.72646 10.3396C5.83419 10.3333 4.97538 10.6789 4.33628 11.3016C4.02796 11.6062 3.78363 11.9694 3.61761 12.3698C3.4516 12.7702 3.36726 13.1997 3.36955 13.6331V14.6282C3.36697 15.0617 3.45117 15.4913 3.6172 15.8918C3.78323 16.2923 4.02772 16.6555 4.33628 16.96C4.97419 17.5813 5.83098 17.9265 6.72141 17.9211ZM26.7435 5.48316L25.9493 7.37856L32.0111 5.57706L29.0323 0L28.2432 1.88782C20.9 -0.928668 13.3412 2.12127 11.1083 7.29232C14.8636 4.4226 21.0979 2.97381 26.7435 5.48316ZM16.3763 29.5168L17.1679 27.6189L11.1083 29.4229L14.0871 35L14.8762 33.1096C22.2167 35.9286 29.7779 32.8762 32.0108 27.7052C28.2557 30.5774 22.0189 32.0262 16.3759 29.5168H16.3763ZM27.3246 18.8524C27.1784 19.4776 26.9316 20.0749 26.5938 20.6209L26.9313 21.1867L27.3448 21.8793C26.9427 22.41 26.4697 22.883 25.939 23.2851L25.2463 22.8716L24.6806 22.534C24.1345 22.8718 23.5372 23.1186 22.912 23.2648L22.7496 23.9068L22.5517 24.6882C21.8925 24.7771 21.2243 24.7771 20.565 24.6882L20.3696 23.9068L20.2073 23.2648C19.5821 23.1186 18.9848 22.8718 18.4387 22.534L17.8703 22.8716L17.1776 23.2851C16.9139 23.0837 16.6639 22.865 16.4292 22.6305C16.194 22.3954 15.9753 22.1444 15.7745 21.8793L16.1881 21.1866L16.5256 20.6209C16.1858 20.0758 15.9389 19.4782 15.7949 18.8523L15.1529 18.6899L14.3715 18.492C14.2801 17.8329 14.2801 17.1644 14.3715 16.5053L15.1529 16.3099L15.7949 16.1475C15.94 15.522 16.1869 14.9245 16.5256 14.379L16.1881 13.8106L15.7745 13.1179C16.1777 12.5898 16.6496 12.1179 17.1777 11.7148L17.8704 12.1283L18.4388 12.4658C18.9842 12.1263 19.5817 11.8786 20.2073 11.7325L20.3697 11.0931L20.5651 10.3117C21.2242 10.2203 21.8927 10.2203 22.5518 10.3117L22.7497 11.0931L22.9121 11.7325C23.5377 11.8786 24.1352 12.1263 24.6806 12.4658L25.2464 12.1283L25.9391 11.7148C26.4695 12.1162 26.9424 12.5883 27.3448 13.1179L26.9312 13.8106L26.5937 14.3765C26.9311 14.9236 27.1778 15.5217 27.3245 16.1475L27.9665 16.3099L28.7479 16.5053C28.8368 17.1646 28.8368 17.8327 28.7479 18.492L27.9665 18.6899L27.3246 18.8524ZM25.3631 17.5C25.3634 16.7474 25.1404 16.0116 24.7225 15.3857C24.3045 14.7599 23.7103 14.272 23.015 13.9839C22.3198 13.6958 21.5547 13.6203 20.8165 13.7671C20.0783 13.9138 19.4003 14.2762 18.8681 14.8084C18.3359 15.3406 17.9736 16.0186 17.8268 16.7568C17.68 17.4949 17.7555 18.26 18.0436 18.9553C18.3317 19.6506 18.8196 20.2448 19.4455 20.6628C20.0713 21.0807 20.8071 21.3037 21.5597 21.3034C22.5678 21.3012 23.5339 20.8998 24.2467 20.187C24.9595 19.4742 25.3609 18.5081 25.3631 17.5Z" fill="black"/>
</svg>
