<svg width="35" height="35" viewBox="0 0 35 35" fill="none" xmlns="http://www.w3.org/2000/svg">
<g clip-path="url(#clip0_1017_235)">
<path d="M9.86373 9.96987L11.0304 10.182C11.1365 10.6062 11.3486 11.0835 11.5607 11.5078L10.8713 12.5153C10.7122 12.7275 10.7652 12.9926 10.9243 13.2047L12.5683 14.8487C12.7274 15.0608 13.0455 15.0608 13.2577 14.9017L14.2652 14.2123C14.6895 14.4244 15.1137 14.6365 15.538 14.7426L15.7501 15.9093C15.8031 16.1744 16.0152 16.3335 16.2804 16.3335H18.6137C18.8789 16.3335 19.091 16.1744 19.144 15.9093L19.3562 14.7426C19.7804 14.6365 20.2577 14.4244 20.6289 14.2123L21.6365 14.9017C21.8486 15.0608 22.1137 15.0078 22.3258 14.8487L23.9698 13.2047C24.1819 13.0456 24.1819 12.7275 24.0228 12.5153L23.3334 11.5078C23.5455 11.0835 23.7577 10.6593 23.8637 10.235L25.0304 10.0229C25.2955 9.96987 25.4546 9.75775 25.4546 9.4926V7.15927C25.4546 6.89412 25.2955 6.682 25.0304 6.62897L23.8637 6.41684C23.7577 5.9926 23.5455 5.51533 23.3334 5.09109L24.0228 4.13654C24.1819 3.92442 24.1289 3.65927 23.9698 3.44715L22.3258 1.80321C22.1668 1.64412 21.8486 1.59109 21.6365 1.75018L20.6289 2.43957C20.2046 2.22745 19.7804 2.01533 19.3562 1.90927L19.144 0.742602C19.091 0.47745 18.8789 0.318359 18.6137 0.318359H16.2804C16.0152 0.318359 15.8031 0.530481 15.7501 0.742602L15.538 1.90927C15.0607 2.01533 14.6365 2.22745 14.2122 2.43957L13.2577 1.75018C13.1516 1.59109 12.8865 1.59109 12.6743 1.75018L11.0304 3.39412C10.8713 3.55321 10.8183 3.87139 10.9774 4.08351L11.6668 5.09109C11.4546 5.51533 11.2425 5.93957 11.1365 6.36381L9.96979 6.57593C9.70464 6.62897 9.54554 6.84109 9.54554 7.10624V9.43957C9.43948 9.70472 9.65161 9.91684 9.86373 9.96987ZM17.5001 4.71987C19.5152 4.71987 21.1062 6.36381 21.1062 8.32594C21.1062 10.3411 19.4622 11.932 17.5001 11.932C15.4849 11.932 13.894 10.2881 13.894 8.32594C13.894 6.31078 15.4849 4.71987 17.5001 4.71987Z" fill="white"/>
<path d="M6.89392 20.2576C9.01513 20.2576 10.7651 18.5076 10.7651 16.3863C10.7651 14.2651 9.01513 12.5151 6.89392 12.5151C4.77271 12.5151 3.02271 14.2651 3.02271 16.3863C3.02271 18.5076 4.71968 20.2576 6.89392 20.2576Z" fill="white"/>
<path d="M13.4697 27.7352C13.4697 24.0761 10.5 21.1064 6.89392 21.1064C3.23483 21.1064 0.265137 24.0761 0.265137 27.7352C0.265137 28.0004 0.477258 28.2655 0.79544 28.2655H12.9394C13.2576 28.2655 13.4697 28.0534 13.4697 27.7352Z" fill="white"/>
<path d="M24.2349 16.3863C24.2349 18.5076 25.9849 20.2576 28.1061 20.2576C30.2273 20.2576 31.9773 18.5076 31.9773 16.3863C31.9773 14.2651 30.2273 12.5151 28.1061 12.5151C25.9849 12.5151 24.2349 14.2121 24.2349 16.3863Z" fill="white"/>
<path d="M17.4999 27.6289C13.8408 27.6289 10.8711 30.5986 10.8711 34.2047C10.8711 34.5228 11.0832 34.735 11.4014 34.735H23.5453C23.8105 34.735 24.0756 34.5228 24.0756 34.2047C24.1287 30.5456 21.159 27.6289 17.4999 27.6289Z" fill="white"/>
<path d="M28.1061 21.1592C24.447 21.1592 21.4773 24.1289 21.4773 27.788C21.4773 28.0531 21.6894 28.3183 22.0076 28.3183H34.1515C34.4697 28.3183 34.6818 28.0531 34.6818 27.788C34.7349 24.1289 31.7652 21.1592 28.1061 21.1592Z" fill="white"/>
<path d="M17.4999 18.9321C15.3787 18.9321 13.6287 20.6821 13.6287 22.8033C13.6287 24.9246 15.3787 26.6746 17.4999 26.6746C19.6211 26.6746 21.3711 24.9246 21.3711 22.8033C21.3711 20.6821 19.6211 18.9321 17.4999 18.9321Z" fill="white"/>
<path d="M26.25 3.71246C26.5682 3.71246 26.7803 3.50034 26.7803 3.18216C26.7803 2.86398 26.5682 2.65186 26.25 2.65186C25.9849 2.65186 25.7197 2.86398 25.7197 3.18216C25.7197 3.44731 25.9849 3.71246 26.25 3.71246Z" fill="white"/>
<path d="M29.2726 4.29547C29.3787 4.29547 29.4847 4.24244 29.5908 4.18941C29.7499 4.08335 29.8029 3.92426 29.8029 3.76517C29.8029 3.65911 29.7499 3.55305 29.6968 3.44698C29.5908 3.28789 29.4317 3.23486 29.2726 3.23486C29.1665 3.23486 29.0605 3.28789 28.9544 3.34092C28.7423 3.50001 28.6893 3.8182 28.8484 4.08335C28.9544 4.18941 29.1135 4.29547 29.2726 4.29547Z" fill="white"/>
<path d="M29.5379 7.42438C29.8307 7.42438 30.0682 7.18695 30.0682 6.89407C30.0682 6.60119 29.8307 6.36377 29.5379 6.36377C29.245 6.36377 29.0076 6.60119 29.0076 6.89407C29.0076 7.18695 29.245 7.42438 29.5379 7.42438Z" fill="white"/>
<path d="M29.5379 9.0152C29.8307 9.0152 30.0682 8.77777 30.0682 8.48489C30.0682 8.19201 29.8307 7.95459 29.5379 7.95459C29.245 7.95459 29.0076 8.19201 29.0076 8.48489C29.0076 8.77777 29.245 9.0152 29.5379 9.0152Z" fill="white"/>
<path d="M27.8408 3.71246C28.1337 3.71246 28.3712 3.47504 28.3712 3.18216C28.3712 2.88928 28.1337 2.65186 27.8408 2.65186C27.548 2.65186 27.3105 2.88928 27.3105 3.18216C27.3105 3.47504 27.548 3.71246 27.8408 3.71246Z" fill="white"/>
<path d="M29.5378 11.1367C29.3257 11.1367 29.1136 11.2958 29.0605 11.5079C29.4318 11.561 29.7499 11.667 30.0681 11.8261C30.0681 11.7731 30.0681 11.7201 30.0681 11.667C30.0681 11.4019 29.803 11.1367 29.5378 11.1367Z" fill="white"/>
<path d="M29.5379 5.83356C29.8307 5.83356 30.0682 5.59613 30.0682 5.30325C30.0682 5.01037 29.8307 4.77295 29.5379 4.77295C29.245 4.77295 29.0076 5.01037 29.0076 5.30325C29.0076 5.59613 29.245 5.83356 29.5379 5.83356Z" fill="white"/>
<path d="M29.5379 10.606C29.8307 10.606 30.0682 10.3686 30.0682 10.0757C30.0682 9.78283 29.8307 9.54541 29.5379 9.54541C29.245 9.54541 29.0076 9.78283 29.0076 10.0757C29.0076 10.3686 29.245 10.606 29.5379 10.606Z" fill="white"/>
<path d="M5.46219 10.606C5.75507 10.606 5.99249 10.3686 5.99249 10.0757C5.99249 9.78283 5.75507 9.54541 5.46219 9.54541C5.16931 9.54541 4.93188 9.78283 4.93188 10.0757C4.93188 10.3686 5.16931 10.606 5.46219 10.606Z" fill="white"/>
<path d="M5.46219 9.0152C5.75507 9.0152 5.99249 8.77777 5.99249 8.48489C5.99249 8.19201 5.75507 7.95459 5.46219 7.95459C5.16931 7.95459 4.93188 8.19201 4.93188 8.48489C4.93188 8.77777 5.16931 9.0152 5.46219 9.0152Z" fill="white"/>
<path d="M5.99244 11.5079C5.93941 11.2958 5.72729 11.1367 5.51517 11.1367C5.19698 11.1367 4.98486 11.3488 4.98486 11.667V11.8261C5.30305 11.667 5.62123 11.614 5.99244 11.5079Z" fill="white"/>
<path d="M5.46219 7.42438C5.75507 7.42438 5.99249 7.18695 5.99249 6.89407C5.99249 6.60119 5.75507 6.36377 5.46219 6.36377C5.16931 6.36377 4.93188 6.60119 4.93188 6.89407C4.93188 7.18695 5.16931 7.42438 5.46219 7.42438Z" fill="white"/>
<path d="M7.15897 3.71246C7.45184 3.71246 7.68927 3.47504 7.68927 3.18216C7.68927 2.88928 7.45184 2.65186 7.15897 2.65186C6.86609 2.65186 6.62866 2.88928 6.62866 3.18216C6.62866 3.47504 6.86609 3.71246 7.15897 3.71246Z" fill="white"/>
<path d="M8.75003 3.71246C9.04291 3.71246 9.28033 3.47504 9.28033 3.18216C9.28033 2.88928 9.04291 2.65186 8.75003 2.65186C8.45715 2.65186 8.21973 2.88928 8.21973 3.18216C8.21973 3.47504 8.45715 3.71246 8.75003 3.71246Z" fill="white"/>
<path d="M5.72719 4.29547C5.88629 4.29547 6.04538 4.24244 6.15144 4.08335C6.20447 3.97729 6.2575 3.87123 6.2575 3.76517C6.2575 3.60608 6.20447 3.44698 6.04538 3.34092C5.93932 3.28789 5.83325 3.23486 5.72719 3.23486C5.5681 3.23486 5.40901 3.28789 5.30295 3.44698C5.14386 3.71214 5.19689 4.03032 5.40901 4.18941C5.51507 4.24244 5.62113 4.29547 5.72719 4.29547Z" fill="white"/>
<path d="M5.46219 5.83356C5.75507 5.83356 5.99249 5.59613 5.99249 5.30325C5.99249 5.01037 5.75507 4.77295 5.46219 4.77295C5.16931 4.77295 4.93188 5.01037 4.93188 5.30325C4.93188 5.59613 5.16931 5.83356 5.46219 5.83356Z" fill="white"/>
</g>
<defs>
<clipPath id="clip0_1017_235">
<rect width="35" height="35" fill="white"/>
</clipPath>
</defs>
</svg>
