<svg width="35" height="35" viewBox="0 0 35 35" fill="none" xmlns="http://www.w3.org/2000/svg">
<g clip-path="url(#clip0_1017_237)">
<path d="M17.5 9.82666L21.3471 11.8494L20.6122 7.56546L23.7266 4.53041L19.4237 3.90556L17.5 0L15.5763 3.90556L11.2734 4.53041L14.3878 7.56546L13.6529 11.8494L17.5 9.82666Z" fill="black"/>
<path d="M30.4977 10.8781L28.5741 6.97998L26.6504 10.8781L22.3496 11.5029L25.4618 14.5372L24.727 18.8219L28.5741 16.7992L32.4233 18.8219L31.6863 14.5372L35.0001 11.5029L30.4977 10.8781Z" fill="black"/>
<path d="M3.31383 14.5372L2.57683 18.8219L6.42605 16.7992L10.2731 18.8219L9.53827 14.5372L12.6505 11.5029L8.34972 10.8781L6.42605 6.97998L4.50237 10.8781L0 11.5029L3.31383 14.5372Z" fill="black"/>
<path d="M22.627 19.5508C22.627 16.724 20.3268 14.4238 17.5 14.4238C14.6732 14.4238 12.373 16.724 12.373 19.5508C12.373 22.3775 14.6732 24.6777 17.5 24.6777C20.3268 24.6777 22.627 22.3775 22.627 19.5508Z" fill="black"/>
<path d="M10.3223 31.8555V35H24.6777V31.8555C24.6777 27.8981 21.4574 24.6777 17.5 24.6777C13.5426 24.6777 10.3223 27.8981 10.3223 31.8555Z" fill="black"/>
<path d="M32.8809 33.9062C32.8809 31.0795 30.5807 28.7793 27.754 28.7793C27.2237 28.7793 26.7222 28.8834 26.2407 29.0335C26.531 29.9286 26.7286 30.8651 26.7286 31.8555V35H32.8809V33.9062Z" fill="black"/>
<path d="M31.8555 24.6777C31.8555 22.4157 30.0159 20.5762 27.7539 20.5762C25.4919 20.5762 23.6523 22.4157 23.6523 24.6777C23.6523 24.8083 23.6788 24.9317 23.6908 25.0591C24.702 25.9808 25.5175 27.1058 26.0415 28.3926C26.5643 28.6348 27.1408 28.7793 27.7539 28.7793C30.0159 28.7793 31.8555 26.9397 31.8555 24.6777Z" fill="black"/>
<path d="M11.3092 25.0591C11.3212 24.9317 11.3477 24.8083 11.3477 24.6777C11.3477 22.4157 9.50809 20.5762 7.24609 20.5762C4.98409 20.5762 3.14453 22.4157 3.14453 24.6777C3.14453 26.9397 4.98409 28.7793 7.24609 28.7793C7.85919 28.7793 8.43571 28.6348 8.95855 28.3929C9.48246 27.1058 10.298 25.9808 11.3092 25.0591Z" fill="black"/>
<path d="M2.11914 33.9062V35H8.27148V31.8555C8.27148 30.8651 8.46909 29.9286 8.75935 29.0335C8.27789 28.8834 7.77641 28.7793 7.24609 28.7793C4.41933 28.7793 2.11914 31.0795 2.11914 33.9062Z" fill="black"/>
</g>
<defs>
<clipPath id="clip0_1017_237">
<rect width="35" height="35" fill="white"/>
</clipPath>
</defs>
</svg>
