<svg width="66" height="66" viewBox="0 0 66 66" fill="none" xmlns="http://www.w3.org/2000/svg">
<g clip-path="url(#clip0_1822_377)">
<path d="M32.9997 59.7216C18.2533 59.7216 6.25391 47.7293 6.25391 32.9858C6.25391 18.2424 18.2507 6.25 32.9997 6.25C47.7486 6.25 59.7454 18.2424 59.7454 32.9858C59.7454 47.7293 47.746 59.7216 32.9997 59.7216ZM32.9997 8.43149C19.4536 8.43149 8.43491 19.4474 8.43491 32.9871C8.43491 46.5268 19.4536 57.544 32.9997 57.544C46.5457 57.544 57.5644 46.5281 57.5644 32.9871C57.5644 19.4461 46.5444 8.43149 32.9997 8.43149Z" fill="#FFD151"/>
<path d="M24.663 12.3269C24.663 14.7649 23.9397 17.1482 22.5847 19.1753C21.2297 21.2025 19.3038 22.7825 17.0505 23.7154C14.7972 24.6484 12.3178 24.8926 9.92573 24.4169C7.53366 23.9413 5.3364 22.7673 3.61181 21.0433C1.88722 19.3194 0.712764 17.1229 0.236951 14.7317C-0.238861 12.3406 0.00534305 9.86204 0.938683 7.60959C1.87202 5.35715 3.45258 3.43195 5.48048 2.07746C7.50838 0.72296 9.89254 0 12.3315 0C15.6019 0.000342485 18.7382 1.29917 21.0508 3.61084C23.3633 5.92251 24.6626 9.0577 24.663 12.3269Z" fill="black"/>
<path d="M12.3327 2.19787e-07C11.6281 -3.4597e-05 10.9248 0.0600267 10.2305 0.179531C13.0946 0.674459 15.6918 2.16469 17.5638 4.3873C19.4359 6.6099 20.4625 9.42204 20.4625 12.3275C20.4625 15.233 19.4359 18.0452 17.5638 20.2678C15.6918 22.4904 13.0946 23.9806 10.2305 24.4755C11.9141 24.767 13.6399 24.7056 15.2985 24.2951C16.9572 23.8847 18.5124 23.1342 19.8655 22.0912C21.2187 21.0483 22.3403 19.7356 23.1592 18.2365C23.9781 16.7374 24.4764 15.0846 24.6226 13.3828C24.7687 11.681 24.5595 9.9674 24.0082 8.35069C23.457 6.73399 22.5756 5.24943 21.4201 3.99117C20.2646 2.73291 18.8602 1.7284 17.2958 1.04134C15.7314 0.354288 14.0413 -0.000322289 12.3327 2.19787e-07Z" fill="#262626"/>
<path d="M65.9989 12.3269C65.9989 14.7649 65.2757 17.1481 63.9208 19.1752C62.5658 21.2023 60.64 22.7823 58.3868 23.7153C56.1336 24.6484 53.6542 24.8925 51.2621 24.417C48.8701 23.9415 46.6728 22.7676 44.9482 21.0438C43.2236 19.32 42.049 17.1236 41.573 14.7325C41.0971 12.3414 41.3411 9.86295 42.2743 7.61049C43.2074 5.35802 44.7877 3.43273 46.8155 2.07808C48.8432 0.723432 51.2272 0.000255446 53.6661 0C56.9368 -1.79427e-08 60.0734 1.29868 62.3862 3.61038C64.6991 5.92209 65.9985 9.05748 65.9989 12.3269Z" fill="#4267B2"/>
<path opacity="0.11" d="M65.9963 11.9743C65.9506 10.3558 65.5864 8.76207 64.9245 7.28427C64.2625 5.80646 63.3158 4.47349 62.1384 3.36152C60.9609 2.24954 59.5759 1.38034 58.0623 0.803568C56.5488 0.226795 54.9364 -0.0462492 53.3173 3.18373e-05C52.6785 0.0205561 52.0423 0.0896401 51.4141 0.206685C54.245 0.733145 56.8025 2.23326 58.6431 4.44698C60.4836 6.66069 61.4912 9.44844 61.4912 12.3269C61.4912 15.2054 60.4836 17.9931 58.6431 20.2069C56.8025 22.4206 54.245 23.9207 51.4141 24.4472C53.2234 24.7835 55.085 24.7107 56.8625 24.2343C58.64 23.7579 60.2884 22.8898 61.6866 21.6938C63.0849 20.4978 64.1977 19.0041 64.9434 17.3223C65.6892 15.6405 66.0489 13.8132 65.9963 11.9743Z" fill="white"/>
<path d="M24.663 53.6731C24.663 56.1111 23.9397 58.4944 22.5847 60.5215C21.2297 62.5487 19.3038 64.1286 17.0505 65.0616C14.7972 65.9946 12.3178 66.2387 9.92573 65.7631C7.53366 65.2875 5.3364 64.1135 3.61181 62.3895C1.88722 60.6656 0.712764 58.4691 0.236951 56.0779C-0.238861 53.6868 0.00534305 51.2082 0.938683 48.9558C1.87202 46.7033 3.45258 44.7781 5.48048 43.4236C7.50838 42.0691 9.89254 41.3462 12.3315 41.3462C15.602 41.3462 18.7385 42.6449 21.0511 44.9567C23.3637 47.2684 24.663 50.4038 24.663 53.6731Z" fill="#FF0000"/>
<path opacity="0.1" d="M12.3326 41.3462C11.3978 41.3456 10.4658 41.4509 9.55469 41.6601C12.2695 42.2897 14.6911 43.8197 16.4248 46.0009C18.1585 48.1821 19.1023 50.8859 19.1023 53.6718C19.1023 56.4577 18.1585 59.1615 16.4248 61.3427C14.6911 63.5239 12.2695 65.0539 9.55469 65.6835C11.2475 66.0745 13.0038 66.1035 14.7086 65.7687C16.4134 65.4339 18.0282 64.7428 19.4472 63.7407C20.8662 62.7385 22.0573 61.448 22.9426 59.9536C23.8279 58.4593 24.3873 56.7948 24.5843 55.0692C24.7812 53.3437 24.6112 51.596 24.0854 49.9407C23.5596 48.2854 22.6898 46.7599 21.5331 45.464C20.3764 44.1681 18.9588 43.1312 17.3733 42.4211C15.7877 41.711 14.07 41.3439 12.3326 41.3436V41.3462Z" fill="white"/>
<path d="M65.9989 53.6731C65.9989 56.1111 65.2757 58.4943 63.9208 60.5214C62.5658 62.5485 60.64 64.1285 58.3868 65.0615C56.1336 65.9945 53.6542 66.2387 51.2621 65.7632C48.8701 65.2877 46.6728 64.1138 44.9482 62.39C43.2236 60.6661 42.049 58.4698 41.573 56.0787C41.0971 53.6876 41.3411 51.2091 42.2743 48.9567C43.2074 46.7042 44.7877 44.7789 46.8155 43.4243C48.8432 42.0696 51.2272 41.3464 53.6661 41.3462C55.2856 41.346 56.8893 41.6647 58.3856 42.2842C59.8818 42.9036 61.2414 43.8115 62.3866 44.9562C63.5318 46.1009 64.4403 47.4598 65.0601 48.9555C65.6799 50.4511 65.9989 52.0542 65.9989 53.6731Z" fill="url(#paint0_linear_1822_377)"/>
<path opacity="0.14" d="M53.6695 41.3462C52.8346 41.3459 52.0017 41.4298 51.1836 41.5968C53.9648 42.169 56.4633 43.6829 58.2573 45.883C60.0514 48.0831 61.0311 50.8347 61.0311 53.6731C61.0311 56.5115 60.0514 59.263 58.2573 61.4631C56.4633 63.6632 53.9648 65.1772 51.1836 65.7494C52.8731 66.097 54.6169 66.0865 56.3021 65.7185C57.9873 65.3505 59.5766 64.6332 60.9672 63.6129C62.3578 62.5926 63.5189 61.2921 64.3753 59.7953C65.2318 58.2985 65.7646 56.6388 65.9393 54.9233C66.1141 53.2078 65.9269 51.4748 65.3898 49.8362C64.8528 48.1975 63.9778 46.6897 62.8215 45.4102C61.6652 44.1307 60.2532 43.1078 58.6767 42.4078C57.1003 41.7078 55.3945 41.3461 53.6695 41.3462Z" fill="white"/>
<path d="M28.9857 42.9559L28.929 35.3604C28.9186 35.0773 28.7982 34.8093 28.5934 34.6135C28.3886 34.4176 28.1155 34.3093 27.832 34.3115C27.5486 34.3137 27.2772 34.4263 27.0755 34.6253C26.8737 34.8243 26.7575 35.0941 26.7516 35.3774L26.8083 42.9729C26.8098 43.2519 26.9186 43.5197 27.1121 43.7208C27.3056 43.9219 27.5691 44.041 27.8479 44.0534L27.9047 44.0559C28.0481 44.055 28.1898 44.0258 28.3218 43.97C28.4538 43.9141 28.5735 43.8328 28.674 43.7305C28.7744 43.6283 28.8537 43.5073 28.9072 43.3743C28.9607 43.2414 28.9874 43.0992 28.9857 42.9559Z" fill="#FFD151"/>
<path d="M30.3722 35.3739H25.8099C25.5444 35.3739 25.2897 35.2685 25.1019 35.0808C24.9141 34.893 24.8086 34.6384 24.8086 34.373V29.142C24.8086 28.8764 24.9141 28.6217 25.1018 28.4338C25.2896 28.2459 25.5443 28.1401 25.8099 28.1398H30.3722C30.3928 28.1398 30.4131 28.1438 30.4321 28.1517C30.451 28.1595 30.4683 28.171 30.4828 28.1855C30.4973 28.2001 30.5088 28.2173 30.5167 28.2362C30.5245 28.2552 30.5286 28.2755 30.5286 28.2961V35.2189C30.5282 35.2602 30.5116 35.2996 30.4823 35.3286C30.453 35.3577 30.4135 35.3739 30.3722 35.3739Z" fill="#505FE1"/>
<path d="M40.2075 38.8535C37.2238 37.0228 33.9505 35.7125 30.5273 34.9788V28.5208C32.1118 28.1852 33.6672 27.7243 35.1788 27.1427C36.9314 26.4686 38.6182 25.6346 40.2178 24.6512L40.2075 38.8535Z" fill="#E5F4FF"/>
<path d="M40.2103 40.9523C39.9214 40.9523 39.6444 40.8376 39.4401 40.6334C39.2358 40.4292 39.1211 40.1523 39.1211 39.8635V23.6502C39.1211 23.3614 39.2358 23.0845 39.4401 22.8803C39.6444 22.6761 39.9214 22.5614 40.2103 22.5614C40.4992 22.5614 40.7762 22.6761 40.9805 22.8803C41.1848 23.0845 41.2995 23.3614 41.2995 23.6502V39.8635C41.2997 40.0065 41.2716 40.1482 41.217 40.2803C41.1623 40.4125 41.0821 40.5326 40.9809 40.6338C40.8797 40.7349 40.7596 40.8151 40.6273 40.8698C40.4951 40.9244 40.3534 40.9525 40.2103 40.9523Z" fill="#505FE1"/>
<path d="M16.8616 16.6989L13.2632 11.4732L12.8562 10.8829L10.2824 7.14506L10.0692 6.83508H6.90625L7.68149 7.95489L11.1003 12.9262L11.5073 13.5165L14.2568 17.51L14.4726 17.8239H17.6356L16.8616 16.6989ZM14.846 17.1045L11.9892 12.9559L11.5822 12.3644L8.27067 7.54933H9.69194L12.3743 11.4435L12.7813 12.035L16.2698 17.1045H14.846Z" fill="white"/>
<path d="M11.5821 12.3644L11.9891 12.9559L11.5072 13.5165L7.80673 17.82H6.89453L11.1002 12.9262L11.5821 12.3644Z" fill="white"/>
<path d="M17.2499 6.83508L13.26 11.4732L12.7781 12.0337L12.3711 11.4435L12.8543 10.8829L15.556 7.73919L16.3364 6.83508H17.2499Z" fill="white"/>
<path d="M56.533 60.3261H50.8001C49.7956 60.325 48.8327 59.9257 48.1224 59.2158C47.4122 58.5058 47.0127 57.5432 47.0117 56.5391V50.8071C47.0127 49.803 47.4122 48.8404 48.1224 48.1304C48.8327 47.4205 49.7956 47.0212 50.8001 47.0201H56.533C57.5375 47.0212 58.5006 47.4204 59.211 48.1304C59.9215 48.8403 60.3212 49.8029 60.3226 50.8071V56.5391C60.3212 57.5433 59.9215 58.5059 59.211 59.2158C58.5006 59.9258 57.5375 60.325 56.533 60.3261ZM50.8001 48.1606C50.0981 48.1613 49.4251 48.4403 48.9288 48.9365C48.4324 49.4327 48.1533 50.1054 48.1526 50.8071V56.5391C48.1533 57.2408 48.4324 57.9135 48.9288 58.4097C49.4251 58.9059 50.0981 59.1849 50.8001 59.1856H56.533C57.235 59.1849 57.9081 58.9059 58.4047 58.4098C58.9012 57.9137 59.1807 57.2409 59.1817 56.5391V50.8071C59.1807 50.1053 58.9012 49.4325 58.4047 48.9364C57.9081 48.4403 57.235 48.1613 56.533 48.1606H50.8001Z" fill="white"/>
<path d="M53.6676 57.0803C52.9934 57.0805 52.3343 56.8809 51.7736 56.5067C51.2129 56.1325 50.7758 55.6004 50.5176 54.9778C50.2595 54.3553 50.1918 53.6702 50.3231 53.0092C50.4545 52.3481 50.779 51.7409 51.2557 51.2643C51.7323 50.7876 52.3396 50.463 53.0008 50.3314C53.6621 50.1999 54.3475 50.2673 54.9703 50.5251C55.5932 50.7829 56.1256 51.2197 56.5002 51.78C56.8748 52.3403 57.0748 52.9991 57.0748 53.6731C57.0737 54.5762 56.7145 55.442 56.0758 56.0807C55.437 56.7195 54.571 57.0789 53.6676 57.0803ZM53.6676 51.4063C53.219 51.4061 52.7805 51.5388 52.4074 51.7877C52.0344 52.0366 51.7435 52.3906 51.5717 52.8047C51.3999 53.2189 51.3548 53.6747 51.4421 54.1145C51.5295 54.5543 51.7453 54.9583 52.0624 55.2754C52.3795 55.5926 52.7835 55.8086 53.2234 55.8962C53.6633 55.9837 54.1193 55.9389 54.5337 55.7674C54.9482 55.5959 55.3024 55.3053 55.5516 54.9325C55.8008 54.5597 55.9339 54.1214 55.9339 53.6731C55.9335 53.0721 55.6947 52.4958 55.2699 52.0706C54.845 51.6454 54.2688 51.4061 53.6676 51.405V51.4063Z" fill="white"/>
<path d="M58.0407 50.0708C58.0407 50.2328 57.9926 50.3912 57.9025 50.5259C57.8125 50.6606 57.6845 50.7655 57.5347 50.8275C57.3849 50.8894 57.2202 50.9056 57.0612 50.8739C56.9023 50.8422 56.7563 50.764 56.6418 50.6494C56.5273 50.5347 56.4494 50.3887 56.4179 50.2298C56.3865 50.0709 56.4029 49.9062 56.4651 49.7566C56.5273 49.607 56.6325 49.4792 56.7673 49.3893C56.9022 49.2995 57.0607 49.2517 57.2228 49.252C57.3303 49.252 57.4368 49.2731 57.5361 49.3143C57.6354 49.3555 57.7256 49.4158 57.8016 49.4919C57.8776 49.5679 57.9378 49.6582 57.9788 49.7576C58.0198 49.8569 58.0409 49.9633 58.0407 50.0708Z" fill="white"/>
<path d="M54.6833 18.8946V12.9533H56.6886L56.9884 10.6285H54.6833V9.13671C54.6833 8.46509 54.8694 8.00658 55.8345 8.00658H57.0568V5.92971C56.4615 5.86784 55.8633 5.83766 55.2647 5.8393C53.492 5.8393 52.2788 6.92035 52.2788 8.90681V10.6195H50.2812V12.9443H52.2788V18.8921L54.6833 18.8946Z" fill="white"/>
<path d="M16.5049 48.9253H8.23573C7.56922 48.9253 6.93001 49.19 6.45872 49.6611C5.98743 50.1322 5.72266 50.7712 5.72266 51.4374V55.905C5.72215 56.2351 5.78674 56.562 5.91274 56.8671C6.03874 57.1721 6.22368 57.4494 6.45697 57.683C6.69026 57.9165 6.96733 58.1018 7.27232 58.2282C7.57732 58.3547 7.90426 58.4197 8.23444 58.4197H16.5037C16.8338 58.4199 17.1607 58.3551 17.4658 58.2289C17.7708 58.1027 18.048 57.9177 18.2815 57.6844C18.515 57.4511 18.7002 57.1741 18.8266 56.8693C18.953 56.5644 19.018 56.2376 19.018 55.9076V51.4387C19.0182 51.1087 18.9533 50.7819 18.8271 50.477C18.7009 50.172 18.5158 49.8949 18.2824 49.6615C18.049 49.4281 17.7719 49.243 17.467 49.1166C17.162 48.9903 16.8351 48.9253 16.5049 48.9253ZM10.6222 55.7087V51.6363L14.1237 53.6732L10.6222 55.7087Z" fill="white"/>
</g>
<defs>
<linearGradient id="paint0_linear_1822_377" x1="41.3359" y1="53.6731" x2="65.9989" y2="53.6731" gradientUnits="userSpaceOnUse">
<stop stopColor="#FEC053"/>
<stop offset="0.33" stopColor="#F2203E"/>
<stop offset="0.65" stopColor="#B729A8"/>
<stop offset="1" stopColor="#5342D6"/>
</linearGradient>
<clipPath id="clip0_1822_377">
<rect width="66" height="66" fill="white"/>
</clipPath>
</defs>
</svg>
