<svg width="66" height="66" viewBox="0 0 66 66" fill="none" xmlns="http://www.w3.org/2000/svg">
<g clip-path="url(#clip0_1822_337)">
<path fill-rule="evenodd" clip-rule="evenodd" d="M65.9996 41.6958C65.9996 40.1553 65.3876 38.6779 64.2983 37.5887C63.2091 36.4994 61.7317 35.8875 60.1912 35.8875H5.80063C4.26218 35.8905 2.78778 36.5038 1.70102 37.5928C0.614257 38.6817 0.00390319 40.1573 0.00390625 41.6958V60.1931C0.00428609 61.7314 0.614763 63.2068 1.70144 64.2957C2.78813 65.3845 4.26229 65.998 5.80063 66.0014H60.1912C61.7316 66.001 63.2087 65.389 64.2979 64.2998C65.3871 63.2106 65.9992 61.7334 65.9996 60.1931V41.6958Z" fill="#468FCC"/>
<path fill-rule="evenodd" clip-rule="evenodd" d="M47.9291 30.6849H62.2224C62.7251 30.6947 63.2246 30.6042 63.6919 30.4187C64.1591 30.2331 64.5847 29.9562 64.9436 29.6042C65.3026 29.2522 65.5877 28.8322 65.7824 28.3687C65.9771 27.9051 66.0773 27.4074 66.0773 26.9047C66.0773 26.4019 65.9771 25.9042 65.7824 25.4407C65.5877 24.9772 65.3026 24.5571 64.9436 24.2051C64.5847 23.8531 64.1591 23.5763 63.6919 23.3907C63.2246 23.2052 62.7251 23.1147 62.2224 23.1245H47.9291C47.4265 23.1147 46.9269 23.2052 46.4597 23.3907C45.9924 23.5763 45.5669 23.8531 45.2079 24.2051C44.849 24.5571 44.5638 24.9772 44.3691 25.4407C44.1745 25.9042 44.0742 26.4019 44.0742 26.9047C44.0742 27.4074 44.1745 27.9051 44.3691 28.3687C44.5638 28.8322 44.849 29.2522 45.2079 29.6042C45.5669 29.9562 45.9924 30.2331 46.4597 30.4187C46.9269 30.6042 47.4265 30.6947 47.9291 30.6849Z" fill="#468FCC"/>
<path d="M38.2575 30.685C40.3456 30.685 42.0384 28.9922 42.0384 26.9041C42.0384 24.8159 40.3456 23.1232 38.2575 23.1232C36.1693 23.1232 34.4766 24.8159 34.4766 26.9041C34.4766 28.9922 36.1693 30.685 38.2575 30.685Z" fill="#468FCC"/>
<path fill-rule="evenodd" clip-rule="evenodd" d="M47.9279 19.4117H62.2212C63.2235 19.4117 64.1849 19.0135 64.8936 18.3047C65.6024 17.5959 66.0006 16.6346 66.0006 15.6322C66.0006 14.6299 65.6024 13.6685 64.8936 12.9598C64.1849 12.251 63.2235 11.8528 62.2212 11.8528H47.9279C46.9255 11.8528 45.9642 12.251 45.2554 12.9598C44.5466 13.6685 44.1484 14.6299 44.1484 15.6322C44.1484 16.6346 44.5466 17.5959 45.2554 18.3047C45.9642 19.0135 46.9255 19.4117 47.9279 19.4117Z" fill="#468FCC"/>
<path d="M38.2575 19.4133C40.3456 19.4133 42.0384 17.7205 42.0384 15.6324C42.0384 13.5442 40.3456 11.8514 38.2575 11.8514C36.1693 11.8514 34.4766 13.5442 34.4766 15.6324C34.4766 17.7205 36.1693 19.4133 38.2575 19.4133Z" fill="#468FCC"/>
<path fill-rule="evenodd" clip-rule="evenodd" d="M47.9291 8.14008H62.2224C62.7251 8.14992 63.2246 8.05942 63.6919 7.87386C64.1591 7.68831 64.5847 7.41144 64.9436 7.05944C65.3026 6.70744 65.5877 6.28739 65.7824 5.82386C65.9771 5.36033 66.0773 4.86264 66.0773 4.35989C66.0773 3.85714 65.9771 3.35945 65.7824 2.89592C65.5877 2.43239 65.3026 2.01234 64.9436 1.66034C64.5847 1.30834 64.1591 1.03147 63.6919 0.845916C63.2246 0.660364 62.7251 0.569862 62.2224 0.579704H47.9291C47.4265 0.569862 46.9269 0.660364 46.4597 0.845916C45.9924 1.03147 45.5669 1.30834 45.2079 1.66034C44.849 2.01234 44.5638 2.43239 44.3691 2.89592C44.1745 3.35945 44.0742 3.85714 44.0742 4.35989C44.0742 4.86264 44.1745 5.36033 44.3691 5.82386C44.5638 6.28739 44.849 6.70744 45.2079 7.05944C45.5669 7.41144 45.9924 7.68831 46.4597 7.87386C46.9269 8.05942 47.4265 8.14992 47.9291 8.14008Z" fill="#468FCC"/>
<path d="M38.2575 8.14007C40.3456 8.14007 42.0384 6.4473 42.0384 4.35916C42.0384 2.27102 40.3456 0.578247 38.2575 0.578247C36.1693 0.578247 34.4766 2.27102 34.4766 4.35916C34.4766 6.4473 36.1693 8.14007 38.2575 8.14007Z" fill="#468FCC"/>
<path fill-rule="evenodd" clip-rule="evenodd" d="M16.2134 0.585287C16.2134 0.431549 16.1524 0.284107 16.0436 0.175397C15.9349 0.0666878 15.7875 0.0056153 15.6338 0.0056153C12.5417 0.00532886 9.51896 0.92205 6.94792 2.63983C4.37688 4.35761 2.37303 6.79929 1.18981 9.65603C0.00658255 12.5128 -0.302857 15.6562 0.300625 18.6889C0.904107 21.7215 2.3934 24.507 4.58014 26.6932C6.76688 28.8793 9.55283 30.3678 12.5856 30.9705C15.6184 31.5731 18.7618 31.2628 21.6182 30.0788C24.4746 28.8947 26.9157 26.8902 28.6328 24.3187C30.3499 21.7472 31.2658 18.7242 31.2646 15.6321C31.2646 15.4784 31.2035 15.3309 31.0948 15.2222C30.9861 15.1135 30.8387 15.0525 30.6849 15.0525H23.1608C23.0071 15.0525 22.8596 15.1135 22.7509 15.2222C22.6422 15.3309 22.5811 15.4784 22.5811 15.6321C22.5811 17.0062 22.1737 18.3494 21.4103 19.4919C20.6469 20.6344 19.5619 21.5248 18.2924 22.0507C17.0229 22.5765 15.6261 22.7141 14.2784 22.446C12.9307 22.1779 11.6928 21.5163 10.7212 20.5447C9.74962 19.573 9.08795 18.3351 8.81988 16.9875C8.55182 15.6398 8.6894 14.2429 9.21523 12.9735C9.74106 11.704 10.6315 10.619 11.774 9.8556C12.9165 9.09221 14.2597 8.68475 15.6338 8.68475C15.7875 8.68475 15.9349 8.62368 16.0436 8.51497C16.1524 8.40626 16.2134 8.25882 16.2134 8.10508V0.585287Z" fill="#E72C4F"/>
<path fill-rule="evenodd" clip-rule="evenodd" d="M30.6831 16.2119C30.8368 16.2119 30.9843 16.1508 31.093 16.0421C31.2017 15.9334 31.2628 15.786 31.2628 15.6322C31.2612 11.4873 29.6136 7.51266 26.6821 4.58228C23.7507 1.65191 19.7754 0.00573702 15.6305 0.0057373C15.4767 0.0057373 15.3293 0.0668098 15.2206 0.175519C15.1119 0.284229 15.0508 0.431671 15.0508 0.585409V8.10665C15.0508 8.26039 15.1119 8.40783 15.2206 8.51654C15.3293 8.62525 15.4767 8.68633 15.6305 8.68633C17.473 8.68633 19.2401 9.41828 20.543 10.7212C21.8459 12.024 22.5778 13.7911 22.5778 15.6337C22.5778 15.7874 22.6389 15.9349 22.7476 16.0436C22.8563 16.1523 23.0038 16.2134 23.1575 16.2134L30.6831 16.2119Z" fill="#FFA53F"/>
<path fill-rule="evenodd" clip-rule="evenodd" d="M62.8637 41.6959C62.8637 40.9875 62.5823 40.3082 62.0814 39.8073C61.5805 39.3064 60.9012 39.025 60.1928 39.025H5.8022C5.0941 39.0254 4.41514 39.307 3.91457 39.8078C3.414 40.3086 3.13281 40.9878 3.13281 41.6959V60.1932C3.13281 60.9013 3.414 61.5804 3.91457 62.0813C4.41514 62.5821 5.0941 62.8636 5.8022 62.864H60.1928C60.9011 62.8636 61.5802 62.5821 62.081 62.0813C62.5818 61.5805 62.8633 60.9014 62.8637 60.1932V41.6959Z" fill="#E2F4FD"/>
<path fill-rule="evenodd" clip-rule="evenodd" d="M46.7435 49.3084L36.7993 55.7485L25.7942 51.2662C25.6625 51.2122 25.5154 51.2086 25.3812 51.2561L20.4743 53.0096C20.3643 53.0494 20.2689 53.1216 20.2007 53.2167C20.1325 53.3118 20.0946 53.4252 20.0921 53.5422C20.0896 53.6592 20.1226 53.7742 20.1866 53.8721C20.2507 53.97 20.3429 54.0462 20.4511 54.0907L35.6109 60.2671C36.1292 60.4779 36.6907 60.5606 37.2477 60.5081C37.8048 60.4557 38.341 60.2696 38.8107 59.9657L49.4318 53.085C49.3449 53.6435 49.465 54.2145 49.7695 54.6906C50.074 55.1668 50.542 55.5154 51.0854 55.6708C51.6289 55.8262 52.2104 55.7777 52.7206 55.5345C53.2308 55.2913 53.6346 54.8701 53.8561 54.3501L56.4415 48.1592C56.5867 47.81 56.6442 47.4305 56.6091 47.0539C56.574 46.6774 56.4474 46.3151 56.2402 45.9987C56.0329 45.6823 55.7515 45.4214 55.4203 45.2387C55.0891 45.0561 54.7183 44.9572 54.3401 44.9507L47.6319 44.8464C47.0917 44.8413 46.5666 45.025 46.1474 45.3658C45.7282 45.7066 45.4412 46.183 45.3359 46.7129C45.2305 47.2428 45.3136 47.7928 45.5706 48.268C45.8276 48.7432 46.2424 49.1137 46.7435 49.3156V49.3084ZM20.9481 50.3822C21.0587 50.3428 21.1546 50.2708 21.2233 50.1756C21.292 50.0805 21.3303 49.9668 21.3329 49.8494C21.3356 49.7321 21.3026 49.6168 21.2383 49.5186C21.174 49.4204 21.0814 49.3441 20.9728 49.2997L3.93767 42.361C3.84977 42.3255 3.75449 42.312 3.66018 42.3219C3.56587 42.3317 3.47541 42.3645 3.39674 42.4174C3.31806 42.4704 3.25357 42.5418 3.20892 42.6254C3.16427 42.7091 3.14082 42.8024 3.14063 42.8972V46.6491C3.14062 46.7641 3.17479 46.8764 3.23878 46.9719C3.30278 47.0674 3.39371 47.1417 3.50002 47.1853L15.6268 52.1242C15.7585 52.1781 15.9055 52.1818 16.0398 52.1343L20.9481 50.3822Z" fill="#FFA53F"/>
<path fill-rule="evenodd" clip-rule="evenodd" d="M30.8475 45.6158L3.52466 55.3731C3.41235 55.4134 3.31521 55.4873 3.24648 55.5849C3.17775 55.6824 3.14078 55.7987 3.14062 55.918V59.6076C3.14142 59.7006 3.16455 59.7919 3.20805 59.874C3.25156 59.9562 3.31416 60.0266 3.3906 60.0795C3.46703 60.1323 3.55505 60.166 3.64723 60.1777C3.73942 60.1894 3.83307 60.1788 3.92028 60.1467L32.5894 49.9083C32.3918 50.4351 32.3925 51.0157 32.5913 51.542C32.7901 52.0683 33.1735 52.5044 33.67 52.769C34.1665 53.0336 34.7423 53.1086 35.29 52.9801C35.8378 52.8515 36.3201 52.5283 36.6471 52.0705L40.5382 46.6042C40.757 46.2956 40.8971 45.9382 40.9461 45.5631C40.9952 45.1881 40.9517 44.8067 40.8195 44.4522C40.6873 44.0978 40.4704 43.7811 40.1877 43.5298C39.905 43.2784 39.5651 43.1 39.1977 43.0102L32.6764 41.4248C32.1473 41.2998 31.5911 41.3647 31.105 41.6081C30.6189 41.8516 30.2338 42.2581 30.017 42.7566C29.8002 43.2552 29.7654 43.814 29.9188 44.3356C30.0722 44.8572 30.404 45.3082 30.8562 45.61L30.8475 45.6158Z" fill="#00516A"/>
</g>
<defs>
<clipPath id="clip0_1822_337">
<rect width="66" height="66" fill="white"/>
</clipPath>
</defs>
</svg>
