<svg width="66" height="66" viewBox="0 0 66 66" fill="none" xmlns="http://www.w3.org/2000/svg">
<g clip-path="url(#clip0_1822_422)">
<path d="M9.79691 54.1986C5.28225 48.5954 2.82531 41.6137 2.83597 34.418C2.83597 16.9757 16.9757 2.83594 34.418 2.83594C51.8603 2.83594 66 16.9757 66 34.418C66.0107 41.6137 63.5538 48.5954 59.0391 54.1986C58.7658 54.5389 10.0702 54.5389 9.79691 54.1986Z" fill="#FF4FB8"/>
<path d="M62.6875 31.3062C62.6875 45.5451 51.1452 57.0874 36.9062 57.0874C22.6673 57.0874 11.125 45.5451 11.125 31.3062C11.125 17.0672 22.6686 5.5249 36.9062 5.5249C51.1439 5.5249 62.6875 17.0685 62.6875 31.3062Z" fill="#FF73C6"/>
<path d="M17.3129 7.86328H44.8576L46.7912 14.4298L53.2081 19.5241L59.0373 22.043V54.1986C57.5897 55.9983 55.9502 57.6348 54.1479 59.079C53.7289 59.4142 53.2945 56.7742 52.8588 57.0874C47.6171 60.8584 41.3459 62.9328 34.8895 63.0315C28.4331 63.1301 22.1014 61.2482 16.747 57.6391C16.31 57.3439 15.8885 60.002 15.467 59.6862C14.8302 59.2066 14.2123 58.7048 13.6133 58.1805V10.6554C14.7766 9.63549 16.0131 8.70228 17.3129 7.86328Z" fill="#FFF5F5"/>
<path d="M13.793 58.3365C12.3384 57.081 11.0009 55.696 9.79688 54.1986V7.86328H13.793V58.3365Z" fill="#D9E7EC"/>
<path d="M59.0391 22.043H44.8594V7.86328L47.0714 10.0753L59.0391 22.043Z" fill="#D9E7EC"/>
<path d="M41.4343 16.7578C41.4343 17.0997 41.2985 17.4276 41.0568 17.6693C40.815 17.9111 40.4872 18.0469 40.1453 18.0469H20.625C20.2831 18.0469 19.9552 17.9111 19.7135 17.6693C19.4717 17.4276 19.3359 17.0997 19.3359 16.7578C19.3359 16.4159 19.4717 16.0881 19.7135 15.8463C19.9552 15.6046 20.2831 15.4688 20.625 15.4688H40.1453C40.4872 15.4688 40.815 15.6046 41.0568 15.8463C41.2985 16.0881 41.4343 16.4159 41.4343 16.7578ZM34.8047 20.625H20.625C20.2831 20.625 19.9552 20.7608 19.7135 21.0026C19.4717 21.2443 19.3359 21.5722 19.3359 21.9141C19.3359 22.2559 19.4717 22.5838 19.7135 22.8256C19.9552 23.0673 20.2831 23.2031 20.625 23.2031H34.8047C35.1466 23.2031 35.4744 23.0673 35.7162 22.8256C35.9579 22.5838 36.0938 22.2559 36.0938 21.9141C36.0938 21.5722 35.9579 21.2443 35.7162 21.0026C35.4744 20.7608 35.1466 20.625 34.8047 20.625ZM41.4343 27.0703C41.4343 27.4122 41.2985 27.7401 41.0568 27.9818C40.815 28.2236 40.4872 28.3594 40.1453 28.3594H20.625C20.2831 28.3594 19.9552 28.2236 19.7135 27.9818C19.4717 27.7401 19.3359 27.4122 19.3359 27.0703C19.3359 26.7284 19.4717 26.4006 19.7135 26.1588C19.9552 25.9171 20.2831 25.7812 20.625 25.7812H40.1453C40.4872 25.7812 40.815 25.9171 41.0568 26.1588C41.2985 26.4006 41.4343 26.7284 41.4343 27.0703Z" fill="#B6C4CF"/>
<path d="M54.1406 35.9648V59.0855C48.6721 63.4563 41.9067 65.8867 34.9069 65.995C27.9072 66.1032 21.0698 63.8832 15.4688 59.6836V35.9648C15.4688 35.7939 15.5367 35.63 15.6575 35.5091C15.7784 35.3882 15.9423 35.3203 16.1133 35.3203H53.4961C53.667 35.3203 53.831 35.3882 53.9518 35.5091C54.0727 35.63 54.1406 35.7939 54.1406 35.9648Z" fill="#D9E7EC"/>
<path d="M41.8354 46.5906V39.4453C41.8354 39.1889 41.9373 38.943 42.1186 38.7617C42.2999 38.5804 42.5458 38.4785 42.8022 38.4785H45.8147C46.0711 38.4785 46.3171 38.5804 46.4984 38.7617C46.6797 38.943 46.7815 39.1889 46.7815 39.4453C46.7815 39.7017 46.6797 39.9476 46.4984 40.129C46.3171 40.3103 46.0711 40.4121 45.8147 40.4121H43.769V42.0492H45.593C45.8494 42.0492 46.0953 42.1511 46.2767 42.3324C46.458 42.5137 46.5598 42.7596 46.5598 43.016C46.5598 43.2724 46.458 43.5183 46.2767 43.6997C46.0953 43.881 45.8494 43.9828 45.593 43.9828H43.769V45.6238H45.8147C46.0711 45.6238 46.3171 45.7257 46.4984 45.907C46.6797 46.0883 46.7815 46.3342 46.7815 46.5906C46.7815 46.847 46.6797 47.0929 46.4984 47.2742C46.3171 47.4555 46.0711 47.5574 45.8147 47.5574H42.7983C42.5426 47.5564 42.2977 47.4541 42.1172 47.2729C41.9367 47.0917 41.8354 46.8463 41.8354 46.5906ZM37.5235 47.5574C39.0704 47.5574 40.3801 46.5648 40.6237 45.1958C40.808 44.1646 40.3427 42.8175 38.4851 42.1317C37.6099 41.8095 36.7939 41.4588 36.5322 41.3441C36.4753 41.2947 36.432 41.2316 36.4063 41.1608C36.3806 41.0899 36.3733 41.0137 36.3852 40.9393C36.402 40.8233 36.4871 40.5423 36.9138 40.4134C37.8947 40.1182 38.8126 40.8388 38.8396 40.8607C39.0365 41.025 39.2907 41.1043 39.5461 41.0812C39.8015 41.0581 40.0372 40.9345 40.2015 40.7376C40.3658 40.5407 40.4451 40.2866 40.422 40.0312C40.3989 39.7758 40.2753 39.54 40.0784 39.3757C40.0101 39.3177 38.3601 37.9577 36.3556 38.5623C35.3359 38.8704 34.6141 39.6748 34.471 40.6648C34.4034 41.1136 34.4667 41.5725 34.6532 41.9863C34.8398 42.4002 35.1417 42.7514 35.5229 42.998C35.5642 43.0253 35.6072 43.0498 35.6518 43.0715C35.6943 43.0895 36.683 43.5329 37.811 43.9467C38.0456 44.0331 38.8048 44.3541 38.7133 44.8568C38.645 45.2332 38.1796 45.6238 37.5158 45.6238C37.1806 45.6284 36.8481 45.5639 36.5389 45.4344C36.2298 45.3049 35.9506 45.1131 35.7188 44.871C35.6357 44.7694 35.5328 44.6857 35.4164 44.6252C35.2999 44.5646 35.1723 44.5284 35.0414 44.5187C34.9105 44.5091 34.779 44.5262 34.655 44.569C34.5309 44.6118 34.4168 44.6794 34.3197 44.7678C34.2226 44.8561 34.1445 44.9633 34.0902 45.0828C34.0359 45.2023 34.0065 45.3316 34.0037 45.4628C34.001 45.594 34.025 45.7244 34.0743 45.8461C34.1236 45.9677 34.1972 46.0781 34.2905 46.1704C34.7027 46.6138 35.203 46.9662 35.7592 47.205C36.3155 47.4439 36.9156 47.5639 37.5209 47.5574H37.5235ZM21.6874 47.5574C22.2599 47.571 22.8281 47.4554 23.3499 47.2193C23.8716 46.9832 24.3335 46.6326 24.7012 46.1936C24.785 46.0966 24.8488 45.984 24.8887 45.8621C24.9286 45.7403 24.9439 45.6118 24.9336 45.484C24.9234 45.3563 24.8879 45.2318 24.8291 45.1179C24.7703 45.004 24.6895 44.9029 24.5913 44.8205C24.4931 44.7381 24.3795 44.6761 24.2571 44.638C24.1347 44.5999 24.006 44.5866 23.8784 44.5987C23.7508 44.6108 23.6269 44.6482 23.5138 44.7087C23.4008 44.7692 23.301 44.8515 23.2201 44.9509C23.1602 45.0226 23.0951 45.0898 23.0254 45.152C22.6547 45.4721 22.1769 45.6406 21.6874 45.6238C21.2744 45.6239 20.8673 45.5271 20.4985 45.3413C20.1297 45.1555 19.8097 44.8859 19.564 44.554C19.3183 44.2221 19.1539 43.8373 19.0839 43.4303C19.0139 43.0234 19.0402 42.6057 19.1609 42.2108C19.2815 41.8159 19.4931 41.4548 19.7785 41.1565C20.064 40.8581 20.4154 40.6309 20.8046 40.4929C21.1938 40.355 21.61 40.3102 22.0196 40.3623C22.4292 40.4143 22.8209 40.5616 23.1633 40.7924C23.2685 40.8635 23.3867 40.9132 23.5111 40.9386C23.6355 40.964 23.7637 40.9647 23.8884 40.9406C24.0131 40.9165 24.1318 40.868 24.2377 40.798C24.3437 40.728 24.4348 40.6379 24.5059 40.5326C24.577 40.4274 24.6267 40.3093 24.6521 40.1848C24.6775 40.0604 24.6782 39.9322 24.6541 39.8076C24.63 39.6829 24.5815 39.5642 24.5115 39.4583C24.4415 39.3523 24.3514 39.2612 24.2461 39.1901C23.6532 38.7901 22.9748 38.5346 22.2653 38.4443C21.5558 38.3539 20.835 38.4312 20.1607 38.6699C19.4865 38.9086 18.8776 39.302 18.383 39.8186C17.8883 40.3353 17.5217 40.9607 17.3125 41.6446C17.1034 42.3286 17.0575 43.0521 17.1786 43.757C17.2997 44.4619 17.5843 45.1286 18.0098 45.7036C18.4352 46.2786 18.9895 46.7458 19.6282 47.0677C20.2668 47.3897 20.9721 47.5574 21.6874 47.5574ZM29.2322 49.7836H25.2465C24.99 49.7836 24.7441 49.8855 24.5628 50.0668C24.3815 50.2481 24.2797 50.494 24.2797 50.7504C24.2797 51.0068 24.3815 51.2527 24.5628 51.434C24.7441 51.6153 24.99 51.7172 25.2465 51.7172H26.2648V57.9666C26.2648 58.223 26.3667 58.4689 26.548 58.6502C26.7293 58.8315 26.9752 58.9334 27.2316 58.9334C27.488 58.9334 27.7339 58.8315 27.9152 58.6502C28.0966 58.4689 28.1984 58.223 28.1984 57.9666V51.7172H29.2297C29.4861 51.7172 29.732 51.6153 29.9133 51.434C30.0946 51.2527 30.1965 51.0068 30.1965 50.7504C30.1965 50.494 30.0946 50.2481 29.9133 50.0668C29.732 49.8855 29.4861 49.7836 29.2297 49.7836H29.2322ZM21.5559 53.5077C20.6806 53.1854 19.8646 52.8335 19.6029 52.7188C19.5457 52.6697 19.5021 52.6066 19.4763 52.5357C19.4506 52.4648 19.4436 52.3884 19.456 52.314C19.4727 52.1993 19.5578 51.9183 19.9845 51.7894C20.9655 51.4942 21.8807 52.2122 21.9104 52.2367C22.1073 52.401 22.3614 52.4803 22.6168 52.4572C22.8722 52.4341 23.108 52.3105 23.2723 52.1136C23.4365 51.9167 23.5159 51.6625 23.4928 51.4071C23.4697 51.1517 23.3461 50.916 23.1492 50.7517C23.0808 50.6937 21.4321 49.3337 19.4276 49.9383C18.4067 50.2451 17.6848 51.0508 17.5417 52.0395C17.474 52.4885 17.5373 52.9476 17.7238 53.3616C17.9104 53.7757 18.2124 54.1272 18.5936 54.374C18.6352 54.4008 18.6782 54.4253 18.7225 54.4474C18.7651 54.4655 19.7538 54.9089 20.8817 55.3227C21.1163 55.4091 21.8756 55.73 21.784 56.2328C21.7157 56.6092 21.2504 56.9998 20.5865 56.9998C20.2514 57.0039 19.919 56.9392 19.6099 56.8097C19.3009 56.6802 19.0216 56.4887 18.7895 56.247C18.7042 56.1528 18.6012 56.0764 18.4864 56.0221C18.3715 55.9678 18.2471 55.9367 18.1202 55.9305C17.9933 55.9242 17.8665 55.9431 17.7469 55.9859C17.6273 56.0287 17.5173 56.0946 17.4231 56.1799C17.329 56.2652 17.2526 56.3683 17.1983 56.4831C17.144 56.598 17.1129 56.7224 17.1066 56.8493C17.1004 56.9761 17.1192 57.103 17.162 57.2226C17.2048 57.3422 17.2708 57.4522 17.3561 57.5463C17.7685 57.9895 18.2688 58.3417 18.825 58.5806C19.3812 58.8194 19.9812 58.9396 20.5865 58.9334C22.1334 58.9334 23.4431 57.9395 23.6867 56.5718C23.871 55.5406 23.4057 54.1935 21.5481 53.5077H21.5559ZM45.8547 54.4655C45.8547 57.0075 44.2898 58.8792 42.1345 58.9166C41.5686 58.9269 40.1545 58.9321 40.0939 58.9334C39.8487 58.9333 39.6127 58.84 39.4337 58.6725C39.2547 58.5049 39.146 58.2757 39.1297 58.031C39.1189 57.9723 39.1132 57.9128 39.1129 57.8531V50.9708C39.1129 50.7143 39.2147 50.4683 39.396 50.2867C39.5773 50.1052 39.8232 50.0031 40.0797 50.0027H42.0636C44.3323 50.0027 45.8573 51.7971 45.8573 54.4706L45.8547 54.4655ZM43.9211 54.4655C43.9211 53.8699 43.7922 51.9312 42.0597 51.9312H41.0452C41.0452 52.7871 41.0452 53.9718 41.0452 54.4577C41.0452 55.0365 41.0452 56.1722 41.0517 56.9946C41.4384 56.9946 41.856 56.9882 42.0984 56.9843C43.3578 56.9624 43.9211 55.703 43.9211 54.4655ZM52.0602 49.9538C51.9539 49.8844 51.8349 49.8367 51.71 49.8134C51.5852 49.79 51.457 49.7915 51.3327 49.8177C51.2085 49.8439 51.0906 49.8944 50.9859 49.9662C50.8811 50.0379 50.7915 50.1296 50.7222 50.2361L49.2436 52.51L47.7509 50.2219C47.6101 50.0087 47.3906 49.8599 47.1404 49.808C46.8902 49.7562 46.6296 49.8055 46.4157 49.9452C46.2017 50.0849 46.0518 50.3036 45.9986 50.5535C45.9454 50.8034 45.9933 51.0642 46.1318 51.2789L48.2794 54.5673L48.2704 57.964C48.2701 58.091 48.2947 58.2167 48.343 58.3342C48.3913 58.4516 48.4622 58.5584 48.5517 58.6484C48.6413 58.7384 48.7477 58.8099 48.8648 58.8588C48.982 58.9077 49.1077 58.933 49.2346 58.9334C49.4908 58.9334 49.7365 58.8317 49.9178 58.6507C50.0991 58.4696 50.2011 58.224 50.2014 57.9679L50.2104 54.5686L52.3374 51.297C52.4067 51.1906 52.4544 51.0716 52.4778 50.9467C52.5011 50.8219 52.4996 50.6937 52.4734 50.5695C52.4472 50.4452 52.3968 50.3273 52.325 50.2226C52.2532 50.1178 52.1615 50.0282 52.0551 49.9589L52.0602 49.9538ZM31.461 46.927L31.0292 45.7798H28.0102L27.5732 46.9296C27.5323 47.0538 27.4667 47.1684 27.3803 47.2665C27.2938 47.3646 27.1884 47.4441 27.0704 47.5003C26.9523 47.5565 26.8241 47.5882 26.6935 47.5934C26.5628 47.5986 26.4325 47.5773 26.3103 47.5307C26.1882 47.4841 26.0767 47.4132 25.9828 47.3223C25.8888 47.2314 25.8142 47.1224 25.7636 47.0019C25.7129 46.8813 25.6873 46.7518 25.6881 46.6211C25.689 46.4903 25.7163 46.3611 25.7685 46.2413L28.4756 39.1269C28.478 39.1194 28.481 39.1121 28.4846 39.105C28.5688 38.8972 28.7132 38.7193 28.8993 38.5941C29.0853 38.469 29.3045 38.4022 29.5287 38.4025C29.7528 38.4019 29.972 38.4682 30.1582 38.5929C30.3445 38.7176 30.4893 38.895 30.5742 39.1024L30.5845 39.1295L33.2696 46.2438C33.3418 46.4788 33.3218 46.7324 33.2138 46.9531C33.1057 47.1738 32.9176 47.3451 32.6878 47.4321C32.4579 47.5191 32.2036 47.5153 31.9764 47.4215C31.7492 47.3277 31.5664 47.1509 31.4649 46.927H31.461ZM30.3009 43.8462L29.5274 41.7991L28.754 43.8462H30.3009ZM37.0607 49.7759C36.8043 49.7759 36.5584 49.8777 36.3771 50.059C36.1958 50.2403 36.0939 50.4863 36.0939 50.7427V55.703C36.0939 56.0291 35.9998 56.4519 35.2663 56.8219C35.0323 56.9371 34.7743 56.9949 34.5135 56.9907C34.2267 56.9962 33.9446 56.9168 33.7027 56.7626C33.1329 56.3991 33.0169 56.0781 33.0169 55.7081V50.7504C33.0169 50.494 32.9151 50.2481 32.7338 50.0668C32.5524 49.8855 32.3065 49.7836 32.0501 49.7836C31.7937 49.7836 31.5478 49.8855 31.3665 50.0668C31.1852 50.2481 31.0833 50.494 31.0833 50.7504V55.7159C31.0833 56.8283 31.6144 57.7307 32.6611 58.401C33.2135 58.7531 33.8559 58.938 34.511 58.9334C35.074 58.9371 35.63 58.8081 36.1339 58.557C37.6962 57.7693 38.0249 56.5744 38.0249 55.7107V50.7504C38.0249 50.494 37.9231 50.2481 37.7418 50.0668C37.5605 49.8855 37.3145 49.7836 37.0581 49.7836L37.0607 49.7759Z" fill="#2740B1"/>
<path d="M30.196 50.7504C30.196 51.0068 30.0941 51.2527 29.9128 51.4341C29.7315 51.6154 29.4856 51.7172 29.2292 51.7172H28.1979V55.0868C28.1979 55.3432 28.0961 55.5892 27.9148 55.7705C27.7334 55.9518 27.4875 56.0536 27.2311 56.0536C26.9747 56.0536 26.7288 55.9518 26.5475 55.7705C26.3662 55.5892 26.2643 55.3432 26.2643 55.0868V51.7172H25.246C24.9896 51.7172 24.7437 51.6154 24.5623 51.4341C24.381 51.2527 24.2792 51.0068 24.2792 50.7504C24.2792 50.494 24.381 50.2481 24.5623 50.0668C24.7437 49.8855 24.9896 49.7836 25.246 49.7836H29.2305C29.3575 49.7835 29.4834 49.8083 29.6008 49.8569C29.7183 49.9054 29.825 49.9766 29.9149 50.0663C30.0048 50.1561 30.0762 50.2628 30.1248 50.3802C30.1735 50.4975 30.1986 50.6234 30.1986 50.7504H30.196ZM24.5035 40.532C24.6471 40.3198 24.7006 40.0593 24.6523 39.8077C24.6039 39.5561 24.4577 39.334 24.2457 39.1901C23.5576 38.7257 22.756 38.4572 21.927 38.4137C21.0979 38.3701 20.2727 38.553 19.5397 38.9427C18.8067 39.3325 18.1936 39.9144 17.7661 40.6261C17.3387 41.3377 17.113 42.1524 17.1133 42.9825C17.1133 43.2389 17.2151 43.4849 17.3965 43.6662C17.5778 43.8475 17.8237 43.9493 18.0801 43.9493C18.3365 43.9493 18.5824 43.8475 18.7637 43.6662C18.945 43.4849 19.0469 43.2389 19.0469 42.9825C19.0464 42.5033 19.1764 42.033 19.4229 41.622C19.6694 41.211 20.0232 40.8749 20.4462 40.6497C20.8692 40.4245 21.3456 40.3186 21.8241 40.3436C22.3027 40.3685 22.7655 40.5232 23.1629 40.7911C23.3752 40.9339 23.6354 40.9867 23.8866 40.9382C24.1378 40.8896 24.3596 40.7436 24.5035 40.532ZM42.7953 44.929C43.0481 44.9291 43.291 44.8301 43.4717 44.6532C43.6524 44.4763 43.7567 44.2357 43.7621 43.9829H45.5861C45.8425 43.9829 46.0884 43.881 46.2697 43.6997C46.451 43.5184 46.5529 43.2725 46.5529 43.0161C46.5529 42.7596 46.451 42.5137 46.2697 42.3324C46.0884 42.1511 45.8425 42.0493 45.5861 42.0493H43.7659V40.407H45.8117C46.0681 40.407 46.314 40.3051 46.4953 40.1238C46.6766 39.9425 46.7785 39.6966 46.7785 39.4402C46.7785 39.1838 46.6766 38.9379 46.4953 38.7566C46.314 38.5753 46.0681 38.4734 45.8117 38.4734H42.7953C42.5389 38.4734 42.293 38.5753 42.1116 38.7566C41.9303 38.9379 41.8285 39.1838 41.8285 39.4402V43.9571C41.8285 44.2135 41.9303 44.4594 42.1116 44.6407C42.293 44.822 42.5389 44.9239 42.7953 44.9239V44.929ZM23.1461 50.7517C23.0778 50.6937 21.4291 49.3337 19.4246 49.9383C18.4036 50.2451 17.6818 51.0508 17.5387 52.0395C17.471 52.4886 17.5342 52.9476 17.7208 53.3617C17.9073 53.7757 18.2093 54.1272 18.5905 54.374C18.6319 54.4009 18.6749 54.425 18.7195 54.4462C18.762 54.4655 19.7507 54.9089 20.8786 55.3227C21.1193 55.411 21.3852 55.4001 21.6179 55.2926C21.8506 55.1851 22.0312 54.9896 22.12 54.7491C22.1641 54.63 22.1842 54.5034 22.1793 54.3765C22.1744 54.2497 22.1445 54.125 22.0913 54.0097C22.0382 53.8944 21.9628 53.7907 21.8695 53.7046C21.7762 53.6184 21.6668 53.5515 21.5477 53.5077C20.6724 53.1855 19.8564 52.8336 19.5947 52.7188C19.5378 52.6698 19.4944 52.6069 19.4686 52.5363C19.4429 52.4656 19.4357 52.3896 19.4478 52.3153C19.4645 52.1993 19.5496 51.9183 19.9763 51.7894C20.9573 51.4942 21.8725 52.2122 21.9021 52.2367C22.0991 52.401 22.3532 52.4803 22.6086 52.4572C22.864 52.4341 23.0998 52.3105 23.264 52.1136C23.4283 51.9167 23.5076 51.6626 23.4845 51.4072C23.4615 51.1518 23.3379 50.916 23.1409 50.7517H23.1461ZM31.5353 44.3992C31.6542 44.3544 31.7631 44.2866 31.8557 44.1997C31.9484 44.1128 32.023 44.0085 32.0753 43.8927C32.1276 43.7769 32.1566 43.652 32.1606 43.525C32.1646 43.398 32.1436 43.2715 32.0986 43.1527L30.5827 39.1347L30.5724 39.1076C30.4875 38.9002 30.3427 38.7228 30.1565 38.5981C29.9702 38.4734 29.7511 38.4071 29.527 38.4077C29.3035 38.4087 29.0854 38.476 28.9002 38.6011C28.715 38.7261 28.5711 38.9033 28.4867 39.1102L28.4789 39.1321L26.9089 43.2571C26.8179 43.4968 26.8257 43.7628 26.9306 43.9967C27.0355 44.2306 27.2289 44.4134 27.4683 44.5049C27.5781 44.5475 27.6948 44.5694 27.8125 44.5694C28.0084 44.569 28.1996 44.5092 28.3607 44.3978C28.5219 44.2864 28.6454 44.1286 28.7148 43.9455L29.5179 41.8043L30.2914 43.8346C30.3361 43.9534 30.4037 44.0623 30.4905 44.155C30.5772 44.2477 30.6814 44.3224 30.797 44.3748C30.9127 44.4272 31.0375 44.4564 31.1644 44.4606C31.2913 44.4648 31.4178 44.4439 31.5366 44.3992H31.5353ZM32.0432 49.7836C31.7868 49.7836 31.5409 49.8855 31.3596 50.0668C31.1783 50.2481 31.0764 50.494 31.0764 50.7504V55.092C31.0764 55.3484 31.1783 55.5943 31.3596 55.7756C31.5409 55.9569 31.7868 56.0588 32.0432 56.0588C32.2996 56.0588 32.5455 55.9569 32.7268 55.7756C32.9081 55.5943 33.01 55.3484 33.01 55.092V50.7504C33.01 50.494 32.9081 50.2481 32.7268 50.0668C32.5455 49.8855 32.2996 49.7836 32.0432 49.7836ZM52.0572 49.9589C51.9508 49.8896 51.8318 49.8419 51.707 49.8186C51.5821 49.7952 51.4539 49.7967 51.3297 49.8229C51.2054 49.8491 51.0876 49.8996 50.9828 49.9713C50.878 50.0431 50.7884 50.1348 50.7191 50.2412L49.2406 52.51L47.7479 50.2219C47.607 50.0087 47.3875 49.8599 47.1373 49.8081C46.8871 49.7562 46.6266 49.8055 46.4126 49.9452C46.1987 50.0849 46.0487 50.3036 45.9955 50.5535C45.9423 50.8034 45.9902 51.0642 46.1288 51.2789L48.2725 54.5622V54.9489C48.2708 55.0759 48.2941 55.2019 48.3411 55.3199C48.3882 55.4378 48.4579 55.5454 48.5465 55.6363C48.6351 55.7273 48.7407 55.7999 48.8574 55.8501C48.9741 55.9002 49.0994 55.9269 49.2264 55.9286H49.2393C49.4936 55.9289 49.7378 55.829 49.9188 55.6504C50.0998 55.4718 50.203 55.229 50.2061 54.9747V54.5738L52.3343 51.2957C52.4036 51.1894 52.4513 51.0705 52.4747 50.9458C52.498 50.8211 52.4965 50.693 52.4703 50.5688C52.444 50.4447 52.3936 50.3269 52.3218 50.2222C52.2501 50.1176 52.1584 50.0281 52.052 49.9589H52.0572ZM42.0566 49.9976H40.0741C39.9469 49.9974 39.821 50.0224 39.7036 50.071C39.5861 50.1196 39.4794 50.1909 39.3896 50.2809C39.2998 50.3708 39.2286 50.4776 39.1801 50.5951C39.1317 50.7126 39.1069 50.8386 39.1073 50.9657C39.1073 50.9657 39.1073 54.1742 39.1073 54.9734C39.1073 55.2298 39.2091 55.4757 39.3904 55.657C39.5717 55.8383 39.8177 55.9402 40.0741 55.9402C40.3305 55.9402 40.5764 55.8383 40.7577 55.657C40.939 55.4757 41.0409 55.2298 41.0409 54.9734C41.0409 54.4578 41.0409 52.9444 41.0409 51.9312H42.0554C43.7814 51.9312 43.9168 53.8648 43.9168 54.4642C43.9168 54.7206 44.0186 54.9665 44.1999 55.1478C44.3812 55.3292 44.6271 55.431 44.8836 55.431C45.14 55.431 45.3859 55.3292 45.5672 55.1478C45.7485 54.9665 45.8504 54.7206 45.8504 54.4642C45.8504 51.792 44.3254 49.9976 42.0554 49.9976H42.0566ZM37.0564 49.7836C36.8 49.7836 36.554 49.8855 36.3727 50.0668C36.1914 50.2481 36.0896 50.494 36.0896 50.7504V55.0868C36.0896 55.3432 36.1914 55.5892 36.3727 55.7705C36.554 55.9518 36.8 56.0536 37.0564 56.0536C37.3128 56.0536 37.5587 55.9518 37.74 55.7705C37.9213 55.5892 38.0232 55.3432 38.0232 55.0868V50.7504C38.0232 50.494 37.9213 50.2481 37.74 50.0668C37.5587 49.8855 37.3128 49.7836 37.0564 49.7836ZM38.4821 42.1318C37.6068 41.8095 36.7908 41.4589 36.5291 41.3441C36.4723 41.2947 36.4289 41.2316 36.4032 41.1608C36.3775 41.09 36.3703 41.0138 36.3822 40.9394C36.3989 40.8234 36.484 40.5423 36.9107 40.4134C37.8917 40.1182 38.8082 40.8388 38.8366 40.8607C39.0342 41.0168 39.285 41.0896 39.5355 41.0636C39.786 41.0376 40.0164 40.9149 40.1778 40.7216C40.3392 40.5283 40.4188 40.2796 40.3997 40.0285C40.3806 39.7774 40.2642 39.5437 40.0753 39.377C40.007 39.3177 38.357 37.9591 36.3525 38.5623C35.3329 38.8704 34.611 39.6748 34.4679 40.6648C34.4003 41.1137 34.4636 41.5725 34.6502 41.9864C34.8367 42.4002 35.1387 42.7514 35.5198 42.998C35.5608 43.0257 35.6039 43.0503 35.6487 43.0715C35.6912 43.0895 36.68 43.533 37.8079 43.9468C37.9149 43.9859 38.0279 44.0059 38.1418 44.0061C38.369 44.0065 38.5891 43.9269 38.7634 43.7812C38.9378 43.6355 39.0552 43.4331 39.0952 43.2094C39.1352 42.9858 39.0952 42.7552 38.9821 42.5581C38.869 42.3611 38.6902 42.2101 38.4769 42.1318H38.4821Z" fill="#314DCA"/>
<path d="M33.5159 16.7578C33.5223 19.8406 32.6746 22.8649 31.0666 25.4951C30.8382 25.8659 30.5261 26.1781 30.1553 26.4065C27.525 28.0144 24.5008 28.8622 21.418 28.8557C12.1935 28.8557 4.66019 21.3224 4.66019 12.0979C4.6543 9.01641 5.50205 5.99353 7.10941 3.36448C7.33754 2.99111 7.65126 2.67739 8.02464 2.44925C10.6537 0.841891 13.6766 -0.00585509 16.758 3.04381e-05C25.9826 3.04381e-05 33.5159 7.53331 33.5159 16.7578Z" fill="#4F66D1"/>
<path d="M31.219 25.2321C29.9232 27.4404 28.1386 29.3225 26.0022 30.7337C23.8658 32.145 21.4344 33.0479 18.8947 33.3733C16.355 33.6986 13.7746 33.4376 11.3514 32.6103C8.92831 31.7831 6.72696 30.4116 4.9164 28.6011C3.10584 26.7907 1.73422 24.5894 0.90684 22.1663C0.0794623 19.7432 -0.181667 17.1628 0.143498 14.6231C0.468664 12.0834 1.37148 9.65192 2.78263 7.51544C4.19378 5.37896 6.07573 3.59426 8.28401 2.29834C6.40624 5.49752 5.64305 9.22933 6.11405 12.9089C6.58505 16.5884 8.26362 20.0076 10.8867 22.6307C13.5097 25.2537 16.929 26.9323 20.6085 27.4033C24.288 27.8743 28.0198 27.1111 31.219 25.2333V25.2321Z" fill="#314DCA"/>
<path d="M25.761 7.75633C24.3923 6.38794 22.5547 5.59084 20.6204 5.52645C18.686 5.46205 16.7995 6.13517 15.3428 7.40949C13.8861 8.68382 12.9681 10.4641 12.7747 12.3898C12.5813 14.3156 13.127 16.2429 14.3013 17.7814L9.91201 22.1719C9.81971 22.2611 9.74611 22.3679 9.6955 22.4858C9.64488 22.6038 9.61827 22.7307 9.61722 22.8591C9.61617 22.9874 9.64069 23.1147 9.68935 23.2335C9.73802 23.3523 9.80986 23.4602 9.90068 23.551C9.9915 23.6417 10.0995 23.7134 10.2183 23.762C10.3372 23.8105 10.4645 23.8349 10.5928 23.8338C10.7212 23.8326 10.8481 23.8059 10.966 23.7551C11.0839 23.7044 11.1906 23.6307 11.2797 23.5383L15.6625 19.1555C17.1922 20.3574 19.1232 20.9295 21.0607 20.7548C22.9982 20.58 24.7958 19.6718 26.0858 18.2156C27.3758 16.7595 28.0608 14.8655 28.0007 12.9211C27.9405 10.9767 27.1398 9.12868 25.7623 7.75504L25.761 7.75633ZM24.3933 17.1781C23.5969 17.9746 22.5821 18.517 21.4774 18.7367C20.3726 18.9565 19.2275 18.8437 18.1869 18.4126C17.1463 17.9816 16.2568 17.2516 15.631 16.3151C15.0052 15.3785 14.6712 14.2774 14.6712 13.1511C14.6712 12.0247 15.0052 10.9236 15.631 9.98704C16.2568 9.05049 17.1463 8.32054 18.1869 7.88949C19.2275 7.45845 20.3726 7.34566 21.4774 7.56541C22.5821 7.78515 23.5969 8.32756 24.3933 9.12403C25.4601 10.1927 26.0593 11.641 26.0593 13.1511C26.0593 14.6611 25.4601 16.1094 24.3933 17.1781Z" fill="white"/>
<path d="M14.0176 22.1976L10.2458 25.9694C10.0963 26.1193 9.91863 26.2381 9.72309 26.3192C9.52756 26.4003 9.31795 26.4421 9.10626 26.4421C8.89458 26.4421 8.68497 26.4003 8.48944 26.3192C8.2939 26.2381 8.11628 26.1193 7.96673 25.9694L7.51169 25.5144C7.36187 25.3648 7.24301 25.1872 7.16191 24.9917C7.08081 24.7962 7.03906 24.5865 7.03906 24.3749C7.03906 24.1632 7.08081 23.9536 7.16191 23.758C7.24301 23.5625 7.36187 23.3849 7.51169 23.2353L11.2835 19.4648C11.433 19.315 11.6107 19.1961 11.8062 19.115C12.0017 19.0339 12.2113 18.9922 12.423 18.9922C12.6347 18.9922 12.8443 19.0339 13.0399 19.115C13.2354 19.1961 13.413 19.315 13.5626 19.4648L14.0176 19.9199C14.3196 20.2222 14.4892 20.6321 14.4892 21.0594C14.4892 21.4867 14.3196 21.8966 14.0176 22.1989V22.1976Z" fill="#FFC143"/>
</g>
<defs>
<clipPath id="clip0_1822_422">
<rect width="66" height="66" fill="white"/>
</clipPath>
</defs>
</svg>
