<svg width="66" height="66" viewBox="0 0 66 66" fill="none" xmlns="http://www.w3.org/2000/svg">
<g clip-path="url(#clip0_1822_352)">
<path d="M66 27.6697L33 5.75562L0 27.6697L33 53.5644L66 27.6697Z" fill="#FFDF3D"/>
<path d="M33 9.7414L62.0168 30.3148L66 27.6697L33 5.75562L0 27.6697L3.60938 30.066L33 9.7414Z" fill="#F2C711"/>
<path d="M54.9141 52.3218H11.0859V3.9832C11.0861 3.45984 11.1894 2.94165 11.3899 2.4582C11.5903 1.97476 11.8841 1.53556 12.2543 1.16566C12.6246 0.795773 13.0641 0.502446 13.5477 0.302439C14.0313 0.102431 14.5496 -0.000337827 15.073 8.34286e-07H50.9283C51.4515 -0.000168475 51.9697 0.102726 52.4532 0.302809C52.9367 0.502892 53.376 0.796245 53.7461 1.16612C54.1162 1.53599 54.4099 1.97515 54.6103 2.4585C54.8107 2.94186 54.9139 3.45995 54.9141 3.9832V52.3218Z" fill="#F9F7F8"/>
<path d="M50.9285 8.34286e-07H46.9453C47.4685 8.06888e-07 47.9866 0.103072 48.4699 0.303327C48.9533 0.503583 49.3924 0.797099 49.7623 1.16711C50.1322 1.53712 50.4256 1.97638 50.6257 2.45979C50.8258 2.9432 50.9287 3.4613 50.9285 3.98449V52.3243H54.9156V3.9832C54.9154 3.45984 54.8121 2.94165 54.6117 2.4582C54.4112 1.97476 54.1174 1.53556 53.7472 1.16566C53.3769 0.795773 52.9374 0.502446 52.4538 0.302439C51.9702 0.102431 51.4519 -0.000337827 50.9285 8.34286e-07Z" fill="#E5E1E5"/>
<path d="M62.0168 66H3.9832C2.9269 65.9996 1.91395 65.5798 1.16703 64.8329C0.420109 64.086 0.000341681 63.0731 0 62.0168L0 27.6697L33 49.5837L66 27.6697V62.0155C66 63.072 65.5804 64.0853 64.8334 64.8325C64.0865 65.5797 63.0733 65.9996 62.0168 66Z" fill="#FFFBE5"/>
<path d="M62.0157 30.3148V62.0155C62.0157 63.0722 61.5959 64.0857 60.8487 64.8329C60.1015 65.5802 59.088 66 58.0312 66H62.0157C63.072 65.9996 64.085 65.5798 64.8319 64.8329C65.5788 64.086 65.9986 63.0731 65.9989 62.0168V27.6697L62.0157 30.3148Z" fill="#FCECA9"/>
<path d="M66 57.5489L37.4073 38.5636C36.1011 37.6961 34.568 37.2334 33 37.2334C31.432 37.2334 29.8989 37.6961 28.5927 38.5636L0 57.5489V62.0155C-5.52909e-08 63.072 0.419616 64.0853 1.16657 64.8325C1.91353 65.5797 2.92667 65.9997 3.9832 66H62.0155C63.072 66 64.0853 65.5804 64.8325 64.8334C65.5797 64.0865 65.9997 63.0733 66 62.0168V57.5489Z" fill="#FFDF3D"/>
<path d="M65.9989 62.0169V57.549L62.0157 54.9038V62.0169C62.0154 63.0734 61.5955 64.0865 60.8483 64.8335C60.1011 65.5804 59.0878 66.0001 58.0312 66.0001H62.0157C63.072 65.9997 64.085 65.5799 64.8319 64.833C65.5788 64.0861 65.9986 63.0732 65.9989 62.0169Z" fill="#F4DA6E"/>
<path d="M21.0516 21.1845L23.2907 24.4265C23.4176 24.6214 23.6044 24.7696 23.823 24.8489C24.0416 24.9282 24.2801 24.9342 24.5024 24.8661C24.7293 24.7925 24.926 24.647 25.0628 24.4516C25.1995 24.2562 25.2689 24.0216 25.2604 23.7833V17.9825C25.2652 17.8487 25.243 17.7153 25.1951 17.5903C25.1472 17.4653 25.0746 17.3512 24.9817 17.2548C24.8888 17.1585 24.7774 17.0819 24.6541 17.0295C24.5309 16.9772 24.3984 16.9502 24.2646 16.9502C24.1307 16.9502 23.9982 16.9772 23.875 17.0295C23.7518 17.0819 23.6403 17.1585 23.5474 17.2548C23.4545 17.3512 23.3819 17.4653 23.334 17.5903C23.2861 17.7153 23.2639 17.8487 23.2688 17.9825V20.8945L20.8814 17.4243C20.761 17.2492 20.5876 17.1173 20.3868 17.0479C20.186 16.9784 19.9682 16.9751 19.7653 17.0383C19.5625 17.1016 19.3852 17.2281 19.2594 17.3994C19.1337 17.5707 19.066 17.7777 19.0664 17.9902V23.9856C19.0757 24.2435 19.1847 24.4878 19.3704 24.667C19.5561 24.8461 19.8041 24.9463 20.0622 24.9463C20.3203 24.9463 20.5683 24.8461 20.754 24.667C20.9398 24.4878 21.0487 24.2435 21.058 23.9856V21.1845H21.0516Z" fill="#00516A"/>
<path d="M27.43 24.9536H29.9373C30.071 24.9584 30.2044 24.9362 30.3295 24.8884C30.4545 24.8405 30.5686 24.7679 30.6649 24.675C30.7613 24.582 30.8379 24.4706 30.8902 24.3474C30.9426 24.2242 30.9695 24.0917 30.9695 23.9578C30.9695 23.8239 30.9426 23.6914 30.8902 23.5682C30.8379 23.445 30.7613 23.3336 30.6649 23.2407C30.5686 23.1477 30.4545 23.0751 30.3295 23.0273C30.2044 22.9794 30.071 22.9572 29.9373 22.962H28.4252V21.9785H29.7529C30.0172 21.9785 30.2707 21.8735 30.4575 21.6866C30.6444 21.4997 30.7494 21.2463 30.7494 20.982C30.7494 20.7177 30.6444 20.4643 30.4575 20.2774C30.2707 20.0905 30.0172 19.9856 29.7529 19.9856H28.4252V19.002H29.9373C30.071 19.0068 30.2044 18.9846 30.3295 18.9368C30.4545 18.8889 30.5686 18.8163 30.6649 18.7234C30.7613 18.6304 30.8379 18.519 30.8902 18.3958C30.9426 18.2726 30.9695 18.1401 30.9695 18.0062C30.9695 17.8723 30.9426 17.7398 30.8902 17.6166C30.8379 17.4934 30.7613 17.382 30.6649 17.2891C30.5686 17.1961 30.4545 17.1235 30.3295 17.0757C30.2044 17.0278 30.071 17.0056 29.9373 17.0104H27.43C27.1658 17.0104 26.9123 17.1154 26.7254 17.3023C26.5386 17.4891 26.4336 17.7426 26.4336 18.0069V23.9585C26.4339 24.2225 26.5391 24.4756 26.7259 24.6622C26.9127 24.8488 27.166 24.9536 27.43 24.9536Z" fill="#00516A"/>
<path d="M46.9031 22.859C47.0706 21.9231 46.6581 20.7062 45.0004 20.0952C44.3082 19.8374 43.6598 19.5616 43.4161 19.4507C43.2679 19.2793 43.4793 19.082 43.6817 19.0214C44.3971 18.8062 45.0829 19.3386 45.11 19.3592C45.3136 19.5231 45.5735 19.6004 45.8337 19.5745C46.0938 19.5485 46.3333 19.4214 46.5006 19.2205C46.6678 19.0196 46.7494 18.761 46.7278 18.5004C46.7061 18.2399 46.583 17.9983 46.3849 17.8278C45.8306 17.3637 44.5183 16.6895 43.1068 17.1136C42.6697 17.2342 42.2767 17.4781 41.9747 17.8162C41.6727 18.1544 41.4745 18.5723 41.4039 19.0202C41.275 19.8813 41.6914 20.8635 42.5035 21.2245C42.5383 21.2399 43.3723 21.6112 44.3082 21.9579C44.6227 22.0752 44.9772 22.2866 44.9385 22.5032C44.9037 22.6966 44.6227 22.984 44.1303 22.984C43.8792 22.9887 43.6298 22.9419 43.3975 22.8466C43.1652 22.7512 42.9548 22.6094 42.7793 22.4297C42.6926 22.3288 42.5865 22.2463 42.4674 22.1871C42.3482 22.1279 42.2184 22.0931 42.0856 22.0848C41.9528 22.0766 41.8197 22.095 41.6942 22.139C41.5686 22.183 41.4531 22.2518 41.3545 22.3411C41.256 22.4305 41.1763 22.5387 41.1202 22.6594C41.0641 22.78 41.0328 22.9107 41.028 23.0437C41.0232 23.1766 41.0451 23.3092 41.0924 23.4336C41.1397 23.5579 41.2114 23.6716 41.3034 23.7678C41.6652 24.157 42.1044 24.4664 42.5927 24.6759C43.0811 24.8855 43.6079 24.9906 44.1393 24.9846C45.525 24.9846 46.6891 24.0926 46.9082 22.8629L46.9031 22.859Z" fill="#00516A"/>
<path d="M39.5952 17.0156C39.3361 16.964 39.0671 17.0175 38.8473 17.1642C38.6276 17.3109 38.4751 17.5389 38.4235 17.7981L37.9169 20.344L37.0983 17.6885C37.0339 17.4798 36.9027 17.2981 36.7248 17.1713C36.5469 17.0446 36.3323 16.9799 36.114 16.9873C35.8957 16.9946 35.6859 17.0735 35.5169 17.2119C35.3479 17.3503 35.2291 17.5404 35.1789 17.753L34.3758 20.3453L33.8705 17.7891C33.8131 17.536 33.6592 17.3154 33.4416 17.1741C33.224 17.0327 32.9599 16.9818 32.7054 17.0322C32.4508 17.0826 32.226 17.2302 32.0786 17.4438C31.9313 17.6573 31.873 17.9199 31.9163 18.1758L33.0868 24.0926C33.1415 24.345 33.2809 24.5711 33.4818 24.7334C33.6828 24.8956 33.9332 24.9843 34.1915 24.9846H34.1992C34.4342 24.9831 34.6629 24.9085 34.8535 24.771C35.0441 24.6336 35.1871 24.4401 35.2627 24.2176L35.2704 24.1918L36.147 21.3636L37.0184 24.1918C37.0903 24.4217 37.2338 24.6225 37.4279 24.7651C37.622 24.9077 37.8565 24.9846 38.0973 24.9846H38.1051C38.3625 24.9834 38.6117 24.8941 38.8113 24.7316C39.0109 24.5691 39.1488 24.3431 39.2021 24.0913L40.3777 18.1874C40.4032 18.0591 40.4032 17.9271 40.3777 17.7989C40.3522 17.6706 40.3017 17.5487 40.229 17.44C40.1563 17.3313 40.063 17.238 39.9542 17.1654C39.8455 17.0928 39.7235 17.0423 39.5952 17.0169V17.0156Z" fill="#00516A"/>
<path d="M18.8281 32.9446H17.7273V27.9379C17.7273 27.6736 17.6223 27.4201 17.4354 27.2333C17.2485 27.0464 16.9951 26.9414 16.7308 26.9414C16.4665 26.9414 16.2131 27.0464 16.0262 27.2333C15.8394 27.4201 15.7344 27.6736 15.7344 27.9379V33.9397C15.7346 34.1747 15.8177 34.402 15.9691 34.5817C16.1205 34.7614 16.3304 34.8819 16.562 34.922C16.6329 34.9336 18.1552 34.94 18.8397 34.9362C19.0976 34.9269 19.3419 34.8179 19.521 34.6322C19.7002 34.4464 19.8003 34.1984 19.8003 33.9404C19.8003 33.6823 19.7002 33.4343 19.521 33.2486C19.3419 33.0628 19.0976 32.9539 18.8397 32.9446H18.8281Z" fill="#00516A"/>
<path d="M24.4802 28.9614C24.614 28.9662 24.7474 28.944 24.8724 28.8961C24.9974 28.8482 25.1115 28.7757 25.2079 28.6827C25.3042 28.5898 25.3809 28.4784 25.4332 28.3551C25.4855 28.2319 25.5125 28.0994 25.5125 27.9656C25.5125 27.8317 25.4855 27.6992 25.4332 27.576C25.3809 27.4528 25.3042 27.3414 25.2079 27.2484C25.1115 27.1555 24.9974 27.0829 24.8724 27.035C24.7474 26.9871 24.614 26.9649 24.4802 26.9698H21.9717C21.7077 26.9701 21.4545 27.0752 21.268 27.2621C21.0814 27.4489 20.9766 27.7022 20.9766 27.9662V33.9178C20.9766 34.1819 21.0814 34.4351 21.268 34.6219C21.4545 34.8088 21.7077 34.9139 21.9717 34.9143H24.4802C24.7445 34.9143 24.998 34.8093 25.1848 34.6224C25.3717 34.4355 25.4767 34.1821 25.4767 33.9178C25.4767 33.6535 25.3717 33.4001 25.1848 33.2132C24.998 33.0263 24.7445 32.9214 24.4802 32.9214H22.9682V31.9378H24.2946C24.4284 31.9426 24.5618 31.9204 24.6868 31.8726C24.8118 31.8247 24.9259 31.7521 25.0223 31.6592C25.1186 31.5662 25.1952 31.4548 25.2476 31.3316C25.2999 31.2084 25.3269 31.0759 25.3269 30.942C25.3269 30.8081 25.2999 30.6756 25.2476 30.5524C25.1952 30.4292 25.1186 30.3178 25.0223 30.2249C24.9259 30.1319 24.8118 30.0593 24.6868 30.0115C24.5618 29.9636 24.4284 29.9414 24.2946 29.9462H22.9682V28.9627H24.4802V28.9614Z" fill="#00516A"/>
<path d="M42.9269 28.9614C43.0607 28.9662 43.194 28.944 43.3191 28.8961C43.4441 28.8482 43.5582 28.7757 43.6545 28.6827C43.7509 28.5898 43.8275 28.4784 43.8798 28.3551C43.9322 28.2319 43.9592 28.0994 43.9592 27.9656C43.9592 27.8317 43.9322 27.6992 43.8798 27.576C43.8275 27.4528 43.7509 27.3414 43.6545 27.2484C43.5582 27.1555 43.4441 27.0829 43.3191 27.035C43.194 26.9871 43.0607 26.9649 42.9269 26.9698H40.4222C40.2914 26.9698 40.1618 26.9955 40.0409 27.0456C39.92 27.0957 39.8102 27.1691 39.7176 27.2616C39.6251 27.3541 39.5517 27.464 39.5016 27.5849C39.4516 27.7058 39.4258 27.8354 39.4258 27.9662V33.9178C39.4258 34.0487 39.4516 34.1782 39.5016 34.2991C39.5517 34.42 39.6251 34.5299 39.7176 34.6224C39.8102 34.7149 39.92 34.7883 40.0409 34.8384C40.1618 34.8885 40.2914 34.9143 40.4222 34.9143H42.9269C43.1911 34.9143 43.4446 34.8093 43.6315 34.6224C43.8183 34.4355 43.9233 34.1821 43.9233 33.9178C43.9233 33.6535 43.8183 33.4001 43.6315 33.2132C43.4446 33.0263 43.1911 32.9214 42.9269 32.9214H41.4174V31.9378H42.7451C42.8789 31.9426 43.0123 31.9204 43.1373 31.8726C43.2623 31.8247 43.3764 31.7521 43.4728 31.6592C43.5691 31.5662 43.6457 31.4548 43.6981 31.3316C43.7504 31.2084 43.7774 31.0759 43.7774 30.942C43.7774 30.8081 43.7504 30.6756 43.6981 30.5524C43.6457 30.4292 43.5691 30.3178 43.4728 30.2249C43.3764 30.1319 43.2623 30.0593 43.1373 30.0115C43.0123 29.9636 42.8789 29.9414 42.7451 29.9462H41.4174V28.9627H42.9269V28.9614Z" fill="#00516A"/>
<path d="M30.8802 26.9414H27.5622C27.3043 26.9507 27.06 27.0597 26.8809 27.2454C26.7017 27.4311 26.6016 27.6791 26.6016 27.9372C26.6016 28.1953 26.7017 28.4433 26.8809 28.629C27.06 28.8147 27.3043 28.9237 27.5622 28.933H28.2183V33.9436C28.2183 34.2079 28.3233 34.4613 28.5102 34.6482C28.697 34.8351 28.9505 34.94 29.2148 34.94C29.479 34.94 29.7325 34.8351 29.9193 34.6482C30.1062 34.4613 30.2112 34.2079 30.2112 33.9436V28.9343H30.8802C31.1381 28.925 31.3824 28.816 31.5615 28.6303C31.7407 28.4446 31.8408 28.1966 31.8408 27.9385C31.8408 27.6804 31.7407 27.4324 31.5615 27.2467C31.3824 27.061 31.1381 26.952 30.8802 26.9427V26.9414Z" fill="#00516A"/>
<path d="M37.2904 26.9414H33.9723C33.7144 26.9507 33.4702 27.0597 33.291 27.2454C33.1118 27.4311 33.0117 27.6791 33.0117 27.9372C33.0117 28.1953 33.1118 28.4433 33.291 28.629C33.4702 28.8147 33.7144 28.9237 33.9723 28.933H34.6285V33.9436C34.6285 34.0744 34.6542 34.204 34.7043 34.3249C34.7544 34.4458 34.8278 34.5557 34.9203 34.6482C35.0128 34.7407 35.1227 34.8141 35.2436 34.8642C35.3645 34.9143 35.4941 34.94 35.6249 34.94C35.7558 34.94 35.8853 34.9143 36.0062 34.8642C36.1271 34.8141 36.237 34.7407 36.3295 34.6482C36.422 34.5557 36.4954 34.4458 36.5455 34.3249C36.5956 34.204 36.6214 34.0744 36.6214 33.9436V28.9343H37.2904C37.4242 28.9391 37.5575 28.9169 37.6826 28.869C37.8076 28.8212 37.9217 28.7486 38.018 28.6556C38.1144 28.5627 38.191 28.4513 38.2433 28.3281C38.2957 28.2049 38.3227 28.0724 38.3227 27.9385C38.3227 27.8046 38.2957 27.6721 38.2433 27.5489C38.191 27.4257 38.1144 27.3143 38.018 27.2213C37.9217 27.1284 37.8076 27.0558 37.6826 27.008C37.5575 26.9601 37.4242 26.9379 37.2904 26.9427V26.9414Z" fill="#00516A"/>
<path d="M48.7276 31.8193C49.1825 31.6238 49.5708 31.3005 49.8454 30.8886C50.12 30.4767 50.269 29.994 50.2745 29.499C50.2745 28.0887 49.0873 26.9427 47.6281 26.9427H46.0283C45.8975 26.9426 45.768 26.9682 45.6471 27.0181C45.5262 27.0681 45.4164 27.1413 45.3238 27.2338C45.2313 27.3262 45.1579 27.436 45.1078 27.5568C45.0577 27.6776 45.0319 27.8071 45.0319 27.9379V33.9449C45.0271 34.0787 45.0493 34.2121 45.0972 34.3371C45.145 34.4621 45.2176 34.5762 45.3105 34.6726C45.4035 34.7689 45.5149 34.8456 45.6381 34.8979C45.7613 34.9502 45.8938 34.9772 46.0277 34.9772C46.1616 34.9772 46.2941 34.9502 46.4173 34.8979C46.5405 34.8456 46.6519 34.7689 46.7448 34.6726C46.8378 34.5762 46.9104 34.4621 46.9582 34.3371C47.0061 34.2121 47.0283 34.0787 47.0235 33.9449V32.8944L48.5278 34.6024C48.6142 34.7005 48.719 34.7808 48.8363 34.8384C48.9537 34.8961 49.0812 34.9301 49.2117 34.9385C49.3422 34.9469 49.473 34.9295 49.5968 34.8873C49.7205 34.8451 49.8347 34.7789 49.9329 34.6926C50.0311 34.6063 50.1113 34.5014 50.169 34.3841C50.2267 34.2668 50.2607 34.1392 50.269 34.0087C50.2774 33.8783 50.26 33.7474 50.2178 33.6237C50.1756 33.4999 50.1095 33.3857 50.0231 33.2875L48.7276 31.8193ZM47.6216 28.9344C47.9697 28.9344 48.2752 29.1922 48.2752 29.499C48.2752 29.8058 47.9697 30.0649 47.6216 30.0649H47.0274C47.0274 29.575 47.0274 29.4371 47.0274 28.9331L47.6216 28.9344Z" fill="#00516A"/>
<path d="M38.4621 12.2873L30.8398 10.025V6.2687L38.4621 4.00639C38.5419 3.98252 38.6262 3.97777 38.7082 3.99252C38.7903 4.00727 38.8676 4.04111 38.9342 4.09131C39.0007 4.14151 39.0544 4.20665 39.0911 4.28147C39.1278 4.3563 39.1463 4.4387 39.1453 4.52202V11.7782C39.1451 11.8608 39.1256 11.9423 39.0884 12.0162C39.0512 12.09 38.9973 12.1542 38.931 12.2036C38.8647 12.253 38.7878 12.2863 38.7064 12.3009C38.625 12.3154 38.5414 12.3108 38.4621 12.2873Z" fill="#FFDF3D"/>
<path d="M38.4614 4.00638L35.1602 4.98607V11.3025L38.4614 12.2822C38.5407 12.3056 38.6244 12.3102 38.7058 12.2957C38.7872 12.2812 38.8641 12.2479 38.9304 12.1985C38.9967 12.1491 39.0506 12.0849 39.0878 12.011C39.125 11.9372 39.1444 11.8557 39.1446 11.773V4.5117C39.1441 4.42924 39.1244 4.34805 39.087 4.27455C39.0496 4.20105 38.9957 4.13726 38.9294 4.08823C38.8631 4.0392 38.7863 4.00628 38.7051 3.99207C38.6239 3.97787 38.5404 3.98277 38.4614 4.00638Z" fill="#F2C711"/>
<path d="M29.1641 14.4697L28.1986 9.53134C28.1732 9.40302 28.1734 9.27096 28.199 9.1427C28.2247 9.01443 28.2753 8.89247 28.3481 8.78379C28.4209 8.6751 28.5144 8.58181 28.6232 8.50924C28.732 8.43668 28.8541 8.38626 28.9824 8.36087C29.2415 8.30959 29.5104 8.36335 29.7299 8.51033C29.8386 8.58311 29.9319 8.67659 30.0045 8.78542C30.077 8.89425 30.1275 9.01631 30.1529 9.14462L31.1197 14.0817C31.145 14.2101 31.1449 14.3423 31.1192 14.4706C31.0935 14.599 31.0428 14.721 30.97 14.8297C30.8972 14.9385 30.8036 15.0318 30.6947 15.1044C30.5858 15.177 30.4637 15.2275 30.3353 15.2528C30.2069 15.2782 30.0747 15.2781 29.9464 15.2524C29.818 15.2267 29.696 15.176 29.5872 15.1032C29.4785 15.0304 29.3852 14.9368 29.3126 14.8279C29.24 14.719 29.1895 14.5968 29.1641 14.4684V14.4697Z" fill="#FFDF3D"/>
<path d="M30.84 6.26868V10.025H28.7336C28.2355 10.025 27.7578 9.82713 27.4056 9.4749C27.0533 9.12268 26.8555 8.64496 26.8555 8.14684C26.8555 7.64872 27.0533 7.171 27.4056 6.81878C27.7578 6.46655 28.2355 6.26868 28.7336 6.26868H30.84Z" fill="#00516A"/>
</g>
<defs>
<clipPath id="clip0_1822_352">
<rect width="66" height="66" fill="white"/>
</clipPath>
</defs>
</svg>
