<svg width="78" height="66" viewBox="0 0 78 66" fill="none" xmlns="http://www.w3.org/2000/svg">
<g clip-path="url(#clip0_1822_401)">
<path d="M68.4418 16.527H7.5193C6.07184 16.527 4.89844 17.7004 4.89844 19.1478V63.3794C4.89844 64.8269 6.07184 66.0003 7.5193 66.0003H68.4418C69.8893 66.0003 71.0627 64.8269 71.0627 63.3794V19.1478C71.0627 17.7004 69.8893 16.527 68.4418 16.527Z" fill="#4989F5"/>
<path d="M67.6775 16.1553H8.21289C6.37088 16.1553 4.9375 30.4114 4.9375 32.2537L37.5015 66H67.6775C68.5652 65.9979 69.4159 65.6444 70.0436 65.0168C70.6713 64.3891 71.0249 63.5385 71.027 62.6508V19.5039C71.0247 18.6163 70.671 17.7658 70.0434 17.1383C69.4157 16.5108 68.5651 16.1573 67.6775 16.1553Z" fill="url(#paint0_linear_1822_401)"/>
<path d="M20.0078 24.8122H38.9119V0.000976562H22.8386L20.0078 24.8122Z" fill="#3C4BA6"/>
<path d="M57.8142 24.8122H38.9102V0.000976562H54.9838L57.8142 24.8122ZM71.0622 4.70401L71.0855 4.7887C71.0806 4.75875 71.0691 4.73123 71.0628 4.70401H71.0622Z" fill="#7BABF7"/>
<path d="M71.0867 4.78802L71.0634 4.70333C70.7725 3.37126 70.035 2.17863 68.9733 1.32318C67.9115 0.467744 66.5893 0.000879456 65.2258 0H54.9844L57.8127 24.8121H76.7168L71.0867 4.78802Z" fill="#3F51B5"/>
<path d="M6.75775 4.70398L6.73438 4.78899C6.73893 4.75893 6.75138 4.7313 6.75775 4.70398Z" fill="#7BABF7"/>
<path d="M6.73528 4.78802L6.75857 4.70333C7.04945 3.37123 7.78691 2.17857 8.84866 1.32312C9.91041 0.467668 11.2327 0.000823962 12.5961 0H22.8385L20.0056 24.8121H1.10156L6.73528 4.78802Z" fill="#7BABF7"/>
<path fill-rule="evenodd" clip-rule="evenodd" d="M20.038 24.8054C20.038 30.0229 15.8086 34.2523 10.5911 34.2523C5.3736 34.2523 1.14453 30.0229 1.14453 24.8054H20.038Z" fill="#709BE0"/>
<path fill-rule="evenodd" clip-rule="evenodd" d="M38.9325 24.8054C38.9325 30.0229 34.7029 34.2523 29.4857 34.2523C24.2684 34.2523 20.0391 30.0229 20.0391 24.8054H38.9325Z" fill="#3C4BA6"/>
<path fill-rule="evenodd" clip-rule="evenodd" d="M57.8268 24.8054C57.8268 30.0229 53.5974 34.2523 48.3802 34.2523C43.163 34.2523 38.9336 30.0229 38.9336 24.8054H57.8268Z" fill="#709BE0"/>
<path fill-rule="evenodd" clip-rule="evenodd" d="M76.7177 24.8054C76.7177 30.0229 72.4883 34.2523 67.2711 34.2523C62.0539 34.2523 57.8242 30.0229 57.8242 24.8054H76.7177Z" fill="#3C4BA6"/>
<path d="M67.2707 50.399C67.2372 49.9493 67.1818 49.5385 67.1029 49.0141H56.7976C56.7976 50.4553 56.7976 52.0281 56.7918 53.47H62.7622C62.6356 54.1419 62.3775 54.7822 62.0027 55.3541C61.628 55.926 61.1439 56.4182 60.5784 56.8025C60.5784 56.8025 60.5784 56.7774 60.5741 56.7768C59.8434 57.2565 59.0202 57.5777 58.1578 57.7199C57.2931 57.8781 56.4065 57.8742 55.5432 57.7084C54.6666 57.5271 53.8366 57.1675 53.1048 56.6519C52.0248 55.8858 51.1918 54.8213 50.7077 53.5888C50.6708 53.4927 50.6367 53.3962 50.6019 53.2982V53.2873L50.6109 53.2803C50.1412 51.9019 50.14 50.4068 50.6076 49.0277C50.9366 48.06 51.4784 47.1785 52.1931 46.4479C53.0153 45.5973 54.0558 44.9896 55.2006 44.6915C56.3454 44.3933 57.5502 44.4163 58.6828 44.7578C59.5684 45.0296 60.3774 45.5063 61.0445 46.1491L63.0586 44.135C63.414 43.7763 63.7827 43.4287 64.1245 43.0576C63.1032 42.1051 61.9046 41.3628 60.5968 40.8729C58.2162 40.0097 55.612 39.987 53.2167 40.8085C53.1332 40.8369 53.0502 40.8664 52.9678 40.8971C50.3841 41.8682 48.2585 43.7727 47.0107 46.2347C46.5701 47.1062 46.2493 48.0333 46.057 48.9908C44.9161 54.6608 48.3754 60.2403 53.9604 61.7403C55.7861 62.2291 57.727 62.217 59.5669 61.8008C61.2386 61.4232 62.7843 60.62 64.054 59.4691C65.3788 58.2501 66.3282 56.6259 66.8258 54.9018C67.2416 53.4402 67.3923 51.9159 67.2707 50.4012V50.399Z" fill="white"/>
</g>
<defs>
<linearGradient id="paint0_linear_1822_401" x1="4.82121" y1="40.6698" x2="70.9123" y2="40.6698" gradientUnits="userSpaceOnUse">
<stop offset="0.03" stopColor="#4079D8"/>
<stop offset="1" stopColor="#4989F5"/>
</linearGradient>
<clipPath id="clip0_1822_401">
<rect width="78" height="66" fill="white"/>
</clipPath>
</defs>
</svg>
