<svg width="32" height="32" viewBox="0 0 32 32" fill="none" xmlns="http://www.w3.org/2000/svg">
<path fill-rule="evenodd" clip-rule="evenodd" d="M31 7.94772C31.0002 7.03527 30.8203 6.13172 30.4705 5.28868C30.1207 4.44565 29.6079 3.67965 28.9614 3.03446C28.3149 2.38926 27.5473 1.8775 26.7025 1.52842C25.8578 1.17934 24.9524 0.999782 24.038 1H7.96197C6.11554 1 4.34474 1.73199 3.03911 3.03494C1.73349 4.33789 1 6.10507 1 7.94772L1 18.9817L1.55549 18.8158C2.78789 18.4373 3.40492 18.2481 3.75751 17.7685C4.1101 17.2888 4.11343 16.6465 4.11343 15.3585V7.94772C4.11387 6.92925 4.51948 5.95261 5.24113 5.23245C5.96277 4.51228 6.94141 4.10749 7.96197 4.10705H24.038C25.0568 4.10661 26.0342 4.50952 26.7557 5.22737C27.4772 5.94521 27.8839 6.91937 27.8866 7.9361V10.7344L31 9.77842V7.94772ZM31 13.0232L30.4462 13.1892C29.9634 13.3248 29.4881 13.4861 29.0225 13.6722C28.7155 13.7845 28.4456 13.9792 28.2425 14.2349C28.1689 14.3343 28.1081 14.4424 28.0612 14.5568C28.0068 14.7068 27.9683 14.862 27.9464 15.0199C27.8901 15.5596 27.8701 16.1025 27.8866 16.6448V24.0423C27.8868 24.5467 27.7874 25.0463 27.5941 25.5123C27.4007 25.9784 27.1173 26.4019 26.7598 26.7586C26.4024 27.1153 25.9781 27.3981 25.5111 27.5911C25.044 27.784 24.5435 27.8832 24.038 27.883H7.96197C6.94329 27.883 5.96615 27.4799 5.24475 26.7622C4.52334 26.0444 4.11651 25.0705 4.11343 24.0539V21.2722L1 22.2266V24.0523C1 25.8949 1.73349 27.6621 3.03911 28.9651C4.34474 30.268 6.11554 31 7.96197 31H24.038C24.9524 31.0002 25.8578 30.8207 26.7025 30.4716C27.5473 30.1225 28.3149 29.6107 28.9614 28.9655C29.6079 28.3203 30.1207 27.5543 30.4705 26.7113C30.8203 25.8683 31.0002 24.9647 31 24.0523V13.0232ZM9.38896 20.7062V14.8971C9.38896 13.3685 9.70995 13.0498 11.24 13.0498H11.8105C13.3439 13.0498 13.6633 13.3685 13.6633 14.8971V20.7062C13.6633 22.2349 13.3439 22.5535 11.8105 22.5535H11.24C9.70995 22.5535 9.38896 22.2349 9.38896 20.7062ZM18.3351 11.2921C18.3351 9.76349 18.6561 9.44481 20.1878 9.44481H20.7583C22.2934 9.44481 22.611 9.76349 22.611 11.2921V20.7046C22.611 22.2349 22.2934 22.5535 20.7583 22.5535H20.1878C18.6561 22.5535 18.3351 22.2349 18.3351 20.7046V11.2921Z" fill="#FF5B49"/>
</svg>
