<svg width="36" height="35" viewBox="0 0 36 35" fill="none" xmlns="http://www.w3.org/2000/svg">
<path fill-rule="evenodd" clip-rule="evenodd" d="M26.0861 22.9939L23.8576 20.8213C23.2329 21.6906 22.5109 22.4847 21.7071 23.1869L23.8665 25.2921L26.0861 22.9939ZM12.6346 9.44846C10.8505 9.44846 9.40439 10.9013 9.40439 12.6938C9.40439 14.4864 10.8505 15.9392 12.6346 15.9392C14.4188 15.9392 15.8649 14.4864 15.8649 12.6938C15.865 10.9013 14.4188 9.44846 12.6346 9.44846ZM12.6346 3.26874C7.45349 3.26874 3.25342 7.4885 3.25342 12.6939C3.25342 17.8993 7.45357 22.119 12.6346 22.119C17.8157 22.119 22.0158 17.8993 22.0158 12.6938C22.0158 7.48842 17.8157 3.26874 12.6346 3.26874ZM19.2394 13.385C19.2394 13.5122 19.1653 13.6206 19.0472 13.6663L18.145 14.0152C18.0062 14.6011 17.775 15.1607 17.4607 15.6735L17.8534 16.562C17.9047 16.6783 17.8808 16.8076 17.7913 16.8975L16.8186 17.8749C16.7291 17.9647 16.6004 17.9888 16.4847 17.9372L15.6007 17.5427C15.0902 17.8586 14.533 18.0909 13.9498 18.2303L13.6026 19.1365C13.5571 19.2552 13.4492 19.3297 13.3226 19.3297H11.9469C11.8203 19.3297 11.7124 19.2552 11.6669 19.1365L11.3196 18.23C10.7364 18.0906 10.1794 17.8583 9.66907 17.5425L8.78474 17.9371C8.66902 17.9887 8.54032 17.9647 8.45084 17.8747L7.47802 16.8974C7.38854 16.8075 7.36462 16.6782 7.41599 16.5619L7.80862 15.6738C7.49422 15.1609 7.26307 14.6011 7.12424 14.0151L6.22222 13.6663C6.10409 13.6206 6.02999 13.5122 6.02999 13.385V12.0028C6.02999 11.8756 6.10409 11.7672 6.22222 11.7215L7.12439 11.3726C7.26314 10.7867 7.49437 10.2271 7.80869 9.71422L7.41599 8.82591C7.36462 8.70971 7.38854 8.58034 7.47802 8.49044L8.45077 7.51306C8.54024 7.42317 8.66894 7.39913 8.78467 7.45074L9.66899 7.84528C10.1794 7.52956 10.7364 7.29725 11.3195 7.15785L11.6668 6.2513C11.7123 6.13262 11.8202 6.05818 11.9468 6.05818H13.3225C13.4491 6.05818 13.5571 6.13262 13.6025 6.2513L13.9498 7.15785C14.533 7.29725 15.09 7.52956 15.6004 7.84528L16.4847 7.45074C16.6004 7.39913 16.7291 7.42317 16.8186 7.51306L17.7914 8.49037C17.8809 8.58026 17.9048 8.70957 17.8534 8.82583L17.4608 9.71392C17.7752 10.2268 18.0064 10.7866 18.1452 11.3726L19.0472 11.7215C19.1653 11.7672 19.2394 11.8756 19.2394 12.0028V13.385ZM33.172 34.6511C32.7321 35.1066 32.0012 35.1175 31.5478 34.6756L24.6094 27.9114C24.1561 27.4694 24.1451 26.7349 24.585 26.2795L27.0901 23.6858C27.5299 23.2304 28.261 23.2193 28.7143 23.6613L35.6526 30.4257C36.1059 30.8677 36.1171 31.6018 35.6771 32.0574L33.172 34.6511ZM12.6346 0C5.65672 0 0 5.68323 0 12.6939C0 19.7045 5.65672 25.3878 12.6346 25.3878C19.6125 25.3878 25.2693 19.7045 25.2693 12.6939C25.2693 5.68323 19.6126 0 12.6346 0ZM12.6346 23.3246C6.79124 23.3246 2.05342 18.5647 2.05342 12.6938C2.05342 6.82299 6.79124 2.06312 12.6346 2.06312C18.478 2.06312 23.2158 6.82314 23.2158 12.6939C23.2158 18.5646 18.478 23.3246 12.6346 23.3246Z" fill="black"/>
</svg>
